<?xml version="1.0" encoding="UTF-8" standalone="no"?>
<svg
   width="1920"
   height="3457"
   viewBox="0 0 1920 3457"
   fill="none"
   version="1.1"
   id="svg562"
   sodipodi:docname="back3-1.svg"
   inkscape:version="1.2.1 (9c6d41e410, 2022-07-14)"
   xmlns:inkscape="http://www.inkscape.org/namespaces/inkscape"
   xmlns:sodipodi="http://sodipodi.sourceforge.net/DTD/sodipodi-0.dtd"
   xmlns="http://www.w3.org/2000/svg"
   xmlns:svg="http://www.w3.org/2000/svg">
  <sodipodi:namedview
     id="namedview564"
     pagecolor="#505050"
     bordercolor="#eeeeee"
     borderopacity="1"
     inkscape:showpageshadow="0"
     inkscape:pageopacity="0"
     inkscape:pagecheckerboard="0"
     inkscape:deskcolor="#505050"
     showgrid="false"
     inkscape:zoom="0.48423489"
     inkscape:cx="1009.8405"
     inkscape:cy="367.5902"
     inkscape:window-width="1920"
     inkscape:window-height="1017"
     inkscape:window-x="-8"
     inkscape:window-y="32"
     inkscape:window-maximized="1"
     inkscape:current-layer="svg562" />
  <g
     opacity="0.2"
     id="g344">
    <path
       d="M1108.76 1623.47C1108.22 1623.47 1107.76 1622.81 1107.76 1622.01V1610.92C1107.76 1610.12 1108.22 1609.47 1108.76 1609.47C1109.31 1609.47 1109.76 1610.12 1109.76 1610.92V1622.01C1109.76 1622.81 1109.31 1623.47 1108.76 1623.47Z"
       fill="white"
       id="path340" />
    <path
       d="M1114.31 1617.18H1103.22C1102.42 1617.18 1101.77 1616.69 1101.77 1616.1C1101.77 1615.52 1102.42 1615.03 1103.22 1615.03H1114.31C1115.11 1615.03 1115.77 1615.52 1115.77 1616.1C1115.77 1616.69 1115.11 1617.18 1114.31 1617.18Z"
       fill="white"
       id="path342" />
  </g>
  <g
     opacity="0.2"
     id="g350">
    <path
       d="M960.278 2018.44C959.73 2018.44 959.278 2017.78 959.278 2016.99V2005.89C959.278 2005.1 959.73 2004.44 960.278 2004.44C960.827 2004.44 961.278 2005.1 961.278 2005.89V2016.99C961.278 2017.78 960.827 2018.44 960.278 2018.44Z"
       fill="white"
       id="path346" />
    <path
       d="M965.825 2012.16H954.733C953.936 2012.16 953.279 2011.66 953.279 2011.08C953.279 2010.49 953.936 2010 954.733 2010H965.825C966.623 2010 967.279 2010.49 967.279 2011.08C967.279 2011.66 966.623 2012.16 965.825 2012.16Z"
       fill="white"
       id="path348" />
  </g>
  <g
     opacity="0.3"
     id="g356">
    <path
       d="M959.999 3456.66C959.45 3456.66 958.999 3456.01 958.999 3455.21V3444.12C958.999 3443.32 959.45 3442.66 959.999 3442.66C960.547 3442.66 960.999 3443.32 960.999 3444.12V3455.21C960.999 3456.01 960.547 3456.66 959.999 3456.66Z"
       fill="#4C1D6F"
       id="path352" />
    <path
       d="M965.545 3450.38H954.453C953.656 3450.38 952.999 3449.88 952.999 3449.3C952.999 3448.71 953.656 3448.22 954.453 3448.22H965.545C966.343 3448.22 966.999 3448.71 966.999 3449.3C966.999 3449.88 966.343 3450.38 965.545 3450.38Z"
       fill="#4C1D6F"
       id="path354" />
  </g>
  <g
     opacity="0.2"
     id="g362">
    <path
       d="M666.765 1702.72C666.217 1702.72 665.765 1702.07 665.765 1701.27V1690.18C665.765 1689.38 666.217 1688.72 666.765 1688.72C667.314 1688.72 667.765 1689.38 667.765 1690.18V1701.27C667.765 1702.07 667.314 1702.72 666.765 1702.72Z"
       fill="white"
       id="path358" />
    <path
       d="M672.312 1696.44H661.22C660.423 1696.44 659.766 1695.95 659.766 1695.36C659.766 1694.77 660.423 1694.28 661.22 1694.28H672.312C673.109 1694.28 673.766 1694.77 673.766 1695.36C673.766 1695.95 673.109 1696.44 672.312 1696.44Z"
       fill="white"
       id="path360" />
  </g>
  <g
     opacity="0.2"
     id="g368">
    <path
       d="M1623.4 258.822H1667.07C1668.31 258.822 1669.3 257.814 1669.3 256.588C1669.3 255.342 1668.29 254.353 1667.07 254.353H1623.4C1622.16 254.353 1621.17 255.361 1621.17 256.588C1621.17 257.814 1622.18 258.822 1623.4 258.822Z"
       fill="white"
       id="path364" />
    <path
       d="M1642.16 267.999H1690.44C1698.74 267.999 1705.48 261.255 1705.48 252.949C1705.48 244.642 1698.74 237.898 1690.44 237.898C1688.43 237.898 1686.45 238.293 1684.63 239.065C1683.63 236.197 1681.87 233.606 1679.52 231.608C1676.36 228.899 1672.33 227.396 1668.16 227.396C1662.29 227.396 1656.87 230.382 1653.65 235.109C1651.86 233.111 1648.83 231.055 1644.03 231.055C1636.82 231.055 1630.97 236.929 1630.97 244.128C1630.97 245.374 1631.98 246.363 1633.2 246.363C1634.45 246.363 1635.44 245.354 1635.44 244.128C1635.44 239.381 1639.29 235.544 1644.01 235.544C1649.94 235.544 1651.66 240.133 1651.72 240.33V240.311L1655.95 240.37C1657.82 235.287 1662.72 231.885 1668.16 231.885C1674.54 231.885 1679.93 236.474 1680.98 242.783L1684.46 244.266C1686.24 243.04 1688.29 242.387 1690.44 242.387C1696.27 242.387 1700.99 247.134 1700.99 252.949C1700.99 258.783 1696.25 263.51 1690.44 263.51H1642.16C1640.91 263.51 1639.92 264.519 1639.92 265.745C1639.9 266.991 1640.91 267.999 1642.16 267.999Z"
       fill="white"
       id="path366" />
  </g>
  <g
     opacity="0.2"
     id="g374">
    <path
       d="M532.61 1576.96H576.275C577.52 1576.96 578.508 1575.95 578.508 1574.73C578.508 1573.48 577.5 1572.49 576.275 1572.49H532.61C531.365 1572.49 530.377 1573.5 530.377 1574.73C530.377 1575.95 531.385 1576.96 532.61 1576.96Z"
       fill="white"
       id="path370" />
    <path
       d="M551.361 1586.14H599.65C607.948 1586.14 614.686 1579.4 614.686 1571.09C614.686 1562.78 607.948 1556.04 599.65 1556.04C597.634 1556.04 595.659 1556.43 593.841 1557.21C592.833 1554.34 591.075 1551.75 588.724 1549.75C585.562 1547.04 581.532 1545.54 577.363 1545.54C571.495 1545.54 566.081 1548.52 562.86 1553.25C561.062 1551.25 558.039 1549.2 553.238 1549.2C546.026 1549.2 540.178 1555.07 540.178 1562.27C540.178 1563.51 541.186 1564.5 542.411 1564.5C543.655 1564.5 544.643 1563.49 544.643 1562.27C544.643 1557.52 548.496 1553.68 553.218 1553.68C559.146 1553.68 560.865 1558.27 560.924 1558.47V1558.45L565.152 1558.51C567.029 1553.43 571.929 1550.03 577.363 1550.03C583.745 1550.03 589.138 1554.61 590.186 1560.92L593.663 1562.41C595.441 1561.18 597.496 1560.53 599.65 1560.53C605.478 1560.53 610.201 1565.27 610.201 1571.09C610.201 1576.92 605.459 1581.65 599.65 1581.65H551.361C550.116 1581.65 549.128 1582.66 549.128 1583.89C549.109 1585.13 550.116 1586.14 551.361 1586.14Z"
       fill="white"
       id="path372" />
  </g>
  <g
     opacity="0.2"
     id="g380">
    <path
       d="M185.188 342.431H233.457C241.756 342.431 248.493 335.686 248.493 327.38C248.493 319.073 241.756 312.329 233.457 312.329C231.442 312.329 229.466 312.724 227.648 313.496C226.641 310.628 224.882 308.037 222.531 306.039C219.37 303.33 215.339 301.827 211.17 301.827C201.528 301.827 193.684 309.679 193.684 319.33C193.684 320.576 194.692 321.565 195.917 321.565C197.142 321.565 198.15 320.556 198.15 319.33C198.15 312.151 203.978 306.316 211.15 306.316C217.532 306.316 222.926 310.905 223.973 317.214L227.451 318.697C229.229 317.471 231.284 316.818 233.437 316.818C239.266 316.818 243.988 321.565 243.988 327.38C243.988 333.214 239.246 337.941 233.437 337.941H185.149C183.904 337.941 182.916 338.95 182.916 340.176C182.916 341.402 183.943 342.431 185.188 342.431Z"
       fill="white"
       id="path376" />
    <path
       d="M171.398 333.254H215.063C216.308 333.254 217.296 332.245 217.296 331.019C217.296 329.773 216.288 328.784 215.063 328.784H171.398C170.153 328.784 169.165 329.792 169.165 331.019C169.165 332.265 170.173 333.254 171.398 333.254Z"
       fill="white"
       id="path378" />
  </g>
  <g
     opacity="0.2"
     id="g386">
    <path
       d="M1186.16 1728.94H1234.43C1242.73 1728.94 1249.46 1722.2 1249.46 1713.89C1249.46 1705.58 1242.73 1698.84 1234.43 1698.84C1232.41 1698.84 1230.44 1699.24 1228.62 1700.01C1227.61 1697.14 1225.85 1694.55 1223.5 1692.55C1220.34 1689.84 1216.31 1688.34 1212.14 1688.34C1202.5 1688.34 1194.66 1696.19 1194.66 1705.84C1194.66 1707.09 1195.66 1708.08 1196.89 1708.08C1198.11 1708.08 1199.12 1707.07 1199.12 1705.84C1199.12 1698.66 1204.95 1692.83 1212.12 1692.83C1218.5 1692.83 1223.9 1697.42 1224.94 1703.73L1228.42 1705.21C1230.2 1703.98 1232.25 1703.33 1234.41 1703.33C1240.24 1703.33 1244.96 1708.08 1244.96 1713.89C1244.96 1719.73 1240.22 1724.45 1234.41 1724.45H1186.12C1184.87 1724.45 1183.89 1725.46 1183.89 1726.69C1183.89 1727.91 1184.91 1728.94 1186.16 1728.94Z"
       fill="white"
       id="path382" />
    <path
       d="M1172.37 1719.76H1216.03C1217.28 1719.76 1218.27 1718.76 1218.27 1717.53C1218.27 1716.28 1217.26 1715.29 1216.03 1715.29H1172.37C1171.12 1715.29 1170.14 1716.3 1170.14 1717.53C1170.14 1718.78 1171.14 1719.76 1172.37 1719.76Z"
       fill="white"
       id="path384" />
  </g>
  <g
     opacity="0.2"
     id="g392">
    <path
       d="M281.997 2979.43H330.265C338.564 2979.43 345.301 2972.69 345.301 2964.38C345.301 2956.07 338.564 2949.33 330.265 2949.33C328.25 2949.33 326.274 2949.73 324.457 2950.5C323.449 2947.63 321.69 2945.04 319.339 2943.04C316.178 2940.33 312.147 2938.83 307.978 2938.83C298.336 2938.83 290.492 2946.68 290.492 2956.33C290.492 2957.58 291.5 2958.57 292.725 2958.57C293.95 2958.57 294.958 2957.56 294.958 2956.33C294.958 2949.15 300.786 2943.32 307.959 2943.32C314.34 2943.32 319.734 2947.91 320.782 2954.22L324.259 2955.7C326.037 2954.47 328.092 2953.82 330.246 2953.82C336.074 2953.82 340.797 2958.57 340.797 2964.38C340.797 2970.22 336.055 2974.94 330.246 2974.94H281.957C280.712 2974.94 279.724 2975.95 279.724 2977.18C279.724 2978.4 280.752 2979.43 281.997 2979.43Z"
       fill="white"
       id="path388" />
    <path
       d="M268.206 2970.26H311.871C313.116 2970.26 314.104 2969.25 314.104 2968.02C314.104 2966.77 313.096 2965.79 311.871 2965.79H268.206C266.961 2965.79 265.973 2966.79 265.973 2968.02C265.973 2969.27 266.981 2970.26 268.206 2970.26Z"
       fill="white"
       id="path390" />
  </g>
  <g
     opacity="0.05"
     clip-path="url(#clip0_2_581)"
     id="g410">
    <path
       d="M-118.581 594.622H151.311L155.282 598.603V629.572L151.311 633.553H139.013V715.219C139.013 717.438 137.221 719.2 135.043 719.2C132.864 719.2 131.072 717.403 131.072 715.219V679.248H-98.2367V926.57C-98.2367 928.79 -100.029 930.551 -102.207 930.551C-104.386 930.551 -106.178 928.755 -106.178 926.57V633.588H-118.476L-122.447 629.607V598.639L-118.581 594.622ZM131.037 671.285V656.418H-98.2719V671.285H131.037ZM-98.2719 648.42H131.037V633.588H-98.2719V648.42ZM-114.576 625.591H-102.278H135.007H147.306V602.62H-114.611V625.591H-114.576Z"
       fill="white"
       id="path394" />
    <path
       fill-rule="evenodd"
       clip-rule="evenodd"
       d="M252.305 477V507.848L248.335 511.829H-165.552L-169.522 507.848V423.821L-165.552 419.84H193.902V427.803H-161.581V503.867H244.329V477H252.305Z"
       fill="white"
       id="path396" />
    <path
       d="M-512.65 461.836H-339.07C-336.857 461.836 -335.1 463.633 -335.1 465.817C-335.1 468.036 -336.892 469.798 -339.07 469.798H-508.68V530.466H-489.354H225.101H244.427V469.833H74.8169C72.6032 469.833 70.8464 468.037 70.8464 465.852C70.8464 463.633 72.6384 461.871 74.8169 461.871H248.397L252.368 465.852V534.518L248.397 538.499H229.071V714.725C229.071 716.945 227.28 718.706 225.101 718.706C222.922 718.706 221.13 716.909 221.13 714.725V538.499H-485.348V922.589H225.136C227.35 922.589 229.107 924.386 229.107 926.57C229.107 928.754 227.315 930.551 225.136 930.551H-489.319L-493.29 926.57V538.499H-512.615L-516.586 534.518V465.817L-512.65 461.836Z"
       fill="white"
       id="path398" />
    <rect
       x="-517.646"
       y="449.047"
       width="770.013"
       height="54.81"
       fill="#7700D1"
       id="rect400" />
    <rect
       x="-360.36"
       y="427.681"
       width="554.262"
       height="53.1196"
       fill="#7700D1"
       id="rect402" />
    <rect
       x="229.399"
       y="466.389"
       width="38.9119"
       height="31.4622"
       fill="#7700D1"
       id="rect404" />
    <rect
       x="229.399"
       y="451.402"
       width="38.9119"
       height="10.5687"
       fill="#7700D1"
       id="rect406" />
    <path
       fill-rule="evenodd"
       clip-rule="evenodd"
       d="M188.015 427.902V419.889C188.658 419.857 189.306 419.84 189.958 419.84H214.305C235.292 419.84 252.305 436.854 252.305 457.84V503.857H244.305V457.84C244.305 441.272 230.874 427.84 214.305 427.84H189.958C189.305 427.84 188.657 427.861 188.015 427.902Z"
       fill="white"
       id="path408" />
  </g>
  <g
     clip-path="url(#clip1_2_581)"
     id="g438">
    <mask
       id="path-55-inside-1_2_581"
       fill="white">
      <path
         fill-rule="evenodd"
         clip-rule="evenodd"
         d="M272.184 713.693H88.1347L80.8755 720.959V905.193L84.0259 908.346V872.169H95.4581V758.192H88.6523V717.902H134.147V728.29H230.994V717.902H275.431V758.192H264.924V872.169H275.431V909.209L279.443 905.193V720.959L272.184 713.693ZM243.788 912.459H115.669V897.926H243.788V912.459Z"
         id="path412" />
    </mask>
    <path
       fill-rule="evenodd"
       clip-rule="evenodd"
       d="M272.184 713.693H88.1347L80.8755 720.959V905.193L84.0259 908.346V872.169H95.4581V758.192H88.6523V717.902H134.147V728.29H230.994V717.902H275.431V758.192H264.924V872.169H275.431V909.209L279.443 905.193V720.959L272.184 713.693ZM243.788 912.459H115.669V897.926H243.788V912.459Z"
       fill="white"
       id="path415" />
    <path
       d="M88.1347 713.693V709.693H86.4767L85.3049 710.866L88.1347 713.693ZM272.184 713.693L275.014 710.866L273.842 709.693H272.184V713.693ZM80.8755 720.959L78.0456 718.132L76.8755 719.304V720.959H80.8755ZM80.8755 905.193H76.8755V906.848L78.0456 908.02L80.8755 905.193ZM84.0259 908.346L81.1961 911.173L88.0259 918.01V908.346H84.0259ZM84.0259 872.169V868.169H80.0259V872.169H84.0259ZM95.4581 872.169V876.169H99.4581V872.169H95.4581ZM95.4581 758.192H99.4581V754.192H95.4581V758.192ZM88.6523 758.192H84.6523V762.192H88.6523V758.192ZM88.6523 717.902V713.902H84.6523V717.902H88.6523ZM134.147 717.902H138.147V713.902H134.147V717.902ZM134.147 728.29H130.147V732.29H134.147V728.29ZM230.994 728.29V732.29H234.994V728.29H230.994ZM230.994 717.902V713.902H226.994V717.902H230.994ZM275.431 717.902H279.431V713.902H275.431V717.902ZM275.431 758.192V762.192H279.431V758.192H275.431ZM264.924 758.192V754.192H260.924V758.192H264.924ZM264.924 872.169H260.924V876.169H264.924V872.169ZM275.431 872.169H279.431V868.169H275.431V872.169ZM275.431 909.209H271.431V918.872L278.261 912.035L275.431 909.209ZM279.443 905.193L282.273 908.02L283.443 906.848V905.193H279.443ZM279.443 720.959H283.443V719.304L282.273 718.132L279.443 720.959ZM115.669 912.459H111.669V916.459H115.669V912.459ZM243.788 912.459V916.459H247.788V912.459H243.788ZM115.669 897.926V893.926H111.669V897.926H115.669ZM243.788 897.926H247.788V893.926H243.788V897.926ZM88.1347 717.693H272.184V709.693H88.1347V717.693ZM83.7053 723.786L90.9645 716.52L85.3049 710.866L78.0456 718.132L83.7053 723.786ZM84.8755 905.193V720.959H76.8755V905.193H84.8755ZM86.8557 905.519L83.7053 902.366L78.0456 908.02L81.1961 911.173L86.8557 905.519ZM80.0259 872.169V908.346H88.0259V872.169H80.0259ZM95.4581 868.169H84.0259V876.169H95.4581V868.169ZM91.4581 758.192V872.169H99.4581V758.192H91.4581ZM95.4581 754.192H88.6523V762.192H95.4581V754.192ZM92.6523 758.192V717.902H84.6523V758.192H92.6523ZM88.6523 721.902H134.147V713.902H88.6523V721.902ZM130.147 717.902V728.29H138.147V717.902H130.147ZM230.994 724.29H134.147V732.29H230.994V724.29ZM226.994 717.902V728.29H234.994V717.902H226.994ZM275.431 713.902H230.994V721.902H275.431V713.902ZM279.431 758.192V717.902H271.431V758.192H279.431ZM264.924 762.192H275.431V754.192H264.924V762.192ZM268.924 872.169V758.192H260.924V872.169H268.924ZM275.431 868.169H264.924V876.169H275.431V868.169ZM279.431 909.209V872.169H271.431V909.209H279.431ZM276.613 902.366L272.601 906.382L278.261 912.035L282.273 908.02L276.613 902.366ZM275.443 720.959V905.193H283.443V720.959H275.443ZM269.354 716.52L276.613 723.786L282.273 718.132L275.014 710.866L269.354 716.52ZM115.669 916.459H243.788V908.459H115.669V916.459ZM111.669 897.926V912.459H119.669V897.926H111.669ZM243.788 893.926H115.669V901.926H243.788V893.926ZM247.788 912.459V897.926H239.788V912.459H247.788Z"
       fill="#7700D1"
       mask="url(#path-55-inside-1_2_581)"
       id="path417" />
    <mask
       id="path-57-inside-2_2_581"
       fill="white">
      <path
         fill-rule="evenodd"
         clip-rule="evenodd"
         d="M135.984 795.693H164.551H194.886H223.453L230.994 788.354V731.032C230.994 726.983 227.614 723.693 223.453 723.693C219.292 723.693 215.911 726.983 215.911 731.032V780.888H194.886H164.551H143.526V731.032C143.526 726.983 140.145 723.693 135.984 723.693C131.824 723.693 128.443 726.983 128.443 731.032V788.354L135.984 795.693Z"
         id="path419" />
    </mask>
    <path
       fill-rule="evenodd"
       clip-rule="evenodd"
       d="M135.984 795.693H164.551H194.886H223.453L230.994 788.354V731.032C230.994 726.983 227.614 723.693 223.453 723.693C219.292 723.693 215.911 726.983 215.911 731.032V780.888H194.886H164.551H143.526V731.032C143.526 726.983 140.145 723.693 135.984 723.693C131.824 723.693 128.443 726.983 128.443 731.032V788.354L135.984 795.693Z"
       fill="white"
       id="path422" />
    <path
       d="M135.984 795.693L133.195 798.559L134.359 799.693H135.984V795.693ZM223.453 795.693V799.693H225.078L226.242 798.559L223.453 795.693ZM230.994 788.354L233.784 791.22L234.994 790.042V788.354H230.994ZM215.911 780.888V784.888H219.911V780.888H215.911ZM143.526 780.888H139.526V784.888H143.526V780.888ZM128.443 788.354H124.443V790.042L125.653 791.22L128.443 788.354ZM164.551 791.693H135.984V799.693H164.551V791.693ZM164.551 799.693H194.886V791.693H164.551V799.693ZM194.886 799.693H223.453V791.693H194.886V799.693ZM226.242 798.559L233.784 791.22L228.204 785.487L220.663 792.826L226.242 798.559ZM234.994 788.354V731.032H226.994V788.354H234.994ZM234.994 731.032C234.994 724.672 229.719 719.693 223.453 719.693V727.693C225.508 727.693 226.994 729.294 226.994 731.032H234.994ZM223.453 719.693C217.186 719.693 211.911 724.672 211.911 731.032H219.911C219.911 729.294 221.398 727.693 223.453 727.693V719.693ZM211.911 731.032V780.888H219.911V731.032H211.911ZM215.911 776.888H194.886V784.888H215.911V776.888ZM194.886 776.888H164.551V784.888H194.886V776.888ZM143.526 784.888H164.551V776.888H143.526V784.888ZM139.526 731.032V780.888H147.526V731.032H139.526ZM135.984 727.693C138.039 727.693 139.526 729.294 139.526 731.032H147.526C147.526 724.672 142.251 719.693 135.984 719.693V727.693ZM132.443 731.032C132.443 729.294 133.929 727.693 135.984 727.693V719.693C129.718 719.693 124.443 724.672 124.443 731.032H132.443ZM132.443 788.354V731.032H124.443V788.354H132.443ZM138.774 792.826L131.233 785.487L125.653 791.22L133.195 798.559L138.774 792.826Z"
       fill="#7700D1"
       mask="url(#path-57-inside-2_2_581)"
       id="path424" />
    <rect
       x="-1.75432"
       y="1.75432"
       width="3.50863"
       height="10.4914"
       transform="matrix(-1 0 0 1 223.41 720.693)"
       fill="white"
       stroke="white"
       stroke-width="3.50863"
       id="rect426" />
    <rect
       x="-1.78855"
       y="1.78855"
       width="3.57709"
       height="10.4229"
       transform="matrix(-1 0 0 1 135.957 720.693)"
       fill="white"
       stroke="white"
       stroke-width="3.57709"
       id="rect428" />
    <path
       fill-rule="evenodd"
       clip-rule="evenodd"
       d="M219.901 724.455H237.431C254.662 724.455 268.631 738.424 268.631 755.655V765.358H275.431V755.655C275.431 734.668 258.418 717.655 237.431 717.655H218.159C216.686 717.655 215.232 717.739 213.803 717.902H219.901V724.455Z"
       fill="white"
       id="path430" />
    <path
       fill-rule="evenodd"
       clip-rule="evenodd"
       d="M268.596 853.237L268.596 870.767C268.596 887.998 254.627 901.967 237.396 901.967L229.656 901.967L229.656 908.767L237.396 908.767C258.383 908.767 275.396 891.754 275.396 870.767L275.396 851.495C275.396 850.053 275.316 848.629 275.159 847.229L275.159 853.237L268.596 853.237Z"
       fill="white"
       id="path432" />
    <path
       fill-rule="evenodd"
       clip-rule="evenodd"
       d="M91.655 853.237L91.655 870.767C91.655 887.998 105.624 901.967 122.855 901.967L130.595 901.967L130.595 908.767L122.855 908.767C101.868 908.767 84.855 891.754 84.855 870.767L84.855 851.495C84.855 850.053 84.9354 848.629 85.0919 847.229L85.0919 853.237L91.655 853.237Z"
       fill="white"
       id="path434" />
    <path
       fill-rule="evenodd"
       clip-rule="evenodd"
       d="M140.385 724.455H122.855C105.624 724.455 91.655 738.424 91.655 755.655V765.358H84.855V755.655C84.855 734.668 101.868 717.655 122.855 717.655H142.127C143.6 717.655 145.054 717.739 146.483 717.902H140.385V724.455Z"
       fill="white"
       id="path436" />
  </g>
  <g
     clip-path="url(#clip2_2_581)"
     id="g460">
    <mask
       id="path-65-inside-3_2_581"
       fill="white">
      <path
         fill-rule="evenodd"
         clip-rule="evenodd"
         d="M88.4001 713.693H-95.6491L-102.908 720.959V905.193L-99.7579 908.346V872.169H-88.3258V758.192H-95.1315V717.902H-49.6365V728.29H47.2104V717.902H91.6472V758.192H81.1407V872.169H91.6472V909.209L95.6591 905.193V720.959L88.4001 713.693ZM60.0039 912.459H-68.1146V897.926H60.0039V912.459Z"
         id="path440" />
    </mask>
    <path
       fill-rule="evenodd"
       clip-rule="evenodd"
       d="M88.4001 713.693H-95.6491L-102.908 720.959V905.193L-99.7579 908.346V872.169H-88.3258V758.192H-95.1315V717.902H-49.6365V728.29H47.2104V717.902H91.6472V758.192H81.1407V872.169H91.6472V909.209L95.6591 905.193V720.959L88.4001 713.693ZM60.0039 912.459H-68.1146V897.926H60.0039V912.459Z"
       fill="white"
       id="path443" />
    <path
       d="M-95.6491 713.693V709.693H-97.3071L-98.479 710.866L-95.6491 713.693ZM88.4001 713.693L91.2299 710.866L90.0581 709.693H88.4001V713.693ZM-102.908 720.959L-105.738 718.132L-106.908 719.304V720.959H-102.908ZM-102.908 905.193H-106.908V906.848L-105.738 908.02L-102.908 905.193ZM-99.7579 908.346L-102.588 911.173L-95.7579 918.01V908.346H-99.7579ZM-99.7579 872.169V868.169H-103.758V872.169H-99.7579ZM-88.3258 872.169V876.169H-84.3258V872.169H-88.3258ZM-88.3258 758.192H-84.3258V754.192H-88.3258V758.192ZM-95.1315 758.192H-99.1315V762.192H-95.1315V758.192ZM-95.1315 717.902V713.902H-99.1315V717.902H-95.1315ZM-49.6365 717.902H-45.6365V713.902H-49.6365V717.902ZM-49.6365 728.29H-53.6365V732.29H-49.6365V728.29ZM47.2104 728.29V732.29H51.2104V728.29H47.2104ZM47.2104 717.902V713.902H43.2104V717.902H47.2104ZM91.6472 717.902H95.6472V713.902H91.6472V717.902ZM91.6472 758.192V762.192H95.6472V758.192H91.6472ZM81.1407 758.192V754.192H77.1407V758.192H81.1407ZM81.1407 872.169H77.1407V876.169H81.1407V872.169ZM91.6472 872.169H95.6472V868.169H91.6472V872.169ZM91.6472 909.209H87.6472V918.872L94.4771 912.035L91.6472 909.209ZM95.6591 905.193L98.489 908.02L99.6591 906.848V905.193H95.6591ZM95.6591 720.959H99.6591V719.304L98.489 718.132L95.6591 720.959ZM-68.1146 912.459H-72.1146V916.459H-68.1146V912.459ZM60.0039 912.459V916.459H64.0039V912.459H60.0039ZM-68.1146 897.926V893.926H-72.1146V897.926H-68.1146ZM60.0039 897.926H64.0039V893.926H60.0039V897.926ZM-95.6491 717.693H88.4001V709.693H-95.6491V717.693ZM-100.078 723.786L-92.8193 716.52L-98.479 710.866L-105.738 718.132L-100.078 723.786ZM-98.9083 905.193V720.959H-106.908V905.193H-98.9083ZM-96.9281 905.519L-100.078 902.366L-105.738 908.02L-102.588 911.173L-96.9281 905.519ZM-103.758 872.169V908.346H-95.7579V872.169H-103.758ZM-88.3258 868.169H-99.7579V876.169H-88.3258V868.169ZM-92.3258 758.192V872.169H-84.3258V758.192H-92.3258ZM-88.3258 754.192H-95.1315V762.192H-88.3258V754.192ZM-91.1315 758.192V717.902H-99.1315V758.192H-91.1315ZM-95.1315 721.902H-49.6365V713.902H-95.1315V721.902ZM-53.6365 717.902V728.29H-45.6365V717.902H-53.6365ZM47.2104 724.29H-49.6365V732.29H47.2104V724.29ZM43.2104 717.902V728.29H51.2104V717.902H43.2104ZM91.6472 713.902H47.2104V721.902H91.6472V713.902ZM95.6472 758.192V717.902H87.6472V758.192H95.6472ZM81.1407 762.192H91.6472V754.192H81.1407V762.192ZM85.1407 872.169V758.192H77.1407V872.169H85.1407ZM91.6472 868.169H81.1407V876.169H91.6472V868.169ZM95.6472 909.209V872.169H87.6472V909.209H95.6472ZM92.8292 902.366L88.8173 906.382L94.4771 912.035L98.489 908.02L92.8292 902.366ZM91.6591 720.959V905.193H99.6591V720.959H91.6591ZM85.5702 716.52L92.8292 723.786L98.489 718.132L91.2299 710.866L85.5702 716.52ZM-68.1146 916.459H60.0039V908.459H-68.1146V916.459ZM-72.1146 897.926V912.459H-64.1146V897.926H-72.1146ZM60.0039 893.926H-68.1146V901.926H60.0039V893.926ZM64.0039 912.459V897.926H56.0039V912.459H64.0039Z"
       fill="#7700D1"
       mask="url(#path-65-inside-3_2_581)"
       id="path445" />
    <mask
       id="path-67-inside-4_2_581"
       fill="white">
      <path
         fill-rule="evenodd"
         clip-rule="evenodd"
         d="M-47.7994 795.693H-19.2328H11.1022H39.6689L47.2104 788.354V731.032C47.2104 726.983 43.8297 723.693 39.6689 723.693C35.508 723.693 32.1274 726.983 32.1274 731.032V780.888H11.1022H-19.2328H-40.2579V731.032C-40.2579 726.983 -43.6386 723.693 -47.7994 723.693C-51.9603 723.693 -55.3409 726.983 -55.3409 731.032V788.354L-47.7994 795.693Z"
         id="path447" />
    </mask>
    <path
       fill-rule="evenodd"
       clip-rule="evenodd"
       d="M-47.7994 795.693H-19.2328H11.1022H39.6689L47.2104 788.354V731.032C47.2104 726.983 43.8297 723.693 39.6689 723.693C35.508 723.693 32.1274 726.983 32.1274 731.032V780.888H11.1022H-19.2328H-40.2579V731.032C-40.2579 726.983 -43.6386 723.693 -47.7994 723.693C-51.9603 723.693 -55.3409 726.983 -55.3409 731.032V788.354L-47.7994 795.693Z"
       fill="white"
       id="path450" />
    <path
       d="M-47.7994 795.693L-50.5892 798.559L-49.4245 799.693H-47.7994V795.693ZM39.6689 795.693V799.693H41.294L42.4586 798.559L39.6689 795.693ZM47.2104 788.354L50.0001 791.22L51.2104 790.042V788.354H47.2104ZM32.1274 780.888V784.888H36.1274V780.888H32.1274ZM-40.2579 780.888H-44.2579V784.888H-40.2579V780.888ZM-55.3409 788.354H-59.3409V790.042L-58.1307 791.22L-55.3409 788.354ZM-19.2328 791.693H-47.7994V799.693H-19.2328V791.693ZM-19.2328 799.693H11.1022V791.693H-19.2328V799.693ZM11.1022 799.693H39.6689V791.693H11.1022V799.693ZM42.4586 798.559L50.0001 791.22L44.4207 785.487L36.8792 792.826L42.4586 798.559ZM51.2104 788.354V731.032H43.2104V788.354H51.2104ZM51.2104 731.032C51.2104 724.672 45.9356 719.693 39.6689 719.693V727.693C41.7238 727.693 43.2104 729.294 43.2104 731.032H51.2104ZM39.6689 719.693C33.4021 719.693 28.1274 724.672 28.1274 731.032H36.1274C36.1274 729.294 37.614 727.693 39.6689 727.693V719.693ZM28.1274 731.032V780.888H36.1274V731.032H28.1274ZM32.1274 776.888H11.1022V784.888H32.1274V776.888ZM11.1022 776.888H-19.2328V784.888H11.1022V776.888ZM-40.2579 784.888H-19.2328V776.888H-40.2579V784.888ZM-44.2579 731.032V780.888H-36.2579V731.032H-44.2579ZM-47.7994 727.693C-45.7445 727.693 -44.2579 729.294 -44.2579 731.032H-36.2579C-36.2579 724.672 -41.5327 719.693 -47.7994 719.693V727.693ZM-51.3409 731.032C-51.3409 729.294 -49.8544 727.693 -47.7994 727.693V719.693C-54.0662 719.693 -59.3409 724.672 -59.3409 731.032H-51.3409ZM-51.3409 788.354V731.032H-59.3409V788.354H-51.3409ZM-45.0097 792.826L-52.5512 785.487L-58.1307 791.22L-50.5892 798.559L-45.0097 792.826Z"
       fill="#7700D1"
       mask="url(#path-67-inside-4_2_581)"
       id="path452" />
    <rect
       x="-1.75432"
       y="1.75432"
       width="3.50863"
       height="10.4914"
       transform="matrix(-1 0 0 1 39.6259 720.693)"
       fill="white"
       stroke="white"
       stroke-width="3.50863"
       id="rect454" />
    <path
       fill-rule="evenodd"
       clip-rule="evenodd"
       d="M36.1172 724.455H53.6472C70.8785 724.455 84.8472 738.424 84.8472 755.655V765.358H91.6472V755.655C91.6472 734.668 74.634 717.655 53.6472 717.655H34.3755C32.9022 717.655 31.4485 717.739 30.0189 717.902H36.1172V724.455Z"
       fill="white"
       id="path456" />
    <path
       fill-rule="evenodd"
       clip-rule="evenodd"
       d="M84.8121 853.237L84.8121 870.767C84.8121 887.998 70.8434 901.967 53.6121 901.967L45.8726 901.967L45.8726 908.767L53.6121 908.767C74.5989 908.767 91.6121 891.754 91.6121 870.767L91.6121 851.495C91.6121 850.053 91.5317 848.629 91.3752 847.229L91.3752 853.237L84.8121 853.237Z"
       fill="white"
       id="path458" />
  </g>
  <g
     opacity="0.2"
     id="g466">
    <path
       d="M299.988 592.999C299.191 592.999 298.534 592.343 298.534 591.545V580.453C298.534 579.656 299.191 578.999 299.988 578.999C300.785 578.999 301.442 579.656 301.442 580.453V591.545C301.442 592.343 300.785 592.999 299.988 592.999Z"
       fill="white"
       id="path462" />
    <path
       d="M305.546 586.714H294.454C293.656 586.714 293 586.222 293 585.636C293 585.049 293.656 584.557 294.454 584.557H305.546C306.343 584.557 307 585.049 307 585.636C307 586.222 306.343 586.714 305.546 586.714Z"
       fill="white"
       id="path464" />
  </g>
  <g
     opacity="0.2"
     id="g472">
    <path
       d="M1617 416C1616.45 416 1616 415.343 1616 414.546V403.453C1616 402.656 1616.45 402 1617 402C1617.55 402 1618 402.656 1618 403.453V414.546C1618 415.343 1617.55 416 1617 416Z"
       fill="white"
       id="path468" />
    <path
       d="M1622.55 409.715H1611.45C1610.66 409.715 1610 409.222 1610 408.636C1610 408.05 1610.66 407.557 1611.45 407.557H1622.55C1623.34 407.557 1624 408.05 1624 408.636C1624 409.222 1623.34 409.715 1622.55 409.715Z"
       fill="white"
       id="path470" />
  </g>
  <g
     opacity="0.05"
     clip-path="url(#clip3_2_581)"
     id="g490">
    <path
       d="M2033.15 594.622H1763.25L1759.28 598.603V629.571L1763.25 633.553H1775.55V715.218C1775.55 717.438 1777.34 719.2 1779.52 719.2C1781.7 719.2 1783.49 717.403 1783.49 715.218V679.247H2012.8V926.57C2012.8 928.79 2014.59 930.551 2016.77 930.551C2018.95 930.551 2020.74 928.754 2020.74 926.57V633.588H2033.04L2037.01 629.607V598.639L2033.15 594.622ZM1783.53 671.285V656.418H2012.84V671.285H1783.53ZM2012.84 648.42H1783.53V633.588H2012.84V648.42ZM2029.14 625.59H2016.84H1779.56H1767.26V602.62H2029.17V625.59H2029.14Z"
       fill="white"
       id="path474" />
    <path
       fill-rule="evenodd"
       clip-rule="evenodd"
       d="M1662.26 477V507.848L1666.23 511.829H2080.12L2084.09 507.848V423.821L2080.12 419.84H1720.66V427.802H2076.15V503.867H1670.23V477H1662.26Z"
       fill="white"
       id="path476" />
    <path
       d="M2427.21 461.836H2253.63C2251.42 461.836 2249.66 463.632 2249.66 465.817C2249.66 468.036 2251.46 469.798 2253.63 469.798H2423.24V530.466H2403.92H1689.46H1670.14V469.833H1839.75C1841.96 469.833 1843.72 468.036 1843.72 465.852C1843.72 463.632 1841.93 461.871 1839.75 461.871H1666.17L1662.2 465.852V534.518L1666.17 538.499H1685.49V714.725C1685.49 716.944 1687.28 718.706 1689.46 718.706C1691.64 718.706 1693.43 716.909 1693.43 714.725V538.499H2399.91V922.589H1689.43C1687.21 922.589 1685.46 924.385 1685.46 926.57C1685.46 928.754 1687.25 930.551 1689.43 930.551H2403.88L2407.85 926.57V538.499H2427.18L2431.15 534.518V465.817L2427.21 461.836Z"
       fill="white"
       id="path478" />
    <rect
       width="770.013"
       height="54.81"
       transform="matrix(-1 0 0 1 2432.21 449.047)"
       fill="#7700D1"
       id="rect480" />
    <rect
       width="554.262"
       height="53.1196"
       transform="matrix(-1 0 0 1 2274.92 427.681)"
       fill="#7700D1"
       id="rect482" />
    <rect
       width="38.9119"
       height="31.4622"
       transform="matrix(-1 0 0 1 1685.17 466.389)"
       fill="#7700D1"
       id="rect484" />
    <rect
       width="38.9119"
       height="10.5687"
       transform="matrix(-1 0 0 1 1685.17 451.402)"
       fill="#7700D1"
       id="rect486" />
    <path
       fill-rule="evenodd"
       clip-rule="evenodd"
       d="M1726.55 427.902V419.889C1725.91 419.857 1725.26 419.84 1724.61 419.84H1700.26C1679.27 419.84 1662.26 436.853 1662.26 457.84V503.857H1670.26V457.84C1670.26 441.272 1683.69 427.84 1700.26 427.84H1724.61C1725.26 427.84 1725.91 427.861 1726.55 427.902Z"
       fill="white"
       id="path488" />
  </g>
  <g
     clip-path="url(#clip4_2_581)"
     id="g518">
    <mask
       id="path-84-inside-5_2_581"
       fill="white">
      <path
         fill-rule="evenodd"
         clip-rule="evenodd"
         d="M1642.38 713.693H1826.43L1833.69 720.959V905.192L1830.54 908.346V872.169H1819.11V758.192H1825.91V717.902H1780.42V728.29H1683.57V717.902H1639.13V758.192H1649.64V872.169H1639.13V909.208L1635.12 905.192V720.959L1642.38 713.693ZM1670.78 912.459H1798.89V897.926H1670.78V912.459Z"
         id="path492" />
    </mask>
    <path
       fill-rule="evenodd"
       clip-rule="evenodd"
       d="M1642.38 713.693H1826.43L1833.69 720.959V905.192L1830.54 908.346V872.169H1819.11V758.192H1825.91V717.902H1780.42V728.29H1683.57V717.902H1639.13V758.192H1649.64V872.169H1639.13V909.208L1635.12 905.192V720.959L1642.38 713.693ZM1670.78 912.459H1798.89V897.926H1670.78V912.459Z"
       fill="white"
       id="path495" />
    <path
       d="M1826.43 713.693V709.693H1828.09L1829.26 710.866L1826.43 713.693ZM1642.38 713.693L1639.55 710.866L1640.72 709.693H1642.38V713.693ZM1833.69 720.959L1836.52 718.132L1837.69 719.304V720.959H1833.69ZM1833.69 905.192H1837.69V906.848L1836.52 908.019L1833.69 905.192ZM1830.54 908.346L1833.37 911.173L1826.54 918.01V908.346H1830.54ZM1830.54 872.169V868.169H1834.54V872.169H1830.54ZM1819.11 872.169V876.169H1815.11V872.169H1819.11ZM1819.11 758.192H1815.11V754.192H1819.11V758.192ZM1825.91 758.192H1829.91V762.192H1825.91V758.192ZM1825.91 717.902V713.902H1829.91V717.902H1825.91ZM1780.42 717.902H1776.42V713.902H1780.42V717.902ZM1780.42 728.29H1784.42V732.29H1780.42V728.29ZM1683.57 728.29V732.29H1679.57V728.29H1683.57ZM1683.57 717.902V713.902H1687.57V717.902H1683.57ZM1639.13 717.902H1635.13V713.902H1639.13V717.902ZM1639.13 758.192V762.192H1635.13V758.192H1639.13ZM1649.64 758.192V754.192H1653.64V758.192H1649.64ZM1649.64 872.169H1653.64V876.169H1649.64V872.169ZM1639.13 872.169H1635.13V868.169H1639.13V872.169ZM1639.13 909.208H1643.13V918.872L1636.3 912.035L1639.13 909.208ZM1635.12 905.192L1632.29 908.019L1631.12 906.848V905.192H1635.12ZM1635.12 720.959H1631.12V719.304L1632.29 718.132L1635.12 720.959ZM1798.89 912.459H1802.89V916.459H1798.89V912.459ZM1670.78 912.459V916.459H1666.78V912.459H1670.78ZM1798.89 897.926V893.926H1802.89V897.926H1798.89ZM1670.78 897.926H1666.78V893.926H1670.78V897.926ZM1826.43 717.693H1642.38V709.693H1826.43V717.693ZM1830.86 723.786L1823.6 716.52L1829.26 710.866L1836.52 718.132L1830.86 723.786ZM1829.69 905.192V720.959H1837.69V905.192H1829.69ZM1827.71 905.519L1830.86 902.365L1836.52 908.019L1833.37 911.173L1827.71 905.519ZM1834.54 872.169V908.346H1826.54V872.169H1834.54ZM1819.11 868.169H1830.54V876.169H1819.11V868.169ZM1823.11 758.192V872.169H1815.11V758.192H1823.11ZM1819.11 754.192H1825.91V762.192H1819.11V754.192ZM1821.91 758.192V717.902H1829.91V758.192H1821.91ZM1825.91 721.902H1780.42V713.902H1825.91V721.902ZM1784.42 717.902V728.29H1776.42V717.902H1784.42ZM1683.57 724.29H1780.42V732.29H1683.57V724.29ZM1687.57 717.902V728.29H1679.57V717.902H1687.57ZM1639.13 713.902H1683.57V721.902H1639.13V713.902ZM1635.13 758.192V717.902H1643.13V758.192H1635.13ZM1649.64 762.192H1639.13V754.192H1649.64V762.192ZM1645.64 872.169V758.192H1653.64V872.169H1645.64ZM1639.13 868.169H1649.64V876.169H1639.13V868.169ZM1635.13 909.208V872.169H1643.13V909.208H1635.13ZM1637.95 902.365L1641.96 906.381L1636.3 912.035L1632.29 908.019L1637.95 902.365ZM1639.12 720.959V905.192H1631.12V720.959H1639.12ZM1645.21 716.52L1637.95 723.786L1632.29 718.132L1639.55 710.866L1645.21 716.52ZM1798.89 916.459H1670.78V908.459H1798.89V916.459ZM1802.89 897.926V912.459H1794.89V897.926H1802.89ZM1670.78 893.926H1798.89V901.926H1670.78V893.926ZM1666.78 912.459V897.926H1674.78V912.459H1666.78Z"
       fill="#7700D1"
       mask="url(#path-84-inside-5_2_581)"
       id="path497" />
    <mask
       id="path-86-inside-6_2_581"
       fill="white">
      <path
         fill-rule="evenodd"
         clip-rule="evenodd"
         d="M1778.58 795.693H1750.01H1719.68H1691.11L1683.57 788.354V731.032C1683.57 726.983 1686.95 723.693 1691.11 723.693C1695.27 723.693 1698.65 726.983 1698.65 731.032V780.888H1719.68H1750.01H1771.04V731.032C1771.04 726.983 1774.42 723.693 1778.58 723.693C1782.74 723.693 1786.12 726.983 1786.12 731.032V788.354L1778.58 795.693Z"
         id="path499" />
    </mask>
    <path
       fill-rule="evenodd"
       clip-rule="evenodd"
       d="M1778.58 795.693H1750.01H1719.68H1691.11L1683.57 788.354V731.032C1683.57 726.983 1686.95 723.693 1691.11 723.693C1695.27 723.693 1698.65 726.983 1698.65 731.032V780.888H1719.68H1750.01H1771.04V731.032C1771.04 726.983 1774.42 723.693 1778.58 723.693C1782.74 723.693 1786.12 726.983 1786.12 731.032V788.354L1778.58 795.693Z"
       fill="white"
       id="path502" />
    <path
       d="M1778.58 795.693L1781.37 798.559L1780.2 799.693H1778.58V795.693ZM1691.11 795.693V799.693H1689.49L1688.32 798.559L1691.11 795.693ZM1683.57 788.354L1680.78 791.22L1679.57 790.042V788.354H1683.57ZM1698.65 780.888V784.888H1694.65V780.888H1698.65ZM1771.04 780.888H1775.04V784.888H1771.04V780.888ZM1786.12 788.354H1790.12V790.042L1788.91 791.22L1786.12 788.354ZM1750.01 791.693H1778.58V799.693H1750.01V791.693ZM1750.01 799.693H1719.68V791.693H1750.01V799.693ZM1719.68 799.693H1691.11V791.693H1719.68V799.693ZM1688.32 798.559L1680.78 791.22L1686.36 785.487L1693.9 792.826L1688.32 798.559ZM1679.57 788.354V731.032H1687.57V788.354H1679.57ZM1679.57 731.032C1679.57 724.672 1684.84 719.693 1691.11 719.693V727.693C1689.06 727.693 1687.57 729.294 1687.57 731.032H1679.57ZM1691.11 719.693C1697.38 719.693 1702.65 724.672 1702.65 731.032H1694.65C1694.65 729.294 1693.17 727.693 1691.11 727.693V719.693ZM1702.65 731.032V780.888H1694.65V731.032H1702.65ZM1698.65 776.888H1719.68V784.888H1698.65V776.888ZM1719.68 776.888H1750.01V784.888H1719.68V776.888ZM1771.04 784.888H1750.01V776.888H1771.04V784.888ZM1775.04 731.032V780.888H1767.04V731.032H1775.04ZM1778.58 727.693C1776.52 727.693 1775.04 729.294 1775.04 731.032H1767.04C1767.04 724.672 1772.31 719.693 1778.58 719.693V727.693ZM1782.12 731.032C1782.12 729.294 1780.63 727.693 1778.58 727.693V719.693C1784.85 719.693 1790.12 724.672 1790.12 731.032H1782.12ZM1782.12 788.354V731.032H1790.12V788.354H1782.12ZM1775.79 792.826L1783.33 785.487L1788.91 791.22L1781.37 798.559L1775.79 792.826Z"
       fill="#7700D1"
       mask="url(#path-86-inside-6_2_581)"
       id="path504" />
    <rect
       x="1689.4"
       y="722.447"
       width="3.50863"
       height="10.4914"
       fill="white"
       stroke="white"
       stroke-width="3.50863"
       id="rect506" />
    <rect
       x="1776.82"
       y="722.481"
       width="3.57709"
       height="10.4229"
       fill="white"
       stroke="white"
       stroke-width="3.57709"
       id="rect508" />
    <path
       fill-rule="evenodd"
       clip-rule="evenodd"
       d="M1694.66 724.455H1677.13C1659.9 724.455 1645.93 738.423 1645.93 755.655V765.358H1639.13V755.655C1639.13 734.668 1656.15 717.655 1677.13 717.655H1696.4C1697.88 717.655 1699.33 717.738 1700.76 717.902H1694.66V724.455Z"
       fill="white"
       id="path510" />
    <path
       fill-rule="evenodd"
       clip-rule="evenodd"
       d="M1645.97 853.237L1645.97 870.767C1645.97 887.998 1659.94 901.967 1677.17 901.967L1684.91 901.967L1684.91 908.767L1677.17 908.767C1656.18 908.767 1639.17 891.754 1639.17 870.767L1639.17 851.495C1639.17 850.053 1639.25 848.629 1639.4 847.229L1639.4 853.237L1645.97 853.237Z"
       fill="white"
       id="path512" />
    <path
       fill-rule="evenodd"
       clip-rule="evenodd"
       d="M1822.91 853.237L1822.91 870.767C1822.91 887.998 1808.94 901.967 1791.71 901.967L1783.97 901.967L1783.97 908.767L1791.71 908.767C1812.7 908.767 1829.71 891.754 1829.71 870.767L1829.71 851.495C1829.71 850.053 1829.63 848.629 1829.47 847.229L1829.47 853.237L1822.91 853.237Z"
       fill="white"
       id="path514" />
    <path
       fill-rule="evenodd"
       clip-rule="evenodd"
       d="M1774.18 724.455H1791.71C1808.94 724.455 1822.91 738.423 1822.91 755.655V765.358H1829.71V755.655C1829.71 734.668 1812.7 717.655 1791.71 717.655H1772.44C1770.96 717.655 1769.51 717.738 1768.08 717.902H1774.18V724.455Z"
       fill="white"
       id="path516" />
  </g>
  <g
     clip-path="url(#clip5_2_581)"
     id="g540">
    <mask
       id="path-94-inside-7_2_581"
       fill="white">
      <path
         fill-rule="evenodd"
         clip-rule="evenodd"
         d="M1826.16 713.693H2010.21L2017.47 720.959V905.192L2014.32 908.346V872.169H2002.89V758.192H2009.7V717.902H1964.2V728.29H1867.35V717.902H1822.92V758.192H1833.42V872.169H1822.92V909.208L1818.9 905.192V720.959L1826.16 713.693ZM1854.56 912.459H1982.68V897.926H1854.56V912.459Z"
         id="path520" />
    </mask>
    <path
       fill-rule="evenodd"
       clip-rule="evenodd"
       d="M1826.16 713.693H2010.21L2017.47 720.959V905.192L2014.32 908.346V872.169H2002.89V758.192H2009.7V717.902H1964.2V728.29H1867.35V717.902H1822.92V758.192H1833.42V872.169H1822.92V909.208L1818.9 905.192V720.959L1826.16 713.693ZM1854.56 912.459H1982.68V897.926H1854.56V912.459Z"
       fill="white"
       id="path523" />
    <path
       d="M2010.21 713.693V709.693H2011.87L2013.04 710.866L2010.21 713.693ZM1826.16 713.693L1823.33 710.866L1824.51 709.693H1826.16V713.693ZM2017.47 720.959L2020.3 718.132L2021.47 719.304V720.959H2017.47ZM2017.47 905.192H2021.47V906.848L2020.3 908.019L2017.47 905.192ZM2014.32 908.346L2017.15 911.173L2010.32 918.01V908.346H2014.32ZM2014.32 872.169V868.169H2018.32V872.169H2014.32ZM2002.89 872.169V876.169H1998.89V872.169H2002.89ZM2002.89 758.192H1998.89V754.192H2002.89V758.192ZM2009.7 758.192H2013.7V762.192H2009.7V758.192ZM2009.7 717.902V713.902H2013.7V717.902H2009.7ZM1964.2 717.902H1960.2V713.902H1964.2V717.902ZM1964.2 728.29H1968.2V732.29H1964.2V728.29ZM1867.35 728.29V732.29H1863.35V728.29H1867.35ZM1867.35 717.902V713.902H1871.35V717.902H1867.35ZM1822.92 717.902H1818.92V713.902H1822.92V717.902ZM1822.92 758.192V762.192H1818.92V758.192H1822.92ZM1833.42 758.192V754.192H1837.42V758.192H1833.42ZM1833.42 872.169H1837.42V876.169H1833.42V872.169ZM1822.92 872.169H1818.92V868.169H1822.92V872.169ZM1822.92 909.208H1826.92V918.872L1820.09 912.035L1822.92 909.208ZM1818.9 905.192L1816.07 908.019L1814.9 906.848V905.192H1818.9ZM1818.9 720.959H1814.9V719.304L1816.07 718.132L1818.9 720.959ZM1982.68 912.459H1986.68V916.459H1982.68V912.459ZM1854.56 912.459V916.459H1850.56V912.459H1854.56ZM1982.68 897.926V893.926H1986.68V897.926H1982.68ZM1854.56 897.926H1850.56V893.926H1854.56V897.926ZM2010.21 717.693H1826.16V709.693H2010.21V717.693ZM2014.64 723.786L2007.38 716.52L2013.04 710.866L2020.3 718.132L2014.64 723.786ZM2013.47 905.192V720.959H2021.47V905.192H2013.47ZM2011.49 905.519L2014.64 902.365L2020.3 908.019L2017.15 911.173L2011.49 905.519ZM2018.32 872.169V908.346H2010.32V872.169H2018.32ZM2002.89 868.169H2014.32V876.169H2002.89V868.169ZM2006.89 758.192V872.169H1998.89V758.192H2006.89ZM2002.89 754.192H2009.7V762.192H2002.89V754.192ZM2005.7 758.192V717.902H2013.7V758.192H2005.7ZM2009.7 721.902H1964.2V713.902H2009.7V721.902ZM1968.2 717.902V728.29H1960.2V717.902H1968.2ZM1867.35 724.29H1964.2V732.29H1867.35V724.29ZM1871.35 717.902V728.29H1863.35V717.902H1871.35ZM1822.92 713.902H1867.35V721.902H1822.92V713.902ZM1818.92 758.192V717.902H1826.92V758.192H1818.92ZM1833.42 762.192H1822.92V754.192H1833.42V762.192ZM1829.42 872.169V758.192H1837.42V872.169H1829.42ZM1822.92 868.169H1833.42V876.169H1822.92V868.169ZM1818.92 909.208V872.169H1826.92V909.208H1818.92ZM1821.73 902.365L1825.75 906.381L1820.09 912.035L1816.07 908.019L1821.73 902.365ZM1822.9 720.959V905.192H1814.9V720.959H1822.9ZM1828.99 716.52L1821.73 723.786L1816.07 718.132L1823.33 710.866L1828.99 716.52ZM1982.68 916.459H1854.56V908.459H1982.68V916.459ZM1986.68 897.926V912.459H1978.68V897.926H1986.68ZM1854.56 893.926H1982.68V901.926H1854.56V893.926ZM1850.56 912.459V897.926H1858.56V912.459H1850.56Z"
       fill="#7700D1"
       mask="url(#path-94-inside-7_2_581)"
       id="path525" />
    <mask
       id="path-96-inside-8_2_581"
       fill="white">
      <path
         fill-rule="evenodd"
         clip-rule="evenodd"
         d="M1962.36 795.693H1933.8H1903.46H1874.9L1867.35 788.354V731.032C1867.35 726.983 1870.73 723.693 1874.9 723.693C1879.06 723.693 1882.44 726.983 1882.44 731.032V780.888H1903.46H1933.8H1954.82V731.032C1954.82 726.983 1958.2 723.693 1962.36 723.693C1966.52 723.693 1969.9 726.983 1969.9 731.032V788.354L1962.36 795.693Z"
         id="path527" />
    </mask>
    <path
       fill-rule="evenodd"
       clip-rule="evenodd"
       d="M1962.36 795.693H1933.8H1903.46H1874.9L1867.35 788.354V731.032C1867.35 726.983 1870.73 723.693 1874.9 723.693C1879.06 723.693 1882.44 726.983 1882.44 731.032V780.888H1903.46H1933.8H1954.82V731.032C1954.82 726.983 1958.2 723.693 1962.36 723.693C1966.52 723.693 1969.9 726.983 1969.9 731.032V788.354L1962.36 795.693Z"
       fill="white"
       id="path530" />
    <path
       d="M1962.36 795.693L1965.15 798.559L1963.99 799.693H1962.36V795.693ZM1874.9 795.693V799.693H1873.27L1872.11 798.559L1874.9 795.693ZM1867.35 788.354L1864.56 791.22L1863.35 790.042V788.354H1867.35ZM1882.44 780.888V784.888H1878.44V780.888H1882.44ZM1954.82 780.888H1958.82V784.888H1954.82V780.888ZM1969.9 788.354H1973.9V790.042L1972.69 791.22L1969.9 788.354ZM1933.8 791.693H1962.36V799.693H1933.8V791.693ZM1933.8 799.693H1903.46V791.693H1933.8V799.693ZM1903.46 799.693H1874.9V791.693H1903.46V799.693ZM1872.11 798.559L1864.56 791.22L1870.14 785.487L1877.68 792.826L1872.11 798.559ZM1863.35 788.354V731.032H1871.35V788.354H1863.35ZM1863.35 731.032C1863.35 724.672 1868.63 719.693 1874.9 719.693V727.693C1872.84 727.693 1871.35 729.294 1871.35 731.032H1863.35ZM1874.9 719.693C1881.16 719.693 1886.44 724.672 1886.44 731.032H1878.44C1878.44 729.294 1876.95 727.693 1874.9 727.693V719.693ZM1886.44 731.032V780.888H1878.44V731.032H1886.44ZM1882.44 776.888H1903.46V784.888H1882.44V776.888ZM1903.46 776.888H1933.8V784.888H1903.46V776.888ZM1954.82 784.888H1933.8V776.888H1954.82V784.888ZM1958.82 731.032V780.888H1950.82V731.032H1958.82ZM1962.36 727.693C1960.31 727.693 1958.82 729.294 1958.82 731.032H1950.82C1950.82 724.672 1956.1 719.693 1962.36 719.693V727.693ZM1965.9 731.032C1965.9 729.294 1964.42 727.693 1962.36 727.693V719.693C1968.63 719.693 1973.9 724.672 1973.9 731.032H1965.9ZM1965.9 788.354V731.032H1973.9V788.354H1965.9ZM1959.57 792.826L1967.12 785.487L1972.69 791.22L1965.15 798.559L1959.57 792.826Z"
       fill="#7700D1"
       mask="url(#path-96-inside-8_2_581)"
       id="path532" />
    <rect
       x="1873.18"
       y="722.447"
       width="3.50863"
       height="10.4914"
       fill="white"
       stroke="white"
       stroke-width="3.50863"
       id="rect534" />
    <path
       fill-rule="evenodd"
       clip-rule="evenodd"
       d="M1878.45 724.455H1860.92C1843.69 724.455 1829.72 738.423 1829.72 755.655V765.358H1822.92V755.655C1822.92 734.668 1839.93 717.655 1860.92 717.655H1880.19C1881.66 717.655 1883.12 717.738 1884.55 717.902H1878.45V724.455Z"
       fill="white"
       id="path536" />
    <path
       fill-rule="evenodd"
       clip-rule="evenodd"
       d="M1829.75 853.237L1829.75 870.767C1829.75 887.998 1843.72 901.967 1860.95 901.967L1868.69 901.967L1868.69 908.767L1860.95 908.767C1839.97 908.767 1822.95 891.754 1822.95 870.767L1822.95 851.495C1822.95 850.053 1823.03 848.629 1823.19 847.229L1823.19 853.237L1829.75 853.237Z"
       fill="white"
       id="path538" />
  </g>
  <defs
     id="defs560">
    <clipPath
       id="clip0_2_581">
      <rect
         width="955"
         height="500"
         fill="white"
         transform="matrix(-1 0 0 1 380 408)"
         id="rect542" />
    </clipPath>
    <clipPath
       id="clip1_2_581">
      <rect
         width="190"
         height="190"
         fill="white"
         transform="translate(85.2838 718.004)"
         id="rect545" />
    </clipPath>
    <clipPath
       id="clip2_2_581">
      <rect
         width="190"
         height="190"
         fill="white"
         transform="translate(-98.5 718.004)"
         id="rect548" />
    </clipPath>
    <clipPath
       id="clip3_2_581">
      <rect
         width="955"
         height="500"
         fill="white"
         transform="translate(1534.56 408)"
         id="rect551" />
    </clipPath>
    <clipPath
       id="clip4_2_581">
      <rect
         width="190"
         height="190"
         fill="white"
         transform="matrix(-1 0 0 1 1829.28 718.004)"
         id="rect554" />
    </clipPath>
    <clipPath
       id="clip5_2_581">
      <rect
         width="190"
         height="190"
         fill="white"
         transform="matrix(-1 0 0 1 2013.06 718.004)"
         id="rect557" />
    </clipPath>
  </defs>
</svg>
