<svg width="1920" height="3230" viewBox="0 0 1920 3230" fill="none" xmlns="http://www.w3.org/2000/svg">
<g opacity="0.2">
<path d="M1108.76 1396.47C1108.22 1396.47 1107.76 1395.81 1107.76 1395.01V1383.92C1107.76 1383.12 1108.22 1382.47 1108.76 1382.47C1109.31 1382.47 1109.76 1383.12 1109.76 1383.92V1395.01C1109.76 1395.81 1109.31 1396.47 1108.76 1396.47Z" fill="white"/>
<path d="M1114.31 1390.18H1103.22C1102.42 1390.18 1101.77 1389.69 1101.77 1389.1C1101.77 1388.52 1102.42 1388.03 1103.22 1388.03H1114.31C1115.11 1388.03 1115.77 1388.52 1115.77 1389.1C1115.77 1389.69 1115.11 1390.18 1114.31 1390.18Z" fill="white"/>
</g>
<g opacity="0.2">
<path d="M960.278 1791.44C959.73 1791.44 959.278 1790.78 959.278 1789.99V1778.89C959.278 1778.1 959.73 1777.44 960.278 1777.44C960.827 1777.44 961.278 1778.1 961.278 1778.89V1789.99C961.278 1790.78 960.827 1791.44 960.278 1791.44Z" fill="white"/>
<path d="M965.825 1785.16H954.733C953.936 1785.16 953.279 1784.66 953.279 1784.08C953.279 1783.49 953.936 1783 954.733 1783H965.825C966.623 1783 967.279 1783.49 967.279 1784.08C967.279 1784.66 966.623 1785.16 965.825 1785.16Z" fill="white"/>
</g>
<g opacity="0.3">
<path d="M959.999 3229.66C959.45 3229.66 958.999 3229.01 958.999 3228.21V3217.12C958.999 3216.32 959.45 3215.66 959.999 3215.66C960.547 3215.66 960.999 3216.32 960.999 3217.12V3228.21C960.999 3229.01 960.547 3229.66 959.999 3229.66Z" fill="#4C1D6F"/>
<path d="M965.545 3223.38H954.453C953.656 3223.38 952.999 3222.88 952.999 3222.3C952.999 3221.71 953.656 3221.22 954.453 3221.22H965.545C966.343 3221.22 966.999 3221.71 966.999 3222.3C966.999 3222.88 966.343 3223.38 965.545 3223.38Z" fill="#4C1D6F"/>
</g>
<g opacity="0.2">
<path d="M666.765 1475.72C666.217 1475.72 665.765 1475.07 665.765 1474.27V1463.18C665.765 1462.38 666.217 1461.72 666.765 1461.72C667.314 1461.72 667.765 1462.38 667.765 1463.18V1474.27C667.765 1475.07 667.314 1475.72 666.765 1475.72Z" fill="white"/>
<path d="M672.312 1469.44H661.22C660.423 1469.44 659.766 1468.95 659.766 1468.36C659.766 1467.77 660.423 1467.28 661.22 1467.28H672.312C673.109 1467.28 673.766 1467.77 673.766 1468.36C673.766 1468.95 673.109 1469.44 672.312 1469.44Z" fill="white"/>
</g>
<g opacity="0.2">
<path d="M1623.4 31.8224H1667.07C1668.31 31.8224 1669.3 30.8138 1669.3 29.5875C1669.3 28.3415 1668.29 27.3527 1667.07 27.3527H1623.4C1622.16 27.3527 1621.17 28.3613 1621.17 29.5875C1621.17 30.8138 1622.18 31.8224 1623.4 31.8224Z" fill="white"/>
<path d="M1642.16 40.9994H1690.44C1698.74 40.9994 1705.48 34.2552 1705.48 25.9485C1705.48 17.6418 1698.74 10.8976 1690.44 10.8976C1688.43 10.8976 1686.45 11.2932 1684.63 12.0645C1683.63 9.19674 1681.87 6.60586 1679.52 4.6083C1676.36 1.89874 1672.33 0.39563 1668.16 0.39563C1662.29 0.39563 1656.87 3.38207 1653.65 8.10896C1651.86 6.1114 1648.83 4.05451 1644.03 4.05451C1636.82 4.05451 1630.97 9.92852 1630.97 17.1276C1630.97 18.3736 1631.98 19.3625 1633.2 19.3625C1634.45 19.3625 1635.44 18.3539 1635.44 17.1276C1635.44 12.381 1639.29 8.54407 1644.01 8.54407C1649.94 8.54407 1651.66 13.1325 1651.72 13.3303V13.3105L1655.95 13.3699C1657.82 8.28696 1662.72 4.88518 1668.16 4.88518C1674.54 4.88518 1679.93 9.47363 1680.98 15.7827L1684.46 17.2661C1686.24 16.0399 1688.29 15.3872 1690.44 15.3872C1696.27 15.3872 1700.99 20.1338 1700.99 25.9485C1700.99 31.783 1696.25 36.5099 1690.44 36.5099H1642.16C1640.91 36.5099 1639.92 37.5185 1639.92 38.7447C1639.9 39.9907 1640.91 40.9994 1642.16 40.9994Z" fill="white"/>
</g>
<g opacity="0.2">
<path d="M532.61 1349.96H576.275C577.52 1349.96 578.508 1348.95 578.508 1347.73C578.508 1346.48 577.5 1345.49 576.275 1345.49H532.61C531.365 1345.49 530.377 1346.5 530.377 1347.73C530.377 1348.95 531.385 1349.96 532.61 1349.96Z" fill="white"/>
<path d="M551.361 1359.14H599.65C607.948 1359.14 614.686 1352.4 614.686 1344.09C614.686 1335.78 607.948 1329.04 599.65 1329.04C597.634 1329.04 595.659 1329.43 593.841 1330.21C592.833 1327.34 591.075 1324.75 588.724 1322.75C585.562 1320.04 581.532 1318.54 577.363 1318.54C571.495 1318.54 566.081 1321.52 562.86 1326.25C561.062 1324.25 558.039 1322.2 553.238 1322.2C546.026 1322.2 540.178 1328.07 540.178 1335.27C540.178 1336.51 541.186 1337.5 542.411 1337.5C543.655 1337.5 544.643 1336.49 544.643 1335.27C544.643 1330.52 548.496 1326.68 553.218 1326.68C559.146 1326.68 560.865 1331.27 560.924 1331.47V1331.45L565.152 1331.51C567.029 1326.43 571.929 1323.03 577.363 1323.03C583.745 1323.03 589.138 1327.61 590.186 1333.92L593.663 1335.41C595.441 1334.18 597.496 1333.53 599.65 1333.53C605.478 1333.53 610.201 1338.27 610.201 1344.09C610.201 1349.92 605.459 1354.65 599.65 1354.65H551.361C550.116 1354.65 549.128 1355.66 549.128 1356.89C549.109 1358.13 550.116 1359.14 551.361 1359.14Z" fill="white"/>
</g>
<g opacity="0.2">
<path d="M185.188 115.431H233.457C241.756 115.431 248.493 108.686 248.493 100.38C248.493 92.073 241.756 85.3288 233.457 85.3288C231.442 85.3288 229.466 85.7243 227.648 86.4957C226.641 83.6279 224.882 81.037 222.531 79.0394C219.37 76.3299 215.339 74.8268 211.17 74.8268C201.528 74.8268 193.684 82.6786 193.684 92.3301C193.684 93.5761 194.692 94.565 195.917 94.565C197.142 94.565 198.15 93.5563 198.15 92.3301C198.15 85.1508 203.978 79.3163 211.15 79.3163C217.532 79.3163 222.926 83.9048 223.973 90.2139L227.451 91.6972C229.229 90.471 231.284 89.8183 233.437 89.8183C239.266 89.8183 243.988 94.565 243.988 100.38C243.988 106.214 239.246 110.941 233.437 110.941H185.149C183.904 110.941 182.916 111.95 182.916 113.176C182.916 114.402 183.943 115.431 185.188 115.431Z" fill="white"/>
<path d="M171.398 106.254H215.063C216.308 106.254 217.296 105.245 217.296 104.019C217.296 102.773 216.288 101.784 215.063 101.784H171.398C170.153 101.784 169.165 102.792 169.165 104.019C169.165 105.265 170.173 106.254 171.398 106.254Z" fill="white"/>
</g>
<g opacity="0.2">
<path d="M1186.16 1501.94H1234.43C1242.73 1501.94 1249.46 1495.2 1249.46 1486.89C1249.46 1478.58 1242.73 1471.84 1234.43 1471.84C1232.41 1471.84 1230.44 1472.24 1228.62 1473.01C1227.61 1470.14 1225.85 1467.55 1223.5 1465.55C1220.34 1462.84 1216.31 1461.34 1212.14 1461.34C1202.5 1461.34 1194.66 1469.19 1194.66 1478.84C1194.66 1480.09 1195.66 1481.08 1196.89 1481.08C1198.11 1481.08 1199.12 1480.07 1199.12 1478.84C1199.12 1471.66 1204.95 1465.83 1212.12 1465.83C1218.5 1465.83 1223.9 1470.42 1224.94 1476.73L1228.42 1478.21C1230.2 1476.98 1232.25 1476.33 1234.41 1476.33C1240.24 1476.33 1244.96 1481.08 1244.96 1486.89C1244.96 1492.73 1240.22 1497.45 1234.41 1497.45H1186.12C1184.87 1497.45 1183.89 1498.46 1183.89 1499.69C1183.89 1500.91 1184.91 1501.94 1186.16 1501.94Z" fill="white"/>
<path d="M1172.37 1492.76H1216.03C1217.28 1492.76 1218.27 1491.76 1218.27 1490.53C1218.27 1489.28 1217.26 1488.29 1216.03 1488.29H1172.37C1171.12 1488.29 1170.14 1489.3 1170.14 1490.53C1170.14 1491.78 1171.14 1492.76 1172.37 1492.76Z" fill="white"/>
</g>
<g opacity="0.2">
<path d="M281.997 2752.43H330.265C338.564 2752.43 345.301 2745.69 345.301 2737.38C345.301 2729.07 338.564 2722.33 330.265 2722.33C328.25 2722.33 326.274 2722.73 324.457 2723.5C323.449 2720.63 321.69 2718.04 319.339 2716.04C316.178 2713.33 312.147 2711.83 307.978 2711.83C298.336 2711.83 290.492 2719.68 290.492 2729.33C290.492 2730.58 291.5 2731.57 292.725 2731.57C293.95 2731.57 294.958 2730.56 294.958 2729.33C294.958 2722.15 300.786 2716.32 307.959 2716.32C314.34 2716.32 319.734 2720.91 320.782 2727.22L324.259 2728.7C326.037 2727.47 328.092 2726.82 330.246 2726.82C336.074 2726.82 340.797 2731.57 340.797 2737.38C340.797 2743.22 336.055 2747.94 330.246 2747.94H281.957C280.712 2747.94 279.724 2748.95 279.724 2750.18C279.724 2751.4 280.752 2752.43 281.997 2752.43Z" fill="white"/>
<path d="M268.206 2743.26H311.871C313.116 2743.26 314.104 2742.25 314.104 2741.02C314.104 2739.77 313.096 2738.79 311.871 2738.79H268.206C266.961 2738.79 265.973 2739.79 265.973 2741.02C265.973 2742.27 266.981 2743.26 268.206 2743.26Z" fill="white"/>
</g>
<g opacity="0.05" clip-path="url(#clip0_1601_2)">
<path d="M-118.581 367.622H151.311L155.282 371.603V402.572L151.311 406.553H139.013V488.219C139.013 490.438 137.221 492.2 135.043 492.2C132.864 492.2 131.072 490.403 131.072 488.219V452.248H-98.2367V699.57C-98.2367 701.79 -100.029 703.551 -102.207 703.551C-104.386 703.551 -106.178 701.755 -106.178 699.57V406.588H-118.476L-122.447 402.607V371.639L-118.581 367.622ZM131.037 444.285V429.418H-98.2719V444.285H131.037ZM-98.2719 421.42H131.037V406.588H-98.2719V421.42ZM-114.576 398.591H-102.278H135.007H147.306V375.62H-114.611V398.591H-114.576Z" fill="white"/>
<path fill-rule="evenodd" clip-rule="evenodd" d="M252.305 250V280.848L248.335 284.829H-165.552L-169.522 280.848V196.821L-165.552 192.84H193.902V200.803H-161.581V276.867H244.329V250H252.305Z" fill="white"/>
<path d="M-512.651 234.836H-339.07C-336.857 234.836 -335.1 236.633 -335.1 238.817C-335.1 241.036 -336.892 242.798 -339.07 242.798H-508.68V303.466H-489.354H225.101H244.427V242.833H74.8169C72.6032 242.833 70.8464 241.037 70.8464 238.852C70.8464 236.633 72.6384 234.871 74.8169 234.871H248.397L252.368 238.852V307.518L248.397 311.499H229.071V487.725C229.071 489.945 227.28 491.706 225.101 491.706C222.922 491.706 221.13 489.909 221.13 487.725V311.499H-485.348V695.589H225.136C227.35 695.589 229.107 697.386 229.107 699.57C229.107 701.754 227.315 703.551 225.136 703.551H-489.319L-493.29 699.57V311.499H-512.615L-516.586 307.518V238.817L-512.651 234.836Z" fill="white"/>
<rect x="-517.646" y="222.047" width="770.013" height="54.81" fill="#7700D1"/>
<rect x="-360.36" y="200.681" width="554.262" height="53.1196" fill="#7700D1"/>
<rect x="229.399" y="239.389" width="38.9119" height="31.4622" fill="#7700D1"/>
<rect x="229.399" y="224.402" width="38.9119" height="10.5687" fill="#7700D1"/>
<path fill-rule="evenodd" clip-rule="evenodd" d="M188.015 200.902V192.889C188.658 192.857 189.306 192.84 189.958 192.84H214.305C235.292 192.84 252.305 209.854 252.305 230.84V276.857H244.305V230.84C244.305 214.272 230.874 200.84 214.305 200.84H189.958C189.305 200.84 188.657 200.861 188.015 200.902Z" fill="white"/>
</g>
<g clip-path="url(#clip1_1601_2)">
<mask id="path-27-inside-1_1601_2" fill="white">
<path fill-rule="evenodd" clip-rule="evenodd" d="M272.184 486.693H88.1347L80.8755 493.959V678.193L84.0259 681.346V645.169H95.4581V531.192H88.6523V490.902H134.147V501.29H230.994V490.902H275.431V531.192H264.924V645.169H275.431V682.209L279.443 678.193V493.959L272.184 486.693ZM243.788 685.459H115.669V670.926H243.788V685.459Z"/>
</mask>
<path fill-rule="evenodd" clip-rule="evenodd" d="M272.184 486.693H88.1347L80.8755 493.959V678.193L84.0259 681.346V645.169H95.4581V531.192H88.6523V490.902H134.147V501.29H230.994V490.902H275.431V531.192H264.924V645.169H275.431V682.209L279.443 678.193V493.959L272.184 486.693ZM243.788 685.459H115.669V670.926H243.788V685.459Z" fill="white"/>
<path d="M88.1347 486.693V482.693H86.4767L85.3049 483.866L88.1347 486.693ZM272.184 486.693L275.014 483.866L273.842 482.693H272.184V486.693ZM80.8755 493.959L78.0456 491.132L76.8755 492.304V493.959H80.8755ZM80.8755 678.193H76.8755V679.848L78.0456 681.02L80.8755 678.193ZM84.0259 681.346L81.1961 684.173L88.0259 691.01V681.346H84.0259ZM84.0259 645.169V641.169H80.0259V645.169H84.0259ZM95.4581 645.169V649.169H99.4581V645.169H95.4581ZM95.4581 531.192H99.4581V527.192H95.4581V531.192ZM88.6523 531.192H84.6523V535.192H88.6523V531.192ZM88.6523 490.902V486.902H84.6523V490.902H88.6523ZM134.147 490.902H138.147V486.902H134.147V490.902ZM134.147 501.29H130.147V505.29H134.147V501.29ZM230.994 501.29V505.29H234.994V501.29H230.994ZM230.994 490.902V486.902H226.994V490.902H230.994ZM275.431 490.902H279.431V486.902H275.431V490.902ZM275.431 531.192V535.192H279.431V531.192H275.431ZM264.924 531.192V527.192H260.924V531.192H264.924ZM264.924 645.169H260.924V649.169H264.924V645.169ZM275.431 645.169H279.431V641.169H275.431V645.169ZM275.431 682.209H271.431V691.872L278.261 685.035L275.431 682.209ZM279.443 678.193L282.273 681.02L283.443 679.848V678.193H279.443ZM279.443 493.959H283.443V492.304L282.273 491.132L279.443 493.959ZM115.669 685.459H111.669V689.459H115.669V685.459ZM243.788 685.459V689.459H247.788V685.459H243.788ZM115.669 670.926V666.926H111.669V670.926H115.669ZM243.788 670.926H247.788V666.926H243.788V670.926ZM88.1347 490.693H272.184V482.693H88.1347V490.693ZM83.7053 496.786L90.9645 489.52L85.3049 483.866L78.0456 491.132L83.7053 496.786ZM84.8755 678.193V493.959H76.8755V678.193H84.8755ZM86.8557 678.519L83.7053 675.366L78.0456 681.02L81.1961 684.173L86.8557 678.519ZM80.0259 645.169V681.346H88.0259V645.169H80.0259ZM95.4581 641.169H84.0259V649.169H95.4581V641.169ZM91.4581 531.192V645.169H99.4581V531.192H91.4581ZM95.4581 527.192H88.6523V535.192H95.4581V527.192ZM92.6523 531.192V490.902H84.6523V531.192H92.6523ZM88.6523 494.902H134.147V486.902H88.6523V494.902ZM130.147 490.902V501.29H138.147V490.902H130.147ZM230.994 497.29H134.147V505.29H230.994V497.29ZM226.994 490.902V501.29H234.994V490.902H226.994ZM275.431 486.902H230.994V494.902H275.431V486.902ZM279.431 531.192V490.902H271.431V531.192H279.431ZM264.924 535.192H275.431V527.192H264.924V535.192ZM268.924 645.169V531.192H260.924V645.169H268.924ZM275.431 641.169H264.924V649.169H275.431V641.169ZM279.431 682.209V645.169H271.431V682.209H279.431ZM276.613 675.366L272.601 679.382L278.261 685.035L282.273 681.02L276.613 675.366ZM275.443 493.959V678.193H283.443V493.959H275.443ZM269.354 489.52L276.613 496.786L282.273 491.132L275.014 483.866L269.354 489.52ZM115.669 689.459H243.788V681.459H115.669V689.459ZM111.669 670.926V685.459H119.669V670.926H111.669ZM243.788 666.926H115.669V674.926H243.788V666.926ZM247.788 685.459V670.926H239.788V685.459H247.788Z" fill="#7700D1" mask="url(#path-27-inside-1_1601_2)"/>
<mask id="path-29-inside-2_1601_2" fill="white">
<path fill-rule="evenodd" clip-rule="evenodd" d="M135.984 568.693H164.551H194.886H223.453L230.994 561.354V504.032C230.994 499.983 227.614 496.693 223.453 496.693C219.292 496.693 215.911 499.983 215.911 504.032V553.888H194.886H164.551H143.526V504.032C143.526 499.983 140.145 496.693 135.984 496.693C131.824 496.693 128.443 499.983 128.443 504.032V561.354L135.984 568.693Z"/>
</mask>
<path fill-rule="evenodd" clip-rule="evenodd" d="M135.984 568.693H164.551H194.886H223.453L230.994 561.354V504.032C230.994 499.983 227.614 496.693 223.453 496.693C219.292 496.693 215.911 499.983 215.911 504.032V553.888H194.886H164.551H143.526V504.032C143.526 499.983 140.145 496.693 135.984 496.693C131.824 496.693 128.443 499.983 128.443 504.032V561.354L135.984 568.693Z" fill="white"/>
<path d="M135.984 568.693L133.195 571.559L134.359 572.693H135.984V568.693ZM223.453 568.693V572.693H225.078L226.242 571.559L223.453 568.693ZM230.994 561.354L233.784 564.22L234.994 563.042V561.354H230.994ZM215.911 553.888V557.888H219.911V553.888H215.911ZM143.526 553.888H139.526V557.888H143.526V553.888ZM128.443 561.354H124.443V563.042L125.653 564.22L128.443 561.354ZM164.551 564.693H135.984V572.693H164.551V564.693ZM164.551 572.693H194.886V564.693H164.551V572.693ZM194.886 572.693H223.453V564.693H194.886V572.693ZM226.242 571.559L233.784 564.22L228.204 558.487L220.663 565.826L226.242 571.559ZM234.994 561.354V504.032H226.994V561.354H234.994ZM234.994 504.032C234.994 497.672 229.719 492.693 223.453 492.693V500.693C225.508 500.693 226.994 502.294 226.994 504.032H234.994ZM223.453 492.693C217.186 492.693 211.911 497.672 211.911 504.032H219.911C219.911 502.294 221.398 500.693 223.453 500.693V492.693ZM211.911 504.032V553.888H219.911V504.032H211.911ZM215.911 549.888H194.886V557.888H215.911V549.888ZM194.886 549.888H164.551V557.888H194.886V549.888ZM143.526 557.888H164.551V549.888H143.526V557.888ZM139.526 504.032V553.888H147.526V504.032H139.526ZM135.984 500.693C138.039 500.693 139.526 502.294 139.526 504.032H147.526C147.526 497.672 142.251 492.693 135.984 492.693V500.693ZM132.443 504.032C132.443 502.294 133.929 500.693 135.984 500.693V492.693C129.718 492.693 124.443 497.672 124.443 504.032H132.443ZM132.443 561.354V504.032H124.443V561.354H132.443ZM138.774 565.826L131.233 558.487L125.653 564.22L133.195 571.559L138.774 565.826Z" fill="#7700D1" mask="url(#path-29-inside-2_1601_2)"/>
<rect x="-1.75432" y="1.75432" width="3.50863" height="10.4914" transform="matrix(-1 0 0 1 223.41 493.693)" fill="white" stroke="white" stroke-width="3.50863"/>
<rect x="-1.78855" y="1.78855" width="3.57709" height="10.4229" transform="matrix(-1 0 0 1 135.957 493.693)" fill="white" stroke="white" stroke-width="3.57709"/>
<path fill-rule="evenodd" clip-rule="evenodd" d="M219.901 497.455H237.431C254.662 497.455 268.631 511.424 268.631 528.655V538.358H275.431V528.655C275.431 507.668 258.418 490.655 237.431 490.655H218.159C216.686 490.655 215.232 490.739 213.803 490.902H219.901V497.455Z" fill="white"/>
<path fill-rule="evenodd" clip-rule="evenodd" d="M268.596 626.237L268.596 643.767C268.596 660.998 254.627 674.967 237.396 674.967L229.656 674.967L229.656 681.767L237.396 681.767C258.383 681.767 275.396 664.754 275.396 643.767L275.396 624.495C275.396 623.053 275.316 621.629 275.159 620.229L275.159 626.237L268.596 626.237Z" fill="white"/>
<path fill-rule="evenodd" clip-rule="evenodd" d="M91.655 626.237L91.655 643.767C91.655 660.998 105.624 674.967 122.855 674.967L130.595 674.967L130.595 681.767L122.855 681.767C101.868 681.767 84.855 664.754 84.855 643.767L84.855 624.495C84.855 623.053 84.9354 621.629 85.0919 620.229L85.0919 626.237L91.655 626.237Z" fill="white"/>
<path fill-rule="evenodd" clip-rule="evenodd" d="M140.385 497.455H122.855C105.624 497.455 91.6551 511.424 91.6551 528.655V538.358H84.8551V528.655C84.8551 507.668 101.868 490.655 122.855 490.655H142.127C143.6 490.655 145.054 490.739 146.483 490.902H140.385V497.455Z" fill="white"/>
</g>
<g clip-path="url(#clip2_1601_2)">
<mask id="path-37-inside-3_1601_2" fill="white">
<path fill-rule="evenodd" clip-rule="evenodd" d="M88.4001 486.693H-95.6491L-102.908 493.959V678.193L-99.7579 681.346V645.169H-88.3258V531.192H-95.1315V490.902H-49.6365V501.29H47.2104V490.902H91.6472V531.192H81.1407V645.169H91.6472V682.209L95.6591 678.193V493.959L88.4001 486.693ZM60.0039 685.459H-68.1146V670.926H60.0039V685.459Z"/>
</mask>
<path fill-rule="evenodd" clip-rule="evenodd" d="M88.4001 486.693H-95.6491L-102.908 493.959V678.193L-99.7579 681.346V645.169H-88.3258V531.192H-95.1315V490.902H-49.6365V501.29H47.2104V490.902H91.6472V531.192H81.1407V645.169H91.6472V682.209L95.6591 678.193V493.959L88.4001 486.693ZM60.0039 685.459H-68.1146V670.926H60.0039V685.459Z" fill="white"/>
<path d="M-95.6491 486.693V482.693H-97.3071L-98.479 483.866L-95.6491 486.693ZM88.4001 486.693L91.2299 483.866L90.0581 482.693H88.4001V486.693ZM-102.908 493.959L-105.738 491.132L-106.908 492.304V493.959H-102.908ZM-102.908 678.193H-106.908V679.848L-105.738 681.02L-102.908 678.193ZM-99.7579 681.346L-102.588 684.173L-95.7579 691.01V681.346H-99.7579ZM-99.7579 645.169V641.169H-103.758V645.169H-99.7579ZM-88.3258 645.169V649.169H-84.3258V645.169H-88.3258ZM-88.3258 531.192H-84.3258V527.192H-88.3258V531.192ZM-95.1315 531.192H-99.1315V535.192H-95.1315V531.192ZM-95.1315 490.902V486.902H-99.1315V490.902H-95.1315ZM-49.6365 490.902H-45.6365V486.902H-49.6365V490.902ZM-49.6365 501.29H-53.6365V505.29H-49.6365V501.29ZM47.2104 501.29V505.29H51.2104V501.29H47.2104ZM47.2104 490.902V486.902H43.2104V490.902H47.2104ZM91.6472 490.902H95.6472V486.902H91.6472V490.902ZM91.6472 531.192V535.192H95.6472V531.192H91.6472ZM81.1407 531.192V527.192H77.1407V531.192H81.1407ZM81.1407 645.169H77.1407V649.169H81.1407V645.169ZM91.6472 645.169H95.6472V641.169H91.6472V645.169ZM91.6472 682.209H87.6472V691.872L94.4771 685.035L91.6472 682.209ZM95.6591 678.193L98.489 681.02L99.6591 679.848V678.193H95.6591ZM95.6591 493.959H99.6591V492.304L98.489 491.132L95.6591 493.959ZM-68.1146 685.459H-72.1146V689.459H-68.1146V685.459ZM60.0039 685.459V689.459H64.0039V685.459H60.0039ZM-68.1146 670.926V666.926H-72.1146V670.926H-68.1146ZM60.0039 670.926H64.0039V666.926H60.0039V670.926ZM-95.6491 490.693H88.4001V482.693H-95.6491V490.693ZM-100.078 496.786L-92.8193 489.52L-98.479 483.866L-105.738 491.132L-100.078 496.786ZM-98.9083 678.193V493.959H-106.908V678.193H-98.9083ZM-96.9281 678.519L-100.078 675.366L-105.738 681.02L-102.588 684.173L-96.9281 678.519ZM-103.758 645.169V681.346H-95.7579V645.169H-103.758ZM-88.3258 641.169H-99.7579V649.169H-88.3258V641.169ZM-92.3258 531.192V645.169H-84.3258V531.192H-92.3258ZM-88.3258 527.192H-95.1315V535.192H-88.3258V527.192ZM-91.1315 531.192V490.902H-99.1315V531.192H-91.1315ZM-95.1315 494.902H-49.6365V486.902H-95.1315V494.902ZM-53.6365 490.902V501.29H-45.6365V490.902H-53.6365ZM47.2104 497.29H-49.6365V505.29H47.2104V497.29ZM43.2104 490.902V501.29H51.2104V490.902H43.2104ZM91.6472 486.902H47.2104V494.902H91.6472V486.902ZM95.6472 531.192V490.902H87.6472V531.192H95.6472ZM81.1407 535.192H91.6472V527.192H81.1407V535.192ZM85.1407 645.169V531.192H77.1407V645.169H85.1407ZM91.6472 641.169H81.1407V649.169H91.6472V641.169ZM95.6472 682.209V645.169H87.6472V682.209H95.6472ZM92.8292 675.366L88.8173 679.382L94.4771 685.035L98.489 681.02L92.8292 675.366ZM91.6591 493.959V678.193H99.6591V493.959H91.6591ZM85.5702 489.52L92.8292 496.786L98.489 491.132L91.2299 483.866L85.5702 489.52ZM-68.1146 689.459H60.0039V681.459H-68.1146V689.459ZM-72.1146 670.926V685.459H-64.1146V670.926H-72.1146ZM60.0039 666.926H-68.1146V674.926H60.0039V666.926ZM64.0039 685.459V670.926H56.0039V685.459H64.0039Z" fill="#7700D1" mask="url(#path-37-inside-3_1601_2)"/>
<mask id="path-39-inside-4_1601_2" fill="white">
<path fill-rule="evenodd" clip-rule="evenodd" d="M-47.7994 568.693H-19.2328H11.1022H39.6689L47.2104 561.354V504.032C47.2104 499.983 43.8297 496.693 39.6689 496.693C35.508 496.693 32.1274 499.983 32.1274 504.032V553.888H11.1022H-19.2328H-40.2579V504.032C-40.2579 499.983 -43.6386 496.693 -47.7994 496.693C-51.9603 496.693 -55.3409 499.983 -55.3409 504.032V561.354L-47.7994 568.693Z"/>
</mask>
<path fill-rule="evenodd" clip-rule="evenodd" d="M-47.7994 568.693H-19.2328H11.1022H39.6689L47.2104 561.354V504.032C47.2104 499.983 43.8297 496.693 39.6689 496.693C35.508 496.693 32.1274 499.983 32.1274 504.032V553.888H11.1022H-19.2328H-40.2579V504.032C-40.2579 499.983 -43.6386 496.693 -47.7994 496.693C-51.9603 496.693 -55.3409 499.983 -55.3409 504.032V561.354L-47.7994 568.693Z" fill="white"/>
<path d="M-47.7994 568.693L-50.5892 571.559L-49.4245 572.693H-47.7994V568.693ZM39.6689 568.693V572.693H41.294L42.4586 571.559L39.6689 568.693ZM47.2104 561.354L50.0001 564.22L51.2104 563.042V561.354H47.2104ZM32.1274 553.888V557.888H36.1274V553.888H32.1274ZM-40.2579 553.888H-44.2579V557.888H-40.2579V553.888ZM-55.3409 561.354H-59.3409V563.042L-58.1307 564.22L-55.3409 561.354ZM-19.2328 564.693H-47.7994V572.693H-19.2328V564.693ZM-19.2328 572.693H11.1022V564.693H-19.2328V572.693ZM11.1022 572.693H39.6689V564.693H11.1022V572.693ZM42.4586 571.559L50.0001 564.22L44.4207 558.487L36.8792 565.826L42.4586 571.559ZM51.2104 561.354V504.032H43.2104V561.354H51.2104ZM51.2104 504.032C51.2104 497.672 45.9356 492.693 39.6689 492.693V500.693C41.7238 500.693 43.2104 502.294 43.2104 504.032H51.2104ZM39.6689 492.693C33.4021 492.693 28.1274 497.672 28.1274 504.032H36.1274C36.1274 502.294 37.614 500.693 39.6689 500.693V492.693ZM28.1274 504.032V553.888H36.1274V504.032H28.1274ZM32.1274 549.888H11.1022V557.888H32.1274V549.888ZM11.1022 549.888H-19.2328V557.888H11.1022V549.888ZM-40.2579 557.888H-19.2328V549.888H-40.2579V557.888ZM-44.2579 504.032V553.888H-36.2579V504.032H-44.2579ZM-47.7994 500.693C-45.7445 500.693 -44.2579 502.294 -44.2579 504.032H-36.2579C-36.2579 497.672 -41.5327 492.693 -47.7994 492.693V500.693ZM-51.3409 504.032C-51.3409 502.294 -49.8544 500.693 -47.7994 500.693V492.693C-54.0662 492.693 -59.3409 497.672 -59.3409 504.032H-51.3409ZM-51.3409 561.354V504.032H-59.3409V561.354H-51.3409ZM-45.0097 565.826L-52.5512 558.487L-58.1307 564.22L-50.5892 571.559L-45.0097 565.826Z" fill="#7700D1" mask="url(#path-39-inside-4_1601_2)"/>
<rect x="-1.75432" y="1.75432" width="3.50863" height="10.4914" transform="matrix(-1 0 0 1 39.6259 493.693)" fill="white" stroke="white" stroke-width="3.50863"/>
<path fill-rule="evenodd" clip-rule="evenodd" d="M36.1171 497.455H53.6472C70.8784 497.455 84.8472 511.424 84.8472 528.655V538.358H91.6472V528.655C91.6472 507.668 74.634 490.655 53.6472 490.655H34.3754C32.9021 490.655 31.4484 490.739 30.0189 490.902H36.1171V497.455Z" fill="white"/>
<path fill-rule="evenodd" clip-rule="evenodd" d="M84.8121 626.237L84.8121 643.767C84.8121 660.998 70.8434 674.967 53.6121 674.967L45.8726 674.967L45.8726 681.767L53.6121 681.767C74.5989 681.767 91.6121 664.754 91.6121 643.767L91.6121 624.495C91.6121 623.053 91.5317 621.629 91.3752 620.229L91.3752 626.237L84.8121 626.237Z" fill="white"/>
</g>
<g opacity="0.2">
<path d="M299.988 365.999C299.191 365.999 298.534 365.343 298.534 364.545V353.453C298.534 352.656 299.191 351.999 299.988 351.999C300.785 351.999 301.442 352.656 301.442 353.453V364.545C301.442 365.343 300.785 365.999 299.988 365.999Z" fill="white"/>
<path d="M305.546 359.714H294.454C293.656 359.714 293 359.222 293 358.636C293 358.049 293.656 357.557 294.454 357.557H305.546C306.343 357.557 307 358.049 307 358.636C307 359.222 306.343 359.714 305.546 359.714Z" fill="white"/>
</g>
<g opacity="0.2">
<path d="M1617 189C1616.45 189 1616 188.343 1616 187.546V176.453C1616 175.656 1616.45 175 1617 175C1617.55 175 1618 175.656 1618 176.453V187.546C1618 188.343 1617.55 189 1617 189Z" fill="white"/>
<path d="M1622.55 182.715H1611.45C1610.66 182.715 1610 182.222 1610 181.636C1610 181.05 1610.66 180.557 1611.45 180.557H1622.55C1623.34 180.557 1624 181.05 1624 181.636C1624 182.222 1623.34 182.715 1622.55 182.715Z" fill="white"/>
</g>
<g opacity="0.05" clip-path="url(#clip3_1601_2)">
<path d="M2033.15 367.622H1763.25L1759.28 371.603V402.571L1763.25 406.553H1775.55V488.218C1775.55 490.438 1777.34 492.2 1779.52 492.2C1781.7 492.2 1783.49 490.403 1783.49 488.218V452.247H2012.8V699.57C2012.8 701.79 2014.59 703.551 2016.77 703.551C2018.95 703.551 2020.74 701.754 2020.74 699.57V406.588H2033.04L2037.01 402.607V371.639L2033.15 367.622ZM1783.53 444.285V429.418H2012.84V444.285H1783.53ZM2012.84 421.42H1783.53V406.588H2012.84V421.42ZM2029.14 398.59H2016.84H1779.56H1767.26V375.62H2029.17V398.59H2029.14Z" fill="white"/>
<path fill-rule="evenodd" clip-rule="evenodd" d="M1662.26 250V280.848L1666.23 284.829H2080.12L2084.09 280.848V196.821L2080.12 192.84H1720.66V200.802H2076.15V276.867H1670.23V250H1662.26Z" fill="white"/>
<path d="M2427.21 234.836H2253.63C2251.42 234.836 2249.66 236.632 2249.66 238.817C2249.66 241.036 2251.46 242.798 2253.63 242.798H2423.24V303.466H2403.92H1689.46H1670.14V242.833H1839.75C1841.96 242.833 1843.72 241.036 1843.72 238.852C1843.72 236.632 1841.93 234.871 1839.75 234.871H1666.17L1662.2 238.852V307.518L1666.17 311.499H1685.49V487.725C1685.49 489.944 1687.28 491.706 1689.46 491.706C1691.64 491.706 1693.43 489.909 1693.43 487.725V311.499H2399.91V695.589H1689.43C1687.21 695.589 1685.46 697.385 1685.46 699.57C1685.46 701.754 1687.25 703.551 1689.43 703.551H2403.88L2407.85 699.57V311.499H2427.18L2431.15 307.518V238.817L2427.21 234.836Z" fill="white"/>
<rect width="770.013" height="54.81" transform="matrix(-1 0 0 1 2432.21 222.047)" fill="#7700D1"/>
<rect width="554.262" height="53.1196" transform="matrix(-1 0 0 1 2274.92 200.681)" fill="#7700D1"/>
<rect width="38.9119" height="31.4622" transform="matrix(-1 0 0 1 1685.17 239.389)" fill="#7700D1"/>
<rect width="38.9119" height="10.5687" transform="matrix(-1 0 0 1 1685.17 224.402)" fill="#7700D1"/>
<path fill-rule="evenodd" clip-rule="evenodd" d="M1726.55 200.902V192.889C1725.91 192.857 1725.26 192.84 1724.61 192.84H1700.26C1679.27 192.84 1662.26 209.853 1662.26 230.84V276.857H1670.26V230.84C1670.26 214.272 1683.69 200.84 1700.26 200.84H1724.61C1725.26 200.84 1725.91 200.861 1726.55 200.902Z" fill="white"/>
</g>
<g clip-path="url(#clip4_1601_2)">
<mask id="path-56-inside-5_1601_2" fill="white">
<path fill-rule="evenodd" clip-rule="evenodd" d="M1642.38 486.693H1826.43L1833.69 493.959V678.192L1830.54 681.346V645.169H1819.11V531.192H1825.91V490.902H1780.42V501.29H1683.57V490.902H1639.13V531.192H1649.64V645.169H1639.13V682.208L1635.12 678.192V493.959L1642.38 486.693ZM1670.78 685.459H1798.89V670.926H1670.78V685.459Z"/>
</mask>
<path fill-rule="evenodd" clip-rule="evenodd" d="M1642.38 486.693H1826.43L1833.69 493.959V678.192L1830.54 681.346V645.169H1819.11V531.192H1825.91V490.902H1780.42V501.29H1683.57V490.902H1639.13V531.192H1649.64V645.169H1639.13V682.208L1635.12 678.192V493.959L1642.38 486.693ZM1670.78 685.459H1798.89V670.926H1670.78V685.459Z" fill="white"/>
<path d="M1826.43 486.693V482.693H1828.09L1829.26 483.866L1826.43 486.693ZM1642.38 486.693L1639.55 483.866L1640.72 482.693H1642.38V486.693ZM1833.69 493.959L1836.52 491.132L1837.69 492.304V493.959H1833.69ZM1833.69 678.192H1837.69V679.848L1836.52 681.019L1833.69 678.192ZM1830.54 681.346L1833.37 684.173L1826.54 691.01V681.346H1830.54ZM1830.54 645.169V641.169H1834.54V645.169H1830.54ZM1819.11 645.169V649.169H1815.11V645.169H1819.11ZM1819.11 531.192H1815.11V527.192H1819.11V531.192ZM1825.91 531.192H1829.91V535.192H1825.91V531.192ZM1825.91 490.902V486.902H1829.91V490.902H1825.91ZM1780.42 490.902H1776.42V486.902H1780.42V490.902ZM1780.42 501.29H1784.42V505.29H1780.42V501.29ZM1683.57 501.29V505.29H1679.57V501.29H1683.57ZM1683.57 490.902V486.902H1687.57V490.902H1683.57ZM1639.13 490.902H1635.13V486.902H1639.13V490.902ZM1639.13 531.192V535.192H1635.13V531.192H1639.13ZM1649.64 531.192V527.192H1653.64V531.192H1649.64ZM1649.64 645.169H1653.64V649.169H1649.64V645.169ZM1639.13 645.169H1635.13V641.169H1639.13V645.169ZM1639.13 682.208H1643.13V691.872L1636.3 685.035L1639.13 682.208ZM1635.12 678.192L1632.29 681.019L1631.12 679.848V678.192H1635.12ZM1635.12 493.959H1631.12V492.304L1632.29 491.132L1635.12 493.959ZM1798.89 685.459H1802.89V689.459H1798.89V685.459ZM1670.78 685.459V689.459H1666.78V685.459H1670.78ZM1798.89 670.926V666.926H1802.89V670.926H1798.89ZM1670.78 670.926H1666.78V666.926H1670.78V670.926ZM1826.43 490.693H1642.38V482.693H1826.43V490.693ZM1830.86 496.786L1823.6 489.52L1829.26 483.866L1836.52 491.132L1830.86 496.786ZM1829.69 678.192V493.959H1837.69V678.192H1829.69ZM1827.71 678.519L1830.86 675.365L1836.52 681.019L1833.37 684.173L1827.71 678.519ZM1834.54 645.169V681.346H1826.54V645.169H1834.54ZM1819.11 641.169H1830.54V649.169H1819.11V641.169ZM1823.11 531.192V645.169H1815.11V531.192H1823.11ZM1819.11 527.192H1825.91V535.192H1819.11V527.192ZM1821.91 531.192V490.902H1829.91V531.192H1821.91ZM1825.91 494.902H1780.42V486.902H1825.91V494.902ZM1784.42 490.902V501.29H1776.42V490.902H1784.42ZM1683.57 497.29H1780.42V505.29H1683.57V497.29ZM1687.57 490.902V501.29H1679.57V490.902H1687.57ZM1639.13 486.902H1683.57V494.902H1639.13V486.902ZM1635.13 531.192V490.902H1643.13V531.192H1635.13ZM1649.64 535.192H1639.13V527.192H1649.64V535.192ZM1645.64 645.169V531.192H1653.64V645.169H1645.64ZM1639.13 641.169H1649.64V649.169H1639.13V641.169ZM1635.13 682.208V645.169H1643.13V682.208H1635.13ZM1637.95 675.365L1641.96 679.381L1636.3 685.035L1632.29 681.019L1637.95 675.365ZM1639.12 493.959V678.192H1631.12V493.959H1639.12ZM1645.21 489.52L1637.95 496.786L1632.29 491.132L1639.55 483.866L1645.21 489.52ZM1798.89 689.459H1670.78V681.459H1798.89V689.459ZM1802.89 670.926V685.459H1794.89V670.926H1802.89ZM1670.78 666.926H1798.89V674.926H1670.78V666.926ZM1666.78 685.459V670.926H1674.78V685.459H1666.78Z" fill="#7700D1" mask="url(#path-56-inside-5_1601_2)"/>
<mask id="path-58-inside-6_1601_2" fill="white">
<path fill-rule="evenodd" clip-rule="evenodd" d="M1778.58 568.693H1750.01H1719.68H1691.11L1683.57 561.354V504.032C1683.57 499.983 1686.95 496.693 1691.11 496.693C1695.27 496.693 1698.65 499.983 1698.65 504.032V553.888H1719.68H1750.01H1771.04V504.032C1771.04 499.983 1774.42 496.693 1778.58 496.693C1782.74 496.693 1786.12 499.983 1786.12 504.032V561.354L1778.58 568.693Z"/>
</mask>
<path fill-rule="evenodd" clip-rule="evenodd" d="M1778.58 568.693H1750.01H1719.68H1691.11L1683.57 561.354V504.032C1683.57 499.983 1686.95 496.693 1691.11 496.693C1695.27 496.693 1698.65 499.983 1698.65 504.032V553.888H1719.68H1750.01H1771.04V504.032C1771.04 499.983 1774.42 496.693 1778.58 496.693C1782.74 496.693 1786.12 499.983 1786.12 504.032V561.354L1778.58 568.693Z" fill="white"/>
<path d="M1778.58 568.693L1781.37 571.559L1780.2 572.693H1778.58V568.693ZM1691.11 568.693V572.693H1689.49L1688.32 571.559L1691.11 568.693ZM1683.57 561.354L1680.78 564.22L1679.57 563.042V561.354H1683.57ZM1698.65 553.888V557.888H1694.65V553.888H1698.65ZM1771.04 553.888H1775.04V557.888H1771.04V553.888ZM1786.12 561.354H1790.12V563.042L1788.91 564.22L1786.12 561.354ZM1750.01 564.693H1778.58V572.693H1750.01V564.693ZM1750.01 572.693H1719.68V564.693H1750.01V572.693ZM1719.68 572.693H1691.11V564.693H1719.68V572.693ZM1688.32 571.559L1680.78 564.22L1686.36 558.487L1693.9 565.826L1688.32 571.559ZM1679.57 561.354V504.032H1687.57V561.354H1679.57ZM1679.57 504.032C1679.57 497.672 1684.84 492.693 1691.11 492.693V500.693C1689.06 500.693 1687.57 502.294 1687.57 504.032H1679.57ZM1691.11 492.693C1697.38 492.693 1702.65 497.672 1702.65 504.032H1694.65C1694.65 502.294 1693.17 500.693 1691.11 500.693V492.693ZM1702.65 504.032V553.888H1694.65V504.032H1702.65ZM1698.65 549.888H1719.68V557.888H1698.65V549.888ZM1719.68 549.888H1750.01V557.888H1719.68V549.888ZM1771.04 557.888H1750.01V549.888H1771.04V557.888ZM1775.04 504.032V553.888H1767.04V504.032H1775.04ZM1778.58 500.693C1776.52 500.693 1775.04 502.294 1775.04 504.032H1767.04C1767.04 497.672 1772.31 492.693 1778.58 492.693V500.693ZM1782.12 504.032C1782.12 502.294 1780.63 500.693 1778.58 500.693V492.693C1784.85 492.693 1790.12 497.672 1790.12 504.032H1782.12ZM1782.12 561.354V504.032H1790.12V561.354H1782.12ZM1775.79 565.826L1783.33 558.487L1788.91 564.22L1781.37 571.559L1775.79 565.826Z" fill="#7700D1" mask="url(#path-58-inside-6_1601_2)"/>
<rect x="1689.4" y="495.447" width="3.50863" height="10.4914" fill="white" stroke="white" stroke-width="3.50863"/>
<rect x="1776.82" y="495.481" width="3.57709" height="10.4229" fill="white" stroke="white" stroke-width="3.57709"/>
<path fill-rule="evenodd" clip-rule="evenodd" d="M1694.66 497.455H1677.13C1659.9 497.455 1645.93 511.423 1645.93 528.655V538.358H1639.13V528.655C1639.13 507.668 1656.15 490.655 1677.13 490.655H1696.4C1697.88 490.655 1699.33 490.738 1700.76 490.902H1694.66V497.455Z" fill="white"/>
<path fill-rule="evenodd" clip-rule="evenodd" d="M1645.97 626.237L1645.97 643.767C1645.97 660.998 1659.94 674.967 1677.17 674.967L1684.91 674.967L1684.91 681.767L1677.17 681.767C1656.18 681.767 1639.17 664.754 1639.17 643.767L1639.17 624.495C1639.17 623.053 1639.25 621.629 1639.4 620.229L1639.4 626.237L1645.97 626.237Z" fill="white"/>
<path fill-rule="evenodd" clip-rule="evenodd" d="M1822.91 626.237L1822.91 643.767C1822.91 660.998 1808.94 674.967 1791.71 674.967L1783.97 674.967L1783.97 681.767L1791.71 681.767C1812.7 681.767 1829.71 664.754 1829.71 643.767L1829.71 624.495C1829.71 623.053 1829.63 621.629 1829.47 620.229L1829.47 626.237L1822.91 626.237Z" fill="white"/>
<path fill-rule="evenodd" clip-rule="evenodd" d="M1774.18 497.455H1791.71C1808.94 497.455 1822.91 511.423 1822.91 528.655V538.358H1829.71V528.655C1829.71 507.668 1812.7 490.655 1791.71 490.655H1772.44C1770.96 490.655 1769.51 490.738 1768.08 490.902H1774.18V497.455Z" fill="white"/>
</g>
<g clip-path="url(#clip5_1601_2)">
<mask id="path-66-inside-7_1601_2" fill="white">
<path fill-rule="evenodd" clip-rule="evenodd" d="M1826.16 486.693H2010.21L2017.47 493.959V678.192L2014.32 681.346V645.169H2002.89V531.192H2009.7V490.902H1964.2V501.29H1867.35V490.902H1822.92V531.192H1833.42V645.169H1822.92V682.208L1818.9 678.192V493.959L1826.16 486.693ZM1854.56 685.459H1982.68V670.926H1854.56V685.459Z"/>
</mask>
<path fill-rule="evenodd" clip-rule="evenodd" d="M1826.16 486.693H2010.21L2017.47 493.959V678.192L2014.32 681.346V645.169H2002.89V531.192H2009.7V490.902H1964.2V501.29H1867.35V490.902H1822.92V531.192H1833.42V645.169H1822.92V682.208L1818.9 678.192V493.959L1826.16 486.693ZM1854.56 685.459H1982.68V670.926H1854.56V685.459Z" fill="white"/>
<path d="M2010.21 486.693V482.693H2011.87L2013.04 483.866L2010.21 486.693ZM1826.16 486.693L1823.33 483.866L1824.51 482.693H1826.16V486.693ZM2017.47 493.959L2020.3 491.132L2021.47 492.304V493.959H2017.47ZM2017.47 678.192H2021.47V679.848L2020.3 681.019L2017.47 678.192ZM2014.32 681.346L2017.15 684.173L2010.32 691.01V681.346H2014.32ZM2014.32 645.169V641.169H2018.32V645.169H2014.32ZM2002.89 645.169V649.169H1998.89V645.169H2002.89ZM2002.89 531.192H1998.89V527.192H2002.89V531.192ZM2009.7 531.192H2013.7V535.192H2009.7V531.192ZM2009.7 490.902V486.902H2013.7V490.902H2009.7ZM1964.2 490.902H1960.2V486.902H1964.2V490.902ZM1964.2 501.29H1968.2V505.29H1964.2V501.29ZM1867.35 501.29V505.29H1863.35V501.29H1867.35ZM1867.35 490.902V486.902H1871.35V490.902H1867.35ZM1822.92 490.902H1818.92V486.902H1822.92V490.902ZM1822.92 531.192V535.192H1818.92V531.192H1822.92ZM1833.42 531.192V527.192H1837.42V531.192H1833.42ZM1833.42 645.169H1837.42V649.169H1833.42V645.169ZM1822.92 645.169H1818.92V641.169H1822.92V645.169ZM1822.92 682.208H1826.92V691.872L1820.09 685.035L1822.92 682.208ZM1818.9 678.192L1816.07 681.019L1814.9 679.848V678.192H1818.9ZM1818.9 493.959H1814.9V492.304L1816.07 491.132L1818.9 493.959ZM1982.68 685.459H1986.68V689.459H1982.68V685.459ZM1854.56 685.459V689.459H1850.56V685.459H1854.56ZM1982.68 670.926V666.926H1986.68V670.926H1982.68ZM1854.56 670.926H1850.56V666.926H1854.56V670.926ZM2010.21 490.693H1826.16V482.693H2010.21V490.693ZM2014.64 496.786L2007.38 489.52L2013.04 483.866L2020.3 491.132L2014.64 496.786ZM2013.47 678.192V493.959H2021.47V678.192H2013.47ZM2011.49 678.519L2014.64 675.365L2020.3 681.019L2017.15 684.173L2011.49 678.519ZM2018.32 645.169V681.346H2010.32V645.169H2018.32ZM2002.89 641.169H2014.32V649.169H2002.89V641.169ZM2006.89 531.192V645.169H1998.89V531.192H2006.89ZM2002.89 527.192H2009.7V535.192H2002.89V527.192ZM2005.7 531.192V490.902H2013.7V531.192H2005.7ZM2009.7 494.902H1964.2V486.902H2009.7V494.902ZM1968.2 490.902V501.29H1960.2V490.902H1968.2ZM1867.35 497.29H1964.2V505.29H1867.35V497.29ZM1871.35 490.902V501.29H1863.35V490.902H1871.35ZM1822.92 486.902H1867.35V494.902H1822.92V486.902ZM1818.92 531.192V490.902H1826.92V531.192H1818.92ZM1833.42 535.192H1822.92V527.192H1833.42V535.192ZM1829.42 645.169V531.192H1837.42V645.169H1829.42ZM1822.92 641.169H1833.42V649.169H1822.92V641.169ZM1818.92 682.208V645.169H1826.92V682.208H1818.92ZM1821.73 675.365L1825.75 679.381L1820.09 685.035L1816.07 681.019L1821.73 675.365ZM1822.9 493.959V678.192H1814.9V493.959H1822.9ZM1828.99 489.52L1821.73 496.786L1816.07 491.132L1823.33 483.866L1828.99 489.52ZM1982.68 689.459H1854.56V681.459H1982.68V689.459ZM1986.68 670.926V685.459H1978.68V670.926H1986.68ZM1854.56 666.926H1982.68V674.926H1854.56V666.926ZM1850.56 685.459V670.926H1858.56V685.459H1850.56Z" fill="#7700D1" mask="url(#path-66-inside-7_1601_2)"/>
<mask id="path-68-inside-8_1601_2" fill="white">
<path fill-rule="evenodd" clip-rule="evenodd" d="M1962.36 568.693H1933.8H1903.46H1874.9L1867.35 561.354V504.032C1867.35 499.983 1870.73 496.693 1874.9 496.693C1879.06 496.693 1882.44 499.983 1882.44 504.032V553.888H1903.46H1933.8H1954.82V504.032C1954.82 499.983 1958.2 496.693 1962.36 496.693C1966.52 496.693 1969.9 499.983 1969.9 504.032V561.354L1962.36 568.693Z"/>
</mask>
<path fill-rule="evenodd" clip-rule="evenodd" d="M1962.36 568.693H1933.8H1903.46H1874.9L1867.35 561.354V504.032C1867.35 499.983 1870.73 496.693 1874.9 496.693C1879.06 496.693 1882.44 499.983 1882.44 504.032V553.888H1903.46H1933.8H1954.82V504.032C1954.82 499.983 1958.2 496.693 1962.36 496.693C1966.52 496.693 1969.9 499.983 1969.9 504.032V561.354L1962.36 568.693Z" fill="white"/>
<path d="M1962.36 568.693L1965.15 571.559L1963.99 572.693H1962.36V568.693ZM1874.9 568.693V572.693H1873.27L1872.11 571.559L1874.9 568.693ZM1867.35 561.354L1864.56 564.22L1863.35 563.042V561.354H1867.35ZM1882.44 553.888V557.888H1878.44V553.888H1882.44ZM1954.82 553.888H1958.82V557.888H1954.82V553.888ZM1969.9 561.354H1973.9V563.042L1972.69 564.22L1969.9 561.354ZM1933.8 564.693H1962.36V572.693H1933.8V564.693ZM1933.8 572.693H1903.46V564.693H1933.8V572.693ZM1903.46 572.693H1874.9V564.693H1903.46V572.693ZM1872.11 571.559L1864.56 564.22L1870.14 558.487L1877.68 565.826L1872.11 571.559ZM1863.35 561.354V504.032H1871.35V561.354H1863.35ZM1863.35 504.032C1863.35 497.672 1868.63 492.693 1874.9 492.693V500.693C1872.84 500.693 1871.35 502.294 1871.35 504.032H1863.35ZM1874.9 492.693C1881.16 492.693 1886.44 497.672 1886.44 504.032H1878.44C1878.44 502.294 1876.95 500.693 1874.9 500.693V492.693ZM1886.44 504.032V553.888H1878.44V504.032H1886.44ZM1882.44 549.888H1903.46V557.888H1882.44V549.888ZM1903.46 549.888H1933.8V557.888H1903.46V549.888ZM1954.82 557.888H1933.8V549.888H1954.82V557.888ZM1958.82 504.032V553.888H1950.82V504.032H1958.82ZM1962.36 500.693C1960.31 500.693 1958.82 502.294 1958.82 504.032H1950.82C1950.82 497.672 1956.1 492.693 1962.36 492.693V500.693ZM1965.9 504.032C1965.9 502.294 1964.42 500.693 1962.36 500.693V492.693C1968.63 492.693 1973.9 497.672 1973.9 504.032H1965.9ZM1965.9 561.354V504.032H1973.9V561.354H1965.9ZM1959.57 565.826L1967.12 558.487L1972.69 564.22L1965.15 571.559L1959.57 565.826Z" fill="#7700D1" mask="url(#path-68-inside-8_1601_2)"/>
<rect x="1873.18" y="495.447" width="3.50863" height="10.4914" fill="white" stroke="white" stroke-width="3.50863"/>
<path fill-rule="evenodd" clip-rule="evenodd" d="M1878.45 497.455H1860.92C1843.69 497.455 1829.72 511.423 1829.72 528.655V538.358H1822.92V528.655C1822.92 507.668 1839.93 490.655 1860.92 490.655H1880.19C1881.66 490.655 1883.12 490.738 1884.55 490.902H1878.45V497.455Z" fill="white"/>
<path fill-rule="evenodd" clip-rule="evenodd" d="M1829.75 626.237L1829.75 643.767C1829.75 660.998 1843.72 674.967 1860.95 674.967L1868.69 674.967L1868.69 681.767L1860.95 681.767C1839.97 681.767 1822.95 664.754 1822.95 643.767L1822.95 624.495C1822.95 623.053 1823.03 621.629 1823.19 620.229L1823.19 626.237L1829.75 626.237Z" fill="white"/>
</g>
<defs>
<clipPath id="clip0_1601_2">
<rect width="955" height="500" fill="white" transform="matrix(-1 0 0 1 380 181)"/>
</clipPath>
<clipPath id="clip1_1601_2">
<rect width="190" height="190" fill="white" transform="translate(85.2838 491.004)"/>
</clipPath>
<clipPath id="clip2_1601_2">
<rect width="190" height="190" fill="white" transform="translate(-98.5 491.004)"/>
</clipPath>
<clipPath id="clip3_1601_2">
<rect width="955" height="500" fill="white" transform="translate(1534.56 181)"/>
</clipPath>
<clipPath id="clip4_1601_2">
<rect width="190" height="190" fill="white" transform="matrix(-1 0 0 1 1829.28 491.004)"/>
</clipPath>
<clipPath id="clip5_1601_2">
<rect width="190" height="190" fill="white" transform="matrix(-1 0 0 1 2013.06 491.004)"/>
</clipPath>
</defs>
</svg>
