<?xml version="1.0" encoding="UTF-8"?>
<svg width="1920" height="3457" fill="none" version="1.1" viewBox="0 0 1920 3457" xmlns="http://www.w3.org/2000/svg">
 <g fill="#fff" opacity=".2">
  <path d="m1108.8 1623.5c-0.54 0-1-0.66-1-1.46v-11.09c0-0.8 0.46-1.45 1-1.45 0.55 0 1 0.65 1 1.45v11.09c0 0.8-0.45 1.46-1 1.46z"/>
  <path d="m1114.3 1617.2h-11.09c-0.8 0-1.45-0.49-1.45-1.08 0-0.58 0.65-1.07 1.45-1.07h11.09c0.8 0 1.46 0.49 1.46 1.07 0 0.59-0.66 1.08-1.46 1.08z"/>
  <path d="m960.28 2018.4c-0.548 0-1-0.66-1-1.45v-11.1c0-0.79 0.452-1.45 1-1.45 0.549 0 1 0.66 1 1.45v11.1c0 0.79-0.451 1.45-1 1.45z"/>
  <path d="m965.82 2012.2h-11.092c-0.797 0-1.454-0.5-1.454-1.08 0-0.59 0.657-1.08 1.454-1.08h11.092c0.798 0 1.454 0.49 1.454 1.08 0 0.58-0.656 1.08-1.454 1.08z"/>
 </g>
 <g fill="#4C1D6F" opacity=".3">
  <path d="m960 3456.7c-0.549 0-1-0.65-1-1.45v-11.09c0-0.8 0.451-1.46 1-1.46 0.548 0 1 0.66 1 1.46v11.09c0 0.8-0.452 1.45-1 1.45z"/>
  <path d="m965.54 3450.4h-11.092c-0.797 0-1.454-0.5-1.454-1.08 0-0.59 0.657-1.08 1.454-1.08h11.092c0.798 0 1.454 0.49 1.454 1.08 0 0.58-0.656 1.08-1.454 1.08z"/>
 </g>
 <g fill="#fff" opacity=".2">
  <path d="m666.76 1702.7c-0.548 0-1-0.65-1-1.45v-11.09c0-0.8 0.452-1.46 1-1.46 0.549 0 1 0.66 1 1.46v11.09c0 0.8-0.451 1.45-1 1.45z"/>
  <path d="m672.31 1696.4h-11.092c-0.797 0-1.454-0.49-1.454-1.08s0.657-1.08 1.454-1.08h11.092c0.797 0 1.454 0.49 1.454 1.08s-0.657 1.08-1.454 1.08z"/>
  <path d="m1623.4 258.82h43.67c1.24 0 2.23-1.008 2.23-2.234 0-1.246-1.01-2.235-2.23-2.235h-43.67c-1.24 0-2.23 1.008-2.23 2.235 0 1.226 1.01 2.234 2.23 2.234z"/>
  <path d="m1642.2 268h48.28c8.3 0 15.04-6.744 15.04-15.05 0-8.307-6.74-15.051-15.04-15.051-2.01 0-3.99 0.395-5.81 1.167-1-2.868-2.76-5.459-5.11-7.457-3.16-2.709-7.19-4.212-11.36-4.212-5.87 0-11.29 2.986-14.51 7.713-1.79-1.998-4.82-4.054-9.62-4.054-7.21 0-13.06 5.874-13.06 13.073 0 1.246 1.01 2.235 2.23 2.235 1.25 0 2.24-1.009 2.24-2.235 0-4.747 3.85-8.584 8.57-8.584 5.93 0 7.65 4.589 7.71 4.786v-0.019l4.23 0.059c1.87-5.083 6.77-8.485 12.21-8.485 6.38 0 11.77 4.589 12.82 10.898l3.48 1.483c1.78-1.226 3.83-1.879 5.98-1.879 5.83 0 10.55 4.747 10.55 10.562 0 5.834-4.74 10.561-10.55 10.561h-48.28c-1.25 0-2.24 1.009-2.24 2.235-0.02 1.246 0.99 2.254 2.24 2.254z"/>
  <path d="m532.61 1577h43.665c1.245 0 2.233-1.01 2.233-2.23 0-1.25-1.008-2.24-2.233-2.24h-43.665c-1.245 0-2.233 1.01-2.233 2.24 0 1.22 1.008 2.23 2.233 2.23z"/>
  <path d="m551.36 1586.1h48.289c8.298 0 15.036-6.74 15.036-15.05s-6.738-15.05-15.036-15.05c-2.016 0-3.991 0.39-5.809 1.17-1.008-2.87-2.766-5.46-5.117-7.46-3.162-2.71-7.192-4.21-11.361-4.21-5.868 0-11.282 2.98-14.503 7.71-1.798-2-4.821-4.05-9.622-4.05-7.212 0-13.06 5.87-13.06 13.07 0 1.24 1.008 2.23 2.233 2.23 1.244 0 2.232-1.01 2.232-2.23 0-4.75 3.853-8.59 8.575-8.59 5.928 0 7.647 4.59 7.706 4.79v-0.02l4.228 0.06c1.877-5.08 6.777-8.48 12.211-8.48 6.382 0 11.775 4.58 12.823 10.89l3.477 1.49c1.778-1.23 3.833-1.88 5.987-1.88 5.828 0 10.551 4.74 10.551 10.56 0 5.83-4.742 10.56-10.551 10.56h-48.289c-1.245 0-2.233 1.01-2.233 2.24-0.019 1.24 0.988 2.25 2.233 2.25z"/>
  <path d="m185.19 342.43h48.269c8.299 0 15.036-6.745 15.036-15.051 0-8.307-6.737-15.051-15.036-15.051-2.015 0-3.991 0.395-5.809 1.167-1.007-2.868-2.766-5.459-5.117-7.457-3.161-2.709-7.192-4.212-11.361-4.212-9.642 0-17.486 7.852-17.486 17.503 0 1.246 1.008 2.235 2.233 2.235s2.233-1.009 2.233-2.235c0-7.179 5.828-13.014 13-13.014 6.382 0 11.776 4.589 12.823 10.898l3.478 1.483c1.778-1.226 3.833-1.879 5.986-1.879 5.829 0 10.551 4.747 10.551 10.562 0 5.834-4.742 10.561-10.551 10.561h-48.288c-1.245 0-2.233 1.009-2.233 2.235s1.027 2.255 2.272 2.255z"/>
  <path d="m171.4 333.25h43.665c1.245 0 2.233-1.009 2.233-2.235 0-1.246-1.008-2.235-2.233-2.235h-43.665c-1.245 0-2.233 1.008-2.233 2.235 0 1.246 1.008 2.235 2.233 2.235z"/>
  <path d="m1186.2 1728.9h48.27c8.3 0 15.03-6.74 15.03-15.05s-6.73-15.05-15.03-15.05c-2.02 0-3.99 0.4-5.81 1.17-1.01-2.87-2.77-5.46-5.12-7.46-3.16-2.71-7.19-4.21-11.36-4.21-9.64 0-17.48 7.85-17.48 17.5 0 1.25 1 2.24 2.23 2.24 1.22 0 2.23-1.01 2.23-2.24 0-7.18 5.83-13.01 13-13.01 6.38 0 11.78 4.59 12.82 10.9l3.48 1.48c1.78-1.23 3.83-1.88 5.99-1.88 5.83 0 10.55 4.75 10.55 10.56 0 5.84-4.74 10.56-10.55 10.56h-48.29c-1.25 0-2.23 1.01-2.23 2.24 0 1.22 1.02 2.25 2.27 2.25z"/>
  <path d="m1172.4 1719.8h43.66c1.25 0 2.24-1 2.24-2.23 0-1.25-1.01-2.24-2.24-2.24h-43.66c-1.25 0-2.23 1.01-2.23 2.24 0 1.25 1 2.23 2.23 2.23z"/>
  <path d="m282 2979.4h48.268c8.299 0 15.036-6.74 15.036-15.05s-6.737-15.05-15.036-15.05c-2.015 0-3.991 0.4-5.808 1.17-1.008-2.87-2.767-5.46-5.118-7.46-3.161-2.71-7.192-4.21-11.361-4.21-9.642 0-17.486 7.85-17.486 17.5 0 1.25 1.008 2.24 2.233 2.24s2.233-1.01 2.233-2.24c0-7.18 5.828-13.01 13.001-13.01 6.381 0 11.775 4.59 12.823 10.9l3.477 1.48c1.778-1.23 3.833-1.88 5.987-1.88 5.828 0 10.551 4.75 10.551 10.56 0 5.84-4.742 10.56-10.551 10.56h-48.289c-1.245 0-2.233 1.01-2.233 2.24 0 1.22 1.028 2.25 2.273 2.25z"/>
  <path d="m268.21 2970.3h43.665c1.245 0 2.233-1.01 2.233-2.24 0-1.25-1.008-2.23-2.233-2.23h-43.665c-1.245 0-2.233 1-2.233 2.23 0 1.25 1.008 2.24 2.233 2.24z"/>
 </g>
 <g clip-path="url(#clip0_2_581)" opacity=".05">
  <g fill="#fff">
   <path d="m-118.58 594.62h269.89l3.971 3.981v30.969l-3.971 3.981h-12.298v81.666c0 2.219-1.792 3.981-3.97 3.981-2.179 0-3.971-1.797-3.971-3.981v-35.971h-229.31v247.32c0 2.22-1.7923 3.981-3.9703 3.981-2.179 0-3.971-1.796-3.971-3.981v-292.98h-12.298l-3.971-3.981v-30.968l3.866-4.017zm249.62 76.663v-14.867h-229.31v14.867h229.31zm-229.31-22.865h229.31v-14.832h-229.31v14.832zm-16.304-22.829h261.88v-22.971h-261.92v22.971h0.035z"/>
   <path d="m252.3 477v30.848l-3.97 3.981h-413.89l-3.97-3.981v-84.027l3.97-3.981h359.45v7.963h-355.48v76.064h405.91v-26.867h7.976z" clip-rule="evenodd" fill-rule="evenodd"/>
   <path d="m-512.65 461.84h173.58c2.213 0 3.97 1.797 3.97 3.981 0 2.219-1.792 3.981-3.97 3.981h-169.61v60.668h753.11v-60.633h-169.61c-2.2137 0-3.9705-1.796-3.9705-3.981 0-2.219 1.792-3.981 3.9705-3.981h173.58l3.971 3.981v68.666l-3.971 3.981h-19.326v176.23c0 2.22-1.791 3.981-3.97 3.981s-3.971-1.797-3.971-3.981v-176.23h-706.48v384.09h710.48c2.214 0 3.971 1.797 3.971 3.981s-1.792 3.981-3.971 3.981h-714.46l-3.971-3.981v-388.07h-19.325l-3.971-3.981v-68.701l3.936-3.981z"/>
  </g>
  <g fill="#7700D1">
   <rect x="-517.65" y="449.05" width="770.01" height="54.81"/>
   <rect x="-360.36" y="427.68" width="554.26" height="53.12"/>
   <rect x="229.4" y="466.39" width="38.912" height="31.462"/>
   <rect x="229.4" y="451.4" width="38.912" height="10.569"/>
  </g>
  <path d="m188.02 427.9v-8.013c0.643-0.032 1.291-0.049 1.943-0.049h24.347c20.987 0 38 17.014 38 38v46.017h-8v-46.017c0-16.568-13.431-30-30-30h-24.347c-0.653 0-1.301 0.021-1.943 0.062z" clip-rule="evenodd" fill="#fff" fill-rule="evenodd"/>
 </g>
 <g clip-path="url(#clip1_2_581)">
  <mask id="path-55-inside-1_2_581" fill="white">
   <path d="m272.18 713.69h-184.05l-7.2592 7.266v184.23l3.1504 3.153v-36.177h11.432v-113.98h-6.8058v-40.29h45.495v10.388h96.847v-10.388h44.437v40.29h-10.507v113.98h10.507v37.04l4.012-4.016v-184.23l-7.259-7.266zm-28.396 198.77h-128.12v-14.533h128.12v14.533z" clip-rule="evenodd" fill-rule="evenodd"/>
  </mask>
  <path d="m272.18 713.69h-184.05l-7.2592 7.266v184.23l3.1504 3.153v-36.177h11.432v-113.98h-6.8058v-40.29h45.495v10.388h96.847v-10.388h44.437v40.29h-10.507v113.98h10.507v37.04l4.012-4.016v-184.23l-7.259-7.266zm-28.396 198.77h-128.12v-14.533h128.12v14.533z" clip-rule="evenodd" fill="#fff" fill-rule="evenodd"/>
  <path d="m88.135 713.69v-4h-1.658l-1.1718 1.173 2.8298 2.827zm184.05 0 2.83-2.827-1.172-1.173h-1.658v4zm-191.31 7.266-2.8299-2.827-1.1701 1.172v1.655h4zm0 184.23h-4v1.655l1.1701 1.172 2.8299-2.827zm3.1504 3.153-2.8298 2.827 6.8298 6.837v-9.664h-4zm0-36.177v-4h-4v4h4zm11.432 0v4h4v-4h-4zm0-113.98h4v-4h-4v4zm-6.8058 0h-4v4h4v-4zm0-40.29v-4h-4v4h4zm45.495 0h4v-4h-4v4zm0 10.388h-4v4h4v-4zm96.847 0v4h4v-4h-4zm0-10.388v-4h-4v4h4zm44.437 0h4v-4h-4v4zm0 40.29v4h4v-4h-4zm-10.507 0v-4h-4v4h4zm0 113.98h-4v4h4v-4zm10.507 0h4v-4h-4v4zm0 37.04h-4v9.663l6.83-6.837-2.83-2.826zm4.012-4.016 2.83 2.827 1.17-1.172v-1.655h-4zm0-184.23h4v-1.655l-1.17-1.172-2.83 2.827zm-163.77 191.5h-4v4h4v-4zm128.12 0v4h4v-4h-4zm-128.12-14.533v-4h-4v4h4zm128.12 0h4v-4h-4v4zm-155.65-180.23h184.05v-8h-184.05v8zm-4.4294 6.093 7.2592-7.266-5.6596-5.654-7.2593 7.266 5.6597 5.654zm1.1702 181.41v-184.23h-8v184.23h8zm1.9802 0.326-3.1504-3.153-5.6597 5.654 3.1505 3.153 5.6596-5.654zm-6.8298-33.35v36.177h8v-36.177h-8zm15.432-4h-11.432v8h11.432v-8zm-4-109.98v113.98h8v-113.98h-8zm4-4h-6.8058v8h6.8058v-8zm-2.8058 4v-40.29h-8v40.29h8zm-4-36.29h45.495v-8h-45.495v8zm41.495-4v10.388h8v-10.388h-8zm100.85 6.388h-96.847v8h96.847v-8zm-4-6.388v10.388h8v-10.388h-8zm48.437-4h-44.437v8h44.437v-8zm4 44.29v-40.29h-8v40.29h8zm-14.507 4h10.507v-8h-10.507v8zm4 109.98v-113.98h-8v113.98h8zm6.507-4h-10.507v8h10.507v-8zm4 41.04v-37.04h-8v37.04h8zm-2.818-6.843-4.012 4.016 5.66 5.653 4.012-4.015-5.66-5.654zm-1.17-181.41v184.23h8v-184.23h-8zm-6.089-4.439 7.259 7.266 5.66-5.654-7.259-7.266-5.66 5.654zm-153.68 199.94h128.12v-8h-128.12v8zm-4-18.533v14.533h8v-14.533h-8zm132.12-4h-128.12v8h128.12v-8zm4 18.533v-14.533h-8v14.533h8z" fill="#7700D1" mask="url(#path-55-inside-1_2_581)"/>
  <mask id="path-57-inside-2_2_581" fill="white">
   <path d="m135.98 795.69h87.469l7.541-7.339v-57.322c0-4.049-3.38-7.339-7.541-7.339s-7.542 3.29-7.542 7.339v49.856h-72.385v-49.856c0-4.049-3.381-7.339-7.542-7.339-4.16 0-7.541 3.29-7.541 7.339v57.322l7.541 7.339z" clip-rule="evenodd" fill-rule="evenodd"/>
  </mask>
  <path d="m135.98 795.69h87.469l7.541-7.339v-57.322c0-4.049-3.38-7.339-7.541-7.339s-7.542 3.29-7.542 7.339v49.856h-72.385v-49.856c0-4.049-3.381-7.339-7.542-7.339-4.16 0-7.541 3.29-7.541 7.339v57.322l7.541 7.339z" clip-rule="evenodd" fill="#fff" fill-rule="evenodd"/>
  <path d="m135.98 795.69-2.789 2.866 1.164 1.134h1.625v-4zm87.469 0v4h1.625l1.164-1.134-2.789-2.866zm7.541-7.339 2.79 2.866 1.21-1.178v-1.688h-4zm-15.083-7.466v4h4v-4h-4zm-72.385 0h-4v4h4v-4zm-15.083 7.466h-4v1.688l1.21 1.178 2.79-2.866zm36.108 3.339h-28.567v8h28.567v-8zm0 8h30.335v-8h-30.335v8zm30.335 0h28.567v-8h-28.567v8zm31.356-1.134 7.542-7.339-5.58-5.733-7.541 7.339 5.579 5.733zm8.752-10.205v-57.322h-8v57.322h8zm0-57.322c0-6.36-5.275-11.339-11.541-11.339v8c2.055 0 3.541 1.601 3.541 3.339h8zm-11.541-11.339c-6.267 0-11.542 4.979-11.542 11.339h8c0-1.738 1.487-3.339 3.542-3.339v-8zm-11.542 11.339v49.856h8v-49.856h-8zm4 45.856h-21.025v8h21.025v-8zm-21.025 0h-30.335v8h30.335v-8zm-51.36 8h21.025v-8h-21.025v8zm-4-53.856v49.856h8v-49.856h-8zm-3.542-3.339c2.055 0 3.542 1.601 3.542 3.339h8c0-6.36-5.275-11.339-11.542-11.339v8zm-3.541 3.339c0-1.738 1.486-3.339 3.541-3.339v-8c-6.266 0-11.541 4.979-11.541 11.339h8zm0 57.322v-57.322h-8v57.322h8zm6.331 4.472-7.541-7.339-5.58 5.733 7.542 7.339 5.579-5.733z" fill="#7700D1" mask="url(#path-57-inside-2_2_581)"/>
  <rect transform="matrix(-1 0 0 1 223.41 720.69)" x="-1.7543" y="1.7543" width="3.5086" height="10.491" fill="#fff" stroke="#fff" stroke-width="3.5086"/>
  <rect transform="matrix(-1 0 0 1 135.96 720.69)" x="-1.7886" y="1.7886" width="3.5771" height="10.423" fill="#fff" stroke="#fff" stroke-width="3.5771"/>
  <g clip-rule="evenodd" fill="#fff" fill-rule="evenodd">
   <path d="m219.9 724.46h17.53c17.231 0 31.2 13.969 31.2 31.2v9.703h6.8v-9.703c0-20.987-17.013-38-38-38h-19.272c-1.473 0-2.927 0.084-4.356 0.247h6.098v6.553z"/>
   <path d="m268.6 853.24v17.53c0 17.231-13.969 31.2-31.2 31.2h-7.74v6.8h7.74c20.987 0 38-17.013 38-38v-19.272c0-1.442-0.08-2.866-0.237-4.266v6.008h-6.563z"/>
   <path d="m91.655 853.24v17.53c0 17.231 13.969 31.2 31.2 31.2h7.74v6.8h-7.74c-20.987 0-38-17.013-38-38v-19.272c0-1.442 0.0804-2.866 0.2369-4.266v6.008h6.5631z"/>
   <path d="m140.38 724.46h-17.53c-17.231 0-31.2 13.969-31.2 31.2v9.703h-6.8v-9.703c0-20.987 17.013-38 38-38h19.272c1.473 0 2.927 0.084 4.356 0.247h-6.098v6.553z"/>
  </g>
 </g>
 <g clip-path="url(#clip2_2_581)">
  <mask id="path-65-inside-3_2_581" fill="white">
   <path d="m88.4 713.69h-184.05l-7.2589 7.266v184.23l3.1501 3.153v-36.177h11.432v-113.98h-6.8057v-40.29h45.495v10.388h96.847v-10.388h44.437v40.29h-10.506v113.98h10.506v37.04l4.0119-4.016v-184.23l-7.259-7.266zm-28.396 198.77h-128.12v-14.533h128.12v14.533z" clip-rule="evenodd" fill-rule="evenodd"/>
  </mask>
  <path d="m88.4 713.69h-184.05l-7.2589 7.266v184.23l3.1501 3.153v-36.177h11.432v-113.98h-6.8057v-40.29h45.495v10.388h96.847v-10.388h44.437v40.29h-10.506v113.98h10.506v37.04l4.0119-4.016v-184.23l-7.259-7.266zm-28.396 198.77h-128.12v-14.533h128.12v14.533z" clip-rule="evenodd" fill="#fff" fill-rule="evenodd"/>
  <path d="m-95.649 713.69v-4h-1.658l-1.1719 1.173 2.8299 2.827zm184.05 0 2.8298-2.827-1.1718-1.173h-1.658v4zm-191.31 7.266-2.83-2.827-1.17 1.172v1.655h4zm0 184.23h-4v1.655l1.17 1.172 2.83-2.827zm3.1501 3.153-2.8301 2.827 6.8301 6.837v-9.664h-4zm0-36.177v-4h-4.0001v4h4.0001zm11.432 0v4h4v-4h-4zm0-113.98h4v-4h-4v4zm-6.8057 0h-4v4h4v-4zm0-40.29v-4h-4v4h4zm45.495 0h4v-4h-4v4zm0 10.388h-4v4h4v-4zm96.847 0v4h4v-4h-4zm0-10.388v-4h-4v4h4zm44.437 0h4v-4h-4v4zm0 40.29v4h4v-4h-4zm-10.506 0v-4h-4v4h4zm0 113.98h-4v4h4v-4zm10.506 0h4v-4h-4v4zm0 37.04h-4v9.663l6.8299-6.837-2.8299-2.826zm4.0119-4.016 2.8299 2.827 1.1701-1.172v-1.655h-4zm0-184.23h4v-1.655l-1.1701-1.172-2.8299 2.827zm-163.77 191.5h-4v4h4v-4zm128.12 0v4h4v-4h-4zm-128.12-14.533v-4h-4v4h4zm128.12 0h4v-4h-4v4zm-155.65-180.23h184.05v-8h-184.05v8zm-4.4289 6.093 7.2587-7.266-5.6597-5.654-7.259 7.266 5.66 5.654zm1.1697 181.41v-184.23h-7.9997v184.23h7.9997zm1.9802 0.326-3.1499-3.153-5.66 5.654 3.15 3.153 5.6599-5.654zm-6.8299-33.35v36.177h8.0001v-36.177h-8.0001zm15.432-4h-11.432v8h11.432v-8zm-4-109.98v113.98h8v-113.98h-8zm4-4h-6.8057v8h6.8057v-8zm-2.8057 4v-40.29h-8v40.29h8zm-4-36.29h45.495v-8h-45.495v8zm41.495-4v10.388h8v-10.388h-8zm100.85 6.388h-96.847v8h96.847v-8zm-4-6.388v10.388h8v-10.388h-8zm48.437-4h-44.437v8h44.437v-8zm4 44.29v-40.29h-8v40.29h8zm-14.506 4h10.506v-8h-10.506v8zm4 109.98v-113.98h-8v113.98h8zm6.5065-4h-10.506v8h10.506v-8zm4 41.04v-37.04h-8v37.04h8zm-2.818-6.843-4.0119 4.016 5.6598 5.653 4.0119-4.015-5.6598-5.654zm-1.1701-181.41v184.23h8v-184.23h-8zm-6.0889-4.439 7.259 7.266 5.6598-5.654-7.2591-7.266-5.6597 5.654zm-153.68 199.94h128.12v-8h-128.12v8zm-4-18.533v14.533h8v-14.533h-8zm132.12-4h-128.12v8h128.12v-8zm4 18.533v-14.533h-8v14.533h8z" fill="#7700D1" mask="url(#path-65-inside-3_2_581)"/>
  <mask id="path-67-inside-4_2_581" fill="white">
   <path d="m-47.799 795.69h87.468l7.5415-7.339v-57.322c0-4.049-3.3807-7.339-7.5415-7.339-4.1609 0-7.5415 3.29-7.5415 7.339v49.856h-72.385v-49.856c0-4.049-3.3807-7.339-7.5415-7.339-4.1609 0-7.5415 3.29-7.5415 7.339v57.322l7.5415 7.339z" clip-rule="evenodd" fill-rule="evenodd"/>
  </mask>
  <path d="m-47.799 795.69h87.468l7.5415-7.339v-57.322c0-4.049-3.3807-7.339-7.5415-7.339-4.1609 0-7.5415 3.29-7.5415 7.339v49.856h-72.385v-49.856c0-4.049-3.3807-7.339-7.5415-7.339-4.1609 0-7.5415 3.29-7.5415 7.339v57.322l7.5415 7.339z" clip-rule="evenodd" fill="#fff" fill-rule="evenodd"/>
  <path d="m-47.799 795.69-2.7898 2.866 1.1647 1.134h1.6251v-4zm87.468 0v4h1.6251l1.1646-1.134-2.7897-2.866zm7.5415-7.339 2.7897 2.866 1.2103-1.178v-1.688h-4zm-15.083-7.466v4h4v-4h-4zm-72.385 0h-4v4h4v-4zm-15.083 7.466h-4v1.688l1.2102 1.178 2.7898-2.866zm36.108 3.339h-28.567v8h28.567v-8zm0 8h30.335v-8h-30.335v8zm30.335 0h28.567v-8h-28.567v8zm31.356-1.134 7.5415-7.339-5.5794-5.733-7.5415 7.339 5.5794 5.733zm8.7518-10.205v-57.322h-8v57.322h8zm0-57.322c0-6.36-5.2748-11.339-11.542-11.339v8c2.0549 0 3.5415 1.601 3.5415 3.339h8zm-11.542-11.339c-6.2668 0-11.542 4.979-11.542 11.339h8c0-1.738 1.4866-3.339 3.5415-3.339v-8zm-11.542 11.339v49.856h8v-49.856h-8zm4 45.856h-21.025v8h21.025v-8zm-21.025 0h-30.335v8h30.335v-8zm-51.36 8h21.025v-8h-21.025v8zm-4-53.856v49.856h8v-49.856h-8zm-3.5415-3.339c2.0549 0 3.5415 1.601 3.5415 3.339h8c0-6.36-5.2748-11.339-11.542-11.339v8zm-3.5415 3.339c0-1.738 1.4865-3.339 3.5415-3.339v-8c-6.2668 0-11.542 4.979-11.542 11.339h8zm0 57.322v-57.322h-8v57.322h8zm6.3312 4.472-7.5415-7.339-5.5795 5.733 7.5415 7.339 5.5795-5.733z" fill="#7700D1" mask="url(#path-67-inside-4_2_581)"/>
  <g fill="#fff">
   <rect transform="matrix(-1 0 0 1 39.626 720.69)" x="-1.7543" y="1.7543" width="3.5086" height="10.491" stroke="#fff" stroke-width="3.5086"/>
   <path d="m36.117 724.46h17.53c17.231 0 31.2 13.969 31.2 31.2v9.703h6.8v-9.703c0-20.987-17.013-38-38-38h-19.272c-1.4733 0-2.927 0.084-4.3566 0.247h6.0983v6.553z" clip-rule="evenodd" fill-rule="evenodd"/>
   <path d="m84.812 853.24v17.53c0 17.231-13.969 31.2-31.2 31.2h-7.7395v6.8h7.7395c20.987 0 38-17.013 38-38v-19.272c0-1.442-0.0804-2.866-0.2369-4.266v6.008h-6.5631z" clip-rule="evenodd" fill-rule="evenodd"/>
  </g>
 </g>
 <g fill="#fff" opacity=".2">
  <path d="m299.99 593c-0.797 0-1.454-0.656-1.454-1.454v-11.092c0-0.797 0.657-1.454 1.454-1.454s1.454 0.657 1.454 1.454v11.092c0 0.798-0.657 1.454-1.454 1.454z"/>
  <path d="m305.55 586.71h-11.092c-0.798 0-1.454-0.492-1.454-1.078 0-0.587 0.656-1.079 1.454-1.079h11.092c0.797 0 1.454 0.492 1.454 1.079 0 0.586-0.657 1.078-1.454 1.078z"/>
  <path d="m1617 416c-0.55 0-1-0.657-1-1.454v-11.093c0-0.797 0.45-1.453 1-1.453s1 0.656 1 1.453v11.093c0 0.797-0.45 1.454-1 1.454z"/>
  <path d="m1622.6 409.72h-11.1c-0.79 0-1.45-0.493-1.45-1.079s0.66-1.079 1.45-1.079h11.1c0.79 0 1.45 0.493 1.45 1.079s-0.66 1.079-1.45 1.079z"/>
 </g>
 <g clip-path="url(#clip3_2_581)" opacity=".05">
  <g fill="#fff">
   <path d="m2033.2 594.62h-269.9l-3.97 3.981v30.968l3.97 3.982h12.3v81.665c0 2.22 1.79 3.982 3.97 3.982s3.97-1.797 3.97-3.982v-35.971h229.31v247.32c0 2.22 1.79 3.981 3.97 3.981s3.97-1.797 3.97-3.981v-292.98h12.3l3.97-3.981v-30.968l-3.86-4.017zm-249.62 76.663v-14.867h229.31v14.867h-229.31zm229.31-22.865h-229.31v-14.832h229.31v14.832zm16.3-22.83h-261.88v-22.97h261.91v22.97h-0.03z"/>
   <path d="m1662.3 477v30.848l3.97 3.981h413.89l3.97-3.981v-84.027l-3.97-3.981h-359.46v7.962h355.49v76.065h-405.92v-26.867h-7.97z" clip-rule="evenodd" fill-rule="evenodd"/>
   <path d="m2427.2 461.84h-173.58c-2.21 0-3.97 1.796-3.97 3.981 0 2.219 1.8 3.981 3.97 3.981h169.61v60.668h-753.1v-60.633h169.61c2.21 0 3.97-1.797 3.97-3.981 0-2.22-1.79-3.981-3.97-3.981h-173.58l-3.97 3.981v68.666l3.97 3.981h19.32v176.23c0 2.219 1.79 3.981 3.97 3.981s3.97-1.797 3.97-3.981v-176.23h706.48v384.09h-710.48c-2.22 0-3.97 1.796-3.97 3.981 0 2.184 1.79 3.981 3.97 3.981h714.45l3.97-3.981v-388.07h19.33l3.97-3.981v-68.701l-3.94-3.981z"/>
  </g>
  <g fill="#7700D1">
   <rect transform="matrix(-1 0 0 1 2432.2 449.05)" width="770.01" height="54.81"/>
   <rect transform="matrix(-1 0 0 1 2274.9 427.68)" width="554.26" height="53.12"/>
   <rect transform="matrix(-1 0 0 1 1685.2 466.39)" width="38.912" height="31.462"/>
   <rect transform="matrix(-1 0 0 1 1685.2 451.4)" width="38.912" height="10.569"/>
  </g>
  <path d="m1726.6 427.9v-8.013c-0.64-0.032-1.29-0.049-1.94-0.049h-24.35c-20.99 0-38 17.013-38 38v46.017h8v-46.017c0-16.568 13.43-30 30-30h24.35c0.65 0 1.3 0.021 1.94 0.062z" clip-rule="evenodd" fill="#fff" fill-rule="evenodd"/>
 </g>
 <g clip-path="url(#clip4_2_581)">
  <mask id="path-84-inside-5_2_581" fill="white">
   <path d="m1642.4 713.69h184.05l7.26 7.266v184.23l-3.15 3.154v-36.177h-11.43v-113.98h6.8v-40.29h-45.49v10.388h-96.85v-10.388h-44.44v40.29h10.51v113.98h-10.51v37.039l-4.01-4.016v-184.23l7.26-7.266zm28.4 198.77h128.11v-14.533h-128.11v14.533z" clip-rule="evenodd" fill-rule="evenodd"/>
  </mask>
  <path d="m1642.4 713.69h184.05l7.26 7.266v184.23l-3.15 3.154v-36.177h-11.43v-113.98h6.8v-40.29h-45.49v10.388h-96.85v-10.388h-44.44v40.29h10.51v113.98h-10.51v37.039l-4.01-4.016v-184.23l7.26-7.266zm28.4 198.77h128.11v-14.533h-128.11v14.533z" clip-rule="evenodd" fill="#fff" fill-rule="evenodd"/>
  <path d="m1826.4 713.69v-4h1.66l1.17 1.173-2.83 2.827zm-184.05 0-2.83-2.827 1.17-1.173h1.66v4zm191.31 7.266 2.83-2.827 1.17 1.172v1.655h-4zm0 184.23h4v1.656l-1.17 1.171-2.83-2.827zm-3.15 3.154 2.83 2.827-6.83 6.837v-9.664h4zm0-36.177v-4h4v4h-4zm-11.43 0v4h-4v-4h4zm0-113.98h-4v-4h4v4zm6.8 0h4v4h-4v-4zm0-40.29v-4h4v4h-4zm-45.49 0h-4v-4h4v4zm0 10.388h4v4h-4v-4zm-96.85 0v4h-4v-4h4zm0-10.388v-4h4v4h-4zm-44.44 0h-4v-4h4v4zm0 40.29v4h-4v-4h4zm10.51 0v-4h4v4h-4zm0 113.98h4v4h-4v-4zm-10.51 0h-4v-4h4v4zm0 37.039h4v9.664l-6.83-6.837 2.83-2.827zm-4.01-4.016-2.83 2.827-1.17-1.171v-1.656h4zm0-184.23h-4v-1.655l1.17-1.172 2.83 2.827zm163.77 191.5h4v4h-4v-4zm-128.11 0v4h-4v-4h4zm128.11-14.533v-4h4v4h-4zm-128.11 0h-4v-4h4v4zm155.65-180.23h-184.05v-8h184.05v8zm4.43 6.093-7.26-7.266 5.66-5.654 7.26 7.266-5.66 5.654zm-1.17 181.41v-184.23h8v184.23h-8zm-1.98 0.327 3.15-3.154 5.66 5.654-3.15 3.154-5.66-5.654zm6.83-33.35v36.177h-8v-36.177h8zm-15.43-4h11.43v8h-11.43v-8zm4-109.98v113.98h-8v-113.98h8zm-4-4h6.8v8h-6.8v-8zm2.8 4v-40.29h8v40.29h-8zm4-36.29h-45.49v-8h45.49v8zm-41.49-4v10.388h-8v-10.388h8zm-100.85 6.388h96.85v8h-96.85v-8zm4-6.388v10.388h-8v-10.388h8zm-48.44-4h44.44v8h-44.44v-8zm-4 44.29v-40.29h8v40.29h-8zm14.51 4h-10.51v-8h10.51v8zm-4 109.98v-113.98h8v113.98h-8zm-6.51-4h10.51v8h-10.51v-8zm-4 41.039v-37.039h8v37.039h-8zm2.82-6.843 4.01 4.016-5.66 5.654-4.01-4.016 5.66-5.654zm1.17-181.41v184.23h-8v-184.23h8zm6.09-4.439-7.26 7.266-5.66-5.654 7.26-7.266 5.66 5.654zm153.68 199.94h-128.11v-8h128.11v8zm4-18.533v14.533h-8v-14.533h8zm-132.11-4h128.11v8h-128.11v-8zm-4 18.533v-14.533h8v14.533h-8z" fill="#7700D1" mask="url(#path-84-inside-5_2_581)"/>
  <mask id="path-86-inside-6_2_581" fill="white">
   <path d="m1778.6 795.69h-87.47l-7.54-7.339v-57.322c0-4.049 3.38-7.339 7.54-7.339s7.54 3.29 7.54 7.339v49.856h72.39v-49.856c0-4.049 3.38-7.339 7.54-7.339s7.54 3.29 7.54 7.339v57.322l-7.54 7.339z" clip-rule="evenodd" fill-rule="evenodd"/>
  </mask>
  <path d="m1778.6 795.69h-87.47l-7.54-7.339v-57.322c0-4.049 3.38-7.339 7.54-7.339s7.54 3.29 7.54 7.339v49.856h72.39v-49.856c0-4.049 3.38-7.339 7.54-7.339s7.54 3.29 7.54 7.339v57.322l-7.54 7.339z" clip-rule="evenodd" fill="#fff" fill-rule="evenodd"/>
  <path d="m1778.6 795.69 2.79 2.866-1.17 1.134h-1.62v-4zm-87.47 0v4h-1.62l-1.17-1.134 2.79-2.866zm-7.54-7.339-2.79 2.866-1.21-1.178v-1.688h4zm15.08-7.466v4h-4v-4h4zm72.39 0h4v4h-4v-4zm15.08 7.466h4v1.688l-1.21 1.178-2.79-2.866zm-36.11 3.339h28.57v8h-28.57v-8zm0 8h-30.33v-8h30.33v8zm-30.33 0h-28.57v-8h28.57v8zm-31.36-1.134-7.54-7.339 5.58-5.733 7.54 7.339-5.58 5.733zm-8.75-10.205v-57.322h8v57.322h-8zm0-57.322c0-6.36 5.27-11.339 11.54-11.339v8c-2.05 0-3.54 1.601-3.54 3.339h-8zm11.54-11.339c6.27 0 11.54 4.979 11.54 11.339h-8c0-1.738-1.48-3.339-3.54-3.339v-8zm11.54 11.339v49.856h-8v-49.856h8zm-4 45.856h21.03v8h-21.03v-8zm21.03 0h30.33v8h-30.33v-8zm51.36 8h-21.03v-8h21.03v8zm4-53.856v49.856h-8v-49.856h8zm3.54-3.339c-2.06 0-3.54 1.601-3.54 3.339h-8c0-6.36 5.27-11.339 11.54-11.339v8zm3.54 3.339c0-1.738-1.49-3.339-3.54-3.339v-8c6.27 0 11.54 4.979 11.54 11.339h-8zm0 57.322v-57.322h8v57.322h-8zm-6.33 4.472 7.54-7.339 5.58 5.733-7.54 7.339-5.58-5.733z" fill="#7700D1" mask="url(#path-86-inside-6_2_581)"/>
  <rect x="1689.4" y="722.45" width="3.5086" height="10.491" fill="#fff" stroke="#fff" stroke-width="3.5086"/>
  <rect x="1776.8" y="722.48" width="3.5771" height="10.423" fill="#fff" stroke="#fff" stroke-width="3.5771"/>
  <g clip-rule="evenodd" fill="#fff" fill-rule="evenodd">
   <path d="m1694.7 724.46h-17.53c-17.23 0-31.2 13.968-31.2 31.2v9.703h-6.8v-9.703c0-20.987 17.02-38 38-38h19.27c1.48 0 2.93 0.083 4.36 0.247h-6.1v6.553z"/>
   <path d="m1646 853.24v17.53c0 17.231 13.97 31.2 31.2 31.2h7.74v6.8h-7.74c-20.99 0-38-17.013-38-38v-19.272c0-1.442 0.08-2.866 0.23-4.266v6.008h6.57z"/>
   <path d="m1822.9 853.24v17.53c0 17.231-13.97 31.2-31.2 31.2h-7.74v6.8h7.74c20.99 0 38-17.013 38-38v-19.272c0-1.442-0.08-2.866-0.24-4.266v6.008h-6.56z"/>
   <path d="m1774.2 724.46h17.53c17.23 0 31.2 13.968 31.2 31.2v9.703h6.8v-9.703c0-20.987-17.01-38-38-38h-19.27c-1.48 0-2.93 0.083-4.36 0.247h6.1v6.553z"/>
  </g>
 </g>
 <g clip-path="url(#clip5_2_581)">
  <mask id="path-94-inside-7_2_581" fill="white">
   <path d="m1826.2 713.69h184.05l7.26 7.266v184.23l-3.15 3.154v-36.177h-11.43v-113.98h6.81v-40.29h-45.5v10.388h-96.85v-10.388h-44.43v40.29h10.5v113.98h-10.5v37.039l-4.02-4.016v-184.23l7.26-7.266zm28.4 198.77h128.12v-14.533h-128.12v14.533z" clip-rule="evenodd" fill-rule="evenodd"/>
  </mask>
  <path d="m1826.2 713.69h184.05l7.26 7.266v184.23l-3.15 3.154v-36.177h-11.43v-113.98h6.81v-40.29h-45.5v10.388h-96.85v-10.388h-44.43v40.29h10.5v113.98h-10.5v37.039l-4.02-4.016v-184.23l7.26-7.266zm28.4 198.77h128.12v-14.533h-128.12v14.533z" clip-rule="evenodd" fill="#fff" fill-rule="evenodd"/>
  <path d="m2010.2 713.69v-4h1.66l1.17 1.173-2.83 2.827zm-184.05 0-2.83-2.827 1.18-1.173h1.65v4zm191.31 7.266 2.83-2.827 1.17 1.172v1.655h-4zm0 184.23h4v1.656l-1.17 1.171-2.83-2.827zm-3.15 3.154 2.83 2.827-6.83 6.837v-9.664h4zm0-36.177v-4h4v4h-4zm-11.43 0v4h-4v-4h4zm0-113.98h-4v-4h4v4zm6.81 0h4v4h-4v-4zm0-40.29v-4h4v4h-4zm-45.5 0h-4v-4h4v4zm0 10.388h4v4h-4v-4zm-96.85 0v4h-4v-4h4zm0-10.388v-4h4v4h-4zm-44.43 0h-4v-4h4v4zm0 40.29v4h-4v-4h4zm10.5 0v-4h4v4h-4zm0 113.98h4v4h-4v-4zm-10.5 0h-4v-4h4v4zm0 37.039h4v9.664l-6.83-6.837 2.83-2.827zm-4.02-4.016-2.83 2.827-1.17-1.171v-1.656h4zm0-184.23h-4v-1.655l1.17-1.172 2.83 2.827zm163.78 191.5h4v4h-4v-4zm-128.12 0v4h-4v-4h4zm128.12-14.533v-4h4v4h-4zm-128.12 0h-4v-4h4v4zm155.65-180.23h-184.05v-8h184.05v8zm4.43 6.093-7.26-7.266 5.66-5.654 7.26 7.266-5.66 5.654zm-1.17 181.41v-184.23h8v184.23h-8zm-1.98 0.327 3.15-3.154 5.66 5.654-3.15 3.154-5.66-5.654zm6.83-33.35v36.177h-8v-36.177h8zm-15.43-4h11.43v8h-11.43v-8zm4-109.98v113.98h-8v-113.98h8zm-4-4h6.81v8h-6.81v-8zm2.81 4v-40.29h8v40.29h-8zm4-36.29h-45.5v-8h45.5v8zm-41.5-4v10.388h-8v-10.388h8zm-100.85 6.388h96.85v8h-96.85v-8zm4-6.388v10.388h-8v-10.388h8zm-48.43-4h44.43v8h-44.43v-8zm-4 44.29v-40.29h8v40.29h-8zm14.5 4h-10.5v-8h10.5v8zm-4 109.98v-113.98h8v113.98h-8zm-6.5-4h10.5v8h-10.5v-8zm-4 41.039v-37.039h8v37.039h-8zm2.81-6.843 4.02 4.016-5.66 5.654-4.02-4.016 5.66-5.654zm1.17-181.41v184.23h-8v-184.23h8zm6.09-4.439-7.26 7.266-5.66-5.654 7.26-7.266 5.66 5.654zm153.69 199.94h-128.12v-8h128.12v8zm4-18.533v14.533h-8v-14.533h8zm-132.12-4h128.12v8h-128.12v-8zm-4 18.533v-14.533h8v14.533h-8z" fill="#7700D1" mask="url(#path-94-inside-7_2_581)"/>
  <mask id="path-96-inside-8_2_581" fill="white">
   <path d="m1962.4 795.69h-87.46l-7.55-7.339v-57.322c0-4.049 3.38-7.339 7.55-7.339 4.16 0 7.54 3.29 7.54 7.339v49.856h72.38v-49.856c0-4.049 3.38-7.339 7.54-7.339s7.54 3.29 7.54 7.339v57.322l-7.54 7.339z" clip-rule="evenodd" fill-rule="evenodd"/>
  </mask>
  <path d="m1962.4 795.69h-87.46l-7.55-7.339v-57.322c0-4.049 3.38-7.339 7.55-7.339 4.16 0 7.54 3.29 7.54 7.339v49.856h72.38v-49.856c0-4.049 3.38-7.339 7.54-7.339s7.54 3.29 7.54 7.339v57.322l-7.54 7.339z" clip-rule="evenodd" fill="#fff" fill-rule="evenodd"/>
  <path d="m1962.4 795.69 2.79 2.866-1.16 1.134h-1.63v-4zm-87.46 0v4h-1.63l-1.16-1.134 2.79-2.866zm-7.55-7.339-2.79 2.866-1.21-1.178v-1.688h4zm15.09-7.466v4h-4v-4h4zm72.38 0h4v4h-4v-4zm15.08 7.466h4v1.688l-1.21 1.178-2.79-2.866zm-36.1 3.339h28.56v8h-28.56v-8zm0 8h-30.34v-8h30.34v8zm-30.34 0h-28.56v-8h28.56v8zm-31.35-1.134-7.55-7.339 5.58-5.733 7.54 7.339-5.57 5.733zm-8.76-10.205v-57.322h8v57.322h-8zm0-57.322c0-6.36 5.28-11.339 11.55-11.339v8c-2.06 0-3.55 1.601-3.55 3.339h-8zm11.55-11.339c6.26 0 11.54 4.979 11.54 11.339h-8c0-1.738-1.49-3.339-3.54-3.339v-8zm11.54 11.339v49.856h-8v-49.856h8zm-4 45.856h21.02v8h-21.02v-8zm21.02 0h30.34v8h-30.34v-8zm51.36 8h-21.02v-8h21.02v8zm4-53.856v49.856h-8v-49.856h8zm3.54-3.339c-2.05 0-3.54 1.601-3.54 3.339h-8c0-6.36 5.28-11.339 11.54-11.339v8zm3.54 3.339c0-1.738-1.48-3.339-3.54-3.339v-8c6.27 0 11.54 4.979 11.54 11.339h-8zm0 57.322v-57.322h8v57.322h-8zm-6.33 4.472 7.55-7.339 5.57 5.733-7.54 7.339-5.58-5.733z" fill="#7700D1" mask="url(#path-96-inside-8_2_581)"/>
  <g fill="#fff">
   <rect x="1873.2" y="722.45" width="3.5086" height="10.491" stroke="#fff" stroke-width="3.5086"/>
   <path d="m1878.4 724.46h-17.53c-17.23 0-31.2 13.968-31.2 31.2v9.703h-6.8v-9.703c0-20.987 17.01-38 38-38h19.27c1.47 0 2.93 0.083 4.36 0.247h-6.1v6.553z" clip-rule="evenodd" fill-rule="evenodd"/>
   <path d="m1829.8 853.24v17.53c0 17.231 13.97 31.2 31.2 31.2h7.74v6.8h-7.74c-20.98 0-38-17.013-38-38v-19.272c0-1.442 0.08-2.866 0.24-4.266v6.008h6.56z" clip-rule="evenodd" fill-rule="evenodd"/>
  </g>
 </g>
 <defs>
  <clipPath id="clip0_2_581">
   <rect transform="matrix(-1 0 0 1 380 408)" width="955" height="500" fill="#fff"/>
  </clipPath>
  <clipPath id="clip1_2_581">
   <rect transform="translate(85.284 718)" width="190" height="190" fill="#fff"/>
  </clipPath>
  <clipPath id="clip2_2_581">
   <rect transform="translate(-98.5 718)" width="190" height="190" fill="#fff"/>
  </clipPath>
  <clipPath id="clip3_2_581">
   <rect transform="translate(1534.6 408)" width="955" height="500" fill="#fff"/>
  </clipPath>
  <clipPath id="clip4_2_581">
   <rect transform="matrix(-1 0 0 1 1829.3 718)" width="190" height="190" fill="#fff"/>
  </clipPath>
  <clipPath id="clip5_2_581">
   <rect transform="matrix(-1 0 0 1 2013.1 718)" width="190" height="190" fill="#fff"/>
  </clipPath>
 </defs>
</svg>
