<svg width="80" height="42" viewBox="0 0 80 42" fill="none" xmlns="http://www.w3.org/2000/svg">
<g opacity="0.2">
<path d="M16.1882 41.4306H64.4572C72.7556 41.4306 79.4931 34.6864 79.4931 26.3797C79.4931 18.073 72.7556 11.3288 64.4572 11.3288C62.4419 11.3288 60.4661 11.7243 58.6483 12.4957C57.6407 9.6279 55.8822 7.03701 53.531 5.03945C50.3697 2.32989 46.339 0.826782 42.1701 0.826782C32.5282 0.826782 24.6842 8.67856 24.6842 18.3301C24.6842 19.5761 25.6919 20.565 26.9169 20.565C28.1419 20.565 29.1495 19.5563 29.1495 18.3301C29.1495 11.1508 34.9781 5.31634 42.1503 5.31634C48.5322 5.31634 53.9262 9.90478 54.9733 16.2139L58.4507 17.6972C60.229 16.471 62.2838 15.8183 64.4374 15.8183C70.2661 15.8183 74.9883 20.565 74.9883 26.3797C74.9883 32.2141 70.2463 36.941 64.4374 36.941H16.1487C14.9039 36.941 13.916 37.9497 13.916 39.1759C13.916 40.4021 14.9435 41.4306 16.1882 41.4306Z" fill="white"/>
<path d="M2.39784 32.2536H46.0632C47.3079 32.2536 48.2958 31.2449 48.2958 30.0187C48.2958 28.7727 47.2882 27.7838 46.0632 27.7838H2.39784C1.15308 27.7838 0.165176 28.7925 0.165176 30.0187C0.165176 31.2647 1.17284 32.2536 2.39784 32.2536Z" fill="white"/>
</g>
</svg>
