<svg width="81" height="42" viewBox="0 0 81 42" fill="none" xmlns="http://www.w3.org/2000/svg">
<g opacity="0.2">
<path d="M16.9965 41.4323H65.2655C73.5639 41.4323 80.3014 34.6881 80.3014 26.3814C80.3014 18.0747 73.5639 11.3305 65.2655 11.3305C63.2502 11.3305 61.2744 11.7261 59.4566 12.4974C58.449 9.62961 56.6905 7.03871 54.3393 5.04116C51.178 2.3316 47.1473 0.828491 42.9784 0.828491C33.3364 0.828491 25.4925 8.68027 25.4925 18.3318C25.4925 19.5778 26.5001 20.5667 27.7251 20.5667C28.9501 20.5667 29.9578 19.5581 29.9578 18.3318C29.9578 11.1525 35.7864 5.31805 42.9586 5.31805C49.3405 5.31805 54.7344 9.90649 55.7816 16.2156L59.259 17.6989C61.0373 16.4727 63.0921 15.8201 65.2457 15.8201C71.0744 15.8201 75.7966 20.5667 75.7966 26.3814C75.7966 32.2158 71.0546 36.9427 65.2457 36.9427H16.957C15.7122 36.9427 14.7243 37.9514 14.7243 39.1776C14.7243 40.4038 15.7517 41.4323 16.9965 41.4323Z" fill="white"/>
<path d="M3.20612 32.2553H46.8715C48.1162 32.2553 49.1041 31.2466 49.1041 30.0204C49.1041 28.7744 48.0965 27.7855 46.8715 27.7855H3.20612C1.96137 27.7855 0.973465 28.7942 0.973465 30.0204C0.973465 31.2664 1.98112 32.2553 3.20612 32.2553Z" fill="white"/>
</g>
</svg>
