<svg width="80" height="41" viewBox="0 0 80 41" fill="none" xmlns="http://www.w3.org/2000/svg">
<g opacity="0.2">
<path d="M16.1592 40.9417H64.4282C72.7266 40.9417 79.4641 34.1975 79.4641 25.8908C79.4641 17.5841 72.7266 10.8399 64.4282 10.8399C62.4129 10.8399 60.4371 11.2355 58.6193 12.0068C57.6117 9.13901 55.8532 6.54811 53.502 4.55056C50.3407 1.841 46.3101 0.337891 42.1411 0.337891C32.4992 0.337891 24.6552 8.18967 24.6552 17.8412C24.6552 19.0872 25.6629 20.0761 26.8879 20.0761C28.1129 20.0761 29.1205 19.0675 29.1205 17.8412C29.1205 10.6619 34.9492 4.82744 42.1213 4.82744C48.5032 4.82744 53.8972 9.41589 54.9443 15.725L58.4218 17.2083C60.2 15.9821 62.2548 15.3295 64.4085 15.3295C70.2371 15.3295 74.9593 20.0761 74.9593 25.8908C74.9593 31.7252 70.2173 36.4521 64.4085 36.4521H16.1197C14.8749 36.4521 13.887 37.4608 13.887 38.687C13.887 39.9132 14.9145 40.9417 16.1592 40.9417Z" fill="white"/>
<path d="M2.36884 31.7647H46.0342C47.2789 31.7647 48.2668 30.756 48.2668 29.5298C48.2668 28.2838 47.2592 27.2949 46.0342 27.2949H2.36884C1.12409 27.2949 0.136185 28.3036 0.136185 29.5298C0.136185 30.7758 1.14384 31.7647 2.36884 31.7647Z" fill="white"/>
</g>
</svg>
