<svg width="1624" height="507" viewBox="0 0 1624 507" fill="none" xmlns="http://www.w3.org/2000/svg">
<g opacity="0.05" clip-path="url(#clip0_51_349)">
<path d="M-118.581 192.622H151.311L155.282 196.603V227.572L151.311 231.553H139.013V313.219C139.013 315.438 137.221 317.2 135.043 317.2C132.864 317.2 131.072 315.403 131.072 313.219V277.248H-98.2367V524.57C-98.2367 526.79 -100.029 528.551 -102.207 528.551C-104.386 528.551 -106.178 526.755 -106.178 524.57V231.588H-118.476L-122.447 227.607V196.639L-118.581 192.622ZM131.037 269.285V254.418H-98.2719V269.285H131.037ZM-98.2719 246.42H131.037V231.588H-98.2719V246.42ZM-114.576 223.591H-102.278H135.007H147.306V200.62H-114.611V223.591H-114.576Z" fill="white"/>
<path fill-rule="evenodd" clip-rule="evenodd" d="M252.305 74.9997V105.848L248.335 109.829H-165.552L-169.522 105.848V21.8214L-165.552 17.8403H193.902V25.8026H-161.581V101.867H244.329V74.9997H252.305Z" fill="white"/>
<path d="M-512.65 59.8358H-339.07C-336.857 59.8358 -335.1 61.6326 -335.1 63.8169C-335.1 66.0365 -336.892 67.798 -339.07 67.798H-508.68V128.466H-489.354H225.101H244.427V67.8333H74.8169C72.6032 67.8333 70.8464 66.0365 70.8464 63.8522C70.8464 61.6326 72.6384 59.871 74.8169 59.871H248.397L252.368 63.8522V132.518L248.397 136.499H229.071V312.725C229.071 314.945 227.28 316.706 225.101 316.706C222.922 316.706 221.13 314.909 221.13 312.725V136.499H-485.348V520.589H225.136C227.35 520.589 229.107 522.386 229.107 524.57C229.107 526.754 227.315 528.551 225.136 528.551H-489.319L-493.29 524.57V136.499H-512.615L-516.586 132.518V63.8169L-512.65 59.8358Z" fill="white"/>
<rect x="-517.646" y="47.0474" width="770.013" height="54.81" fill="#7700D1"/>
<rect x="-360.36" y="25.6807" width="554.262" height="53.1196" fill="#7700D1"/>
<rect x="229.399" y="64.389" width="38.9119" height="31.4622" fill="#7700D1"/>
<rect x="229.399" y="49.4022" width="38.9119" height="10.5687" fill="#7700D1"/>
<path fill-rule="evenodd" clip-rule="evenodd" d="M188.015 25.9022V17.8892C188.658 17.8567 189.306 17.8403 189.958 17.8403H214.305C235.292 17.8403 252.305 34.8535 252.305 55.8403V101.857H244.305V55.8403C244.305 39.2718 230.874 25.8403 214.305 25.8403H189.958C189.305 25.8403 188.657 25.8612 188.015 25.9022Z" fill="white"/>
</g>
<g clip-path="url(#clip1_51_349)">
<mask id="path-9-inside-1_51_349" fill="white">
<path fill-rule="evenodd" clip-rule="evenodd" d="M272.184 311.693H88.1347L80.8755 318.959V503.193L84.0259 506.346V470.169H95.4581V356.192H88.6523V315.902H134.147V326.29H230.994V315.902H275.431V356.192H264.924V470.169H275.431V507.209L279.443 503.193V318.959L272.184 311.693ZM243.788 510.459H115.669V495.926H243.788V510.459Z"/>
</mask>
<path fill-rule="evenodd" clip-rule="evenodd" d="M272.184 311.693H88.1347L80.8755 318.959V503.193L84.0259 506.346V470.169H95.4581V356.192H88.6523V315.902H134.147V326.29H230.994V315.902H275.431V356.192H264.924V470.169H275.431V507.209L279.443 503.193V318.959L272.184 311.693ZM243.788 510.459H115.669V495.926H243.788V510.459Z" fill="white"/>
<path d="M88.1347 311.693V307.693H86.4767L85.3049 308.866L88.1347 311.693ZM272.184 311.693L275.014 308.866L273.842 307.693H272.184V311.693ZM80.8755 318.959L78.0456 316.132L76.8755 317.304V318.959H80.8755ZM80.8755 503.193H76.8755V504.848L78.0456 506.02L80.8755 503.193ZM84.0259 506.346L81.1961 509.173L88.0259 516.01V506.346H84.0259ZM84.0259 470.169V466.169H80.0259V470.169H84.0259ZM95.4581 470.169V474.169H99.4581V470.169H95.4581ZM95.4581 356.192H99.4581V352.192H95.4581V356.192ZM88.6523 356.192H84.6523V360.192H88.6523V356.192ZM88.6523 315.902V311.902H84.6523V315.902H88.6523ZM134.147 315.902H138.147V311.902H134.147V315.902ZM134.147 326.29H130.147V330.29H134.147V326.29ZM230.994 326.29V330.29H234.994V326.29H230.994ZM230.994 315.902V311.902H226.994V315.902H230.994ZM275.431 315.902H279.431V311.902H275.431V315.902ZM275.431 356.192V360.192H279.431V356.192H275.431ZM264.924 356.192V352.192H260.924V356.192H264.924ZM264.924 470.169H260.924V474.169H264.924V470.169ZM275.431 470.169H279.431V466.169H275.431V470.169ZM275.431 507.209H271.431V516.872L278.261 510.035L275.431 507.209ZM279.443 503.193L282.273 506.02L283.443 504.848V503.193H279.443ZM279.443 318.959H283.443V317.304L282.273 316.132L279.443 318.959ZM115.669 510.459H111.669V514.459H115.669V510.459ZM243.788 510.459V514.459H247.788V510.459H243.788ZM115.669 495.926V491.926H111.669V495.926H115.669ZM243.788 495.926H247.788V491.926H243.788V495.926ZM88.1347 315.693H272.184V307.693H88.1347V315.693ZM83.7053 321.786L90.9645 314.52L85.3049 308.866L78.0456 316.132L83.7053 321.786ZM84.8755 503.193V318.959H76.8755V503.193H84.8755ZM86.8557 503.519L83.7053 500.366L78.0456 506.02L81.1961 509.173L86.8557 503.519ZM80.0259 470.169V506.346H88.0259V470.169H80.0259ZM95.4581 466.169H84.0259V474.169H95.4581V466.169ZM91.4581 356.192V470.169H99.4581V356.192H91.4581ZM95.4581 352.192H88.6523V360.192H95.4581V352.192ZM92.6523 356.192V315.902H84.6523V356.192H92.6523ZM88.6523 319.902H134.147V311.902H88.6523V319.902ZM130.147 315.902V326.29H138.147V315.902H130.147ZM230.994 322.29H134.147V330.29H230.994V322.29ZM226.994 315.902V326.29H234.994V315.902H226.994ZM275.431 311.902H230.994V319.902H275.431V311.902ZM279.431 356.192V315.902H271.431V356.192H279.431ZM264.924 360.192H275.431V352.192H264.924V360.192ZM268.924 470.169V356.192H260.924V470.169H268.924ZM275.431 466.169H264.924V474.169H275.431V466.169ZM279.431 507.209V470.169H271.431V507.209H279.431ZM276.613 500.366L272.601 504.382L278.261 510.035L282.273 506.02L276.613 500.366ZM275.443 318.959V503.193H283.443V318.959H275.443ZM269.354 314.52L276.613 321.786L282.273 316.132L275.014 308.866L269.354 314.52ZM115.669 514.459H243.788V506.459H115.669V514.459ZM111.669 495.926V510.459H119.669V495.926H111.669ZM243.788 491.926H115.669V499.926H243.788V491.926ZM247.788 510.459V495.926H239.788V510.459H247.788Z" fill="#7700D1" mask="url(#path-9-inside-1_51_349)"/>
<mask id="path-11-inside-2_51_349" fill="white">
<path fill-rule="evenodd" clip-rule="evenodd" d="M135.984 393.693H164.551H194.886H223.453L230.994 386.354V329.032C230.994 324.983 227.614 321.693 223.453 321.693C219.292 321.693 215.911 324.983 215.911 329.032V378.888H194.886H164.551H143.526V329.032C143.526 324.983 140.145 321.693 135.984 321.693C131.824 321.693 128.443 324.983 128.443 329.032V386.354L135.984 393.693Z"/>
</mask>
<path fill-rule="evenodd" clip-rule="evenodd" d="M135.984 393.693H164.551H194.886H223.453L230.994 386.354V329.032C230.994 324.983 227.614 321.693 223.453 321.693C219.292 321.693 215.911 324.983 215.911 329.032V378.888H194.886H164.551H143.526V329.032C143.526 324.983 140.145 321.693 135.984 321.693C131.824 321.693 128.443 324.983 128.443 329.032V386.354L135.984 393.693Z" fill="white"/>
<path d="M135.984 393.693L133.195 396.559L134.359 397.693H135.984V393.693ZM223.453 393.693V397.693H225.078L226.242 396.559L223.453 393.693ZM230.994 386.354L233.784 389.22L234.994 388.042V386.354H230.994ZM215.911 378.888V382.888H219.911V378.888H215.911ZM143.526 378.888H139.526V382.888H143.526V378.888ZM128.443 386.354H124.443V388.042L125.653 389.22L128.443 386.354ZM164.551 389.693H135.984V397.693H164.551V389.693ZM164.551 397.693H194.886V389.693H164.551V397.693ZM194.886 397.693H223.453V389.693H194.886V397.693ZM226.242 396.559L233.784 389.22L228.204 383.487L220.663 390.826L226.242 396.559ZM234.994 386.354V329.032H226.994V386.354H234.994ZM234.994 329.032C234.994 322.672 229.719 317.693 223.453 317.693V325.693C225.508 325.693 226.994 327.294 226.994 329.032H234.994ZM223.453 317.693C217.186 317.693 211.911 322.672 211.911 329.032H219.911C219.911 327.294 221.398 325.693 223.453 325.693V317.693ZM211.911 329.032V378.888H219.911V329.032H211.911ZM215.911 374.888H194.886V382.888H215.911V374.888ZM194.886 374.888H164.551V382.888H194.886V374.888ZM143.526 382.888H164.551V374.888H143.526V382.888ZM139.526 329.032V378.888H147.526V329.032H139.526ZM135.984 325.693C138.039 325.693 139.526 327.294 139.526 329.032H147.526C147.526 322.672 142.251 317.693 135.984 317.693V325.693ZM132.443 329.032C132.443 327.294 133.929 325.693 135.984 325.693V317.693C129.718 317.693 124.443 322.672 124.443 329.032H132.443ZM132.443 386.354V329.032H124.443V386.354H132.443ZM138.774 390.826L131.233 383.487L125.653 389.22L133.195 396.559L138.774 390.826Z" fill="#7700D1" mask="url(#path-11-inside-2_51_349)"/>
<rect x="-1.75432" y="1.75432" width="3.50863" height="10.4914" transform="matrix(-1 0 0 1 223.41 318.693)" fill="white" stroke="white" stroke-width="3.50863"/>
<rect x="-1.78855" y="1.78855" width="3.57709" height="10.4229" transform="matrix(-1 0 0 1 135.957 318.693)" fill="white" stroke="white" stroke-width="3.57709"/>
<path fill-rule="evenodd" clip-rule="evenodd" d="M219.901 322.455H237.431C254.662 322.455 268.631 336.424 268.631 353.655V363.358H275.431V353.655C275.431 332.668 258.418 315.655 237.431 315.655H218.159C216.686 315.655 215.232 315.739 213.803 315.902H219.901V322.455Z" fill="white"/>
<path fill-rule="evenodd" clip-rule="evenodd" d="M268.596 451.237L268.596 468.767C268.596 485.998 254.627 499.967 237.396 499.967L229.656 499.967L229.656 506.767L237.396 506.767C258.383 506.767 275.396 489.754 275.396 468.767L275.396 449.495C275.396 448.053 275.316 446.629 275.159 445.229L275.159 451.237L268.596 451.237Z" fill="white"/>
<path fill-rule="evenodd" clip-rule="evenodd" d="M91.655 451.237L91.655 468.767C91.655 485.998 105.624 499.967 122.855 499.967L130.595 499.967L130.595 506.767L122.855 506.767C101.868 506.767 84.855 489.754 84.855 468.767L84.855 449.495C84.855 448.053 84.9354 446.629 85.0919 445.229L85.0919 451.237L91.655 451.237Z" fill="white"/>
<path fill-rule="evenodd" clip-rule="evenodd" d="M140.385 322.455H122.855C105.624 322.455 91.655 336.424 91.655 353.655V363.358H84.855V353.655C84.855 332.668 101.868 315.655 122.855 315.655H142.127C143.6 315.655 145.054 315.739 146.483 315.902H140.385V322.455Z" fill="white"/>
</g>
<g clip-path="url(#clip2_51_349)">
<mask id="path-19-inside-3_51_349" fill="white">
<path fill-rule="evenodd" clip-rule="evenodd" d="M88.4001 311.693H-95.6491L-102.908 318.959V503.193L-99.7579 506.346V470.169H-88.3258V356.192H-95.1315V315.902H-49.6365V326.29H47.2104V315.902H91.6472V356.192H81.1407V470.169H91.6472V507.209L95.6591 503.193V318.959L88.4001 311.693ZM60.0039 510.459H-68.1146V495.926H60.0039V510.459Z"/>
</mask>
<path fill-rule="evenodd" clip-rule="evenodd" d="M88.4001 311.693H-95.6491L-102.908 318.959V503.193L-99.7579 506.346V470.169H-88.3258V356.192H-95.1315V315.902H-49.6365V326.29H47.2104V315.902H91.6472V356.192H81.1407V470.169H91.6472V507.209L95.6591 503.193V318.959L88.4001 311.693ZM60.0039 510.459H-68.1146V495.926H60.0039V510.459Z" fill="white"/>
<path d="M-95.6491 311.693V307.693H-97.3071L-98.479 308.866L-95.6491 311.693ZM88.4001 311.693L91.2299 308.866L90.0581 307.693H88.4001V311.693ZM-102.908 318.959L-105.738 316.132L-106.908 317.304V318.959H-102.908ZM-102.908 503.193H-106.908V504.848L-105.738 506.02L-102.908 503.193ZM-99.7579 506.346L-102.588 509.173L-95.7579 516.01V506.346H-99.7579ZM-99.7579 470.169V466.169H-103.758V470.169H-99.7579ZM-88.3258 470.169V474.169H-84.3258V470.169H-88.3258ZM-88.3258 356.192H-84.3258V352.192H-88.3258V356.192ZM-95.1315 356.192H-99.1315V360.192H-95.1315V356.192ZM-95.1315 315.902V311.902H-99.1315V315.902H-95.1315ZM-49.6365 315.902H-45.6365V311.902H-49.6365V315.902ZM-49.6365 326.29H-53.6365V330.29H-49.6365V326.29ZM47.2104 326.29V330.29H51.2104V326.29H47.2104ZM47.2104 315.902V311.902H43.2104V315.902H47.2104ZM91.6472 315.902H95.6472V311.902H91.6472V315.902ZM91.6472 356.192V360.192H95.6472V356.192H91.6472ZM81.1407 356.192V352.192H77.1407V356.192H81.1407ZM81.1407 470.169H77.1407V474.169H81.1407V470.169ZM91.6472 470.169H95.6472V466.169H91.6472V470.169ZM91.6472 507.209H87.6472V516.872L94.4771 510.035L91.6472 507.209ZM95.6591 503.193L98.489 506.02L99.6591 504.848V503.193H95.6591ZM95.6591 318.959H99.6591V317.304L98.489 316.132L95.6591 318.959ZM-68.1146 510.459H-72.1146V514.459H-68.1146V510.459ZM60.0039 510.459V514.459H64.0039V510.459H60.0039ZM-68.1146 495.926V491.926H-72.1146V495.926H-68.1146ZM60.0039 495.926H64.0039V491.926H60.0039V495.926ZM-95.6491 315.693H88.4001V307.693H-95.6491V315.693ZM-100.078 321.786L-92.8193 314.52L-98.479 308.866L-105.738 316.132L-100.078 321.786ZM-98.9083 503.193V318.959H-106.908V503.193H-98.9083ZM-96.9281 503.519L-100.078 500.366L-105.738 506.02L-102.588 509.173L-96.9281 503.519ZM-103.758 470.169V506.346H-95.7579V470.169H-103.758ZM-88.3258 466.169H-99.7579V474.169H-88.3258V466.169ZM-92.3258 356.192V470.169H-84.3258V356.192H-92.3258ZM-88.3258 352.192H-95.1315V360.192H-88.3258V352.192ZM-91.1315 356.192V315.902H-99.1315V356.192H-91.1315ZM-95.1315 319.902H-49.6365V311.902H-95.1315V319.902ZM-53.6365 315.902V326.29H-45.6365V315.902H-53.6365ZM47.2104 322.29H-49.6365V330.29H47.2104V322.29ZM43.2104 315.902V326.29H51.2104V315.902H43.2104ZM91.6472 311.902H47.2104V319.902H91.6472V311.902ZM95.6472 356.192V315.902H87.6472V356.192H95.6472ZM81.1407 360.192H91.6472V352.192H81.1407V360.192ZM85.1407 470.169V356.192H77.1407V470.169H85.1407ZM91.6472 466.169H81.1407V474.169H91.6472V466.169ZM95.6472 507.209V470.169H87.6472V507.209H95.6472ZM92.8292 500.366L88.8173 504.382L94.4771 510.035L98.489 506.02L92.8292 500.366ZM91.6591 318.959V503.193H99.6591V318.959H91.6591ZM85.5702 314.52L92.8292 321.786L98.489 316.132L91.2299 308.866L85.5702 314.52ZM-68.1146 514.459H60.0039V506.459H-68.1146V514.459ZM-72.1146 495.926V510.459H-64.1146V495.926H-72.1146ZM60.0039 491.926H-68.1146V499.926H60.0039V491.926ZM64.0039 510.459V495.926H56.0039V510.459H64.0039Z" fill="#7700D1" mask="url(#path-19-inside-3_51_349)"/>
<mask id="path-21-inside-4_51_349" fill="white">
<path fill-rule="evenodd" clip-rule="evenodd" d="M-47.7994 393.693H-19.2328H11.1022H39.6689L47.2104 386.354V329.032C47.2104 324.983 43.8297 321.693 39.6689 321.693C35.508 321.693 32.1274 324.983 32.1274 329.032V378.888H11.1022H-19.2328H-40.2579V329.032C-40.2579 324.983 -43.6386 321.693 -47.7994 321.693C-51.9603 321.693 -55.3409 324.983 -55.3409 329.032V386.354L-47.7994 393.693Z"/>
</mask>
<path fill-rule="evenodd" clip-rule="evenodd" d="M-47.7994 393.693H-19.2328H11.1022H39.6689L47.2104 386.354V329.032C47.2104 324.983 43.8297 321.693 39.6689 321.693C35.508 321.693 32.1274 324.983 32.1274 329.032V378.888H11.1022H-19.2328H-40.2579V329.032C-40.2579 324.983 -43.6386 321.693 -47.7994 321.693C-51.9603 321.693 -55.3409 324.983 -55.3409 329.032V386.354L-47.7994 393.693Z" fill="white"/>
<path d="M-47.7994 393.693L-50.5892 396.559L-49.4245 397.693H-47.7994V393.693ZM39.6689 393.693V397.693H41.294L42.4586 396.559L39.6689 393.693ZM47.2104 386.354L50.0001 389.22L51.2104 388.042V386.354H47.2104ZM32.1274 378.888V382.888H36.1274V378.888H32.1274ZM-40.2579 378.888H-44.2579V382.888H-40.2579V378.888ZM-55.3409 386.354H-59.3409V388.042L-58.1307 389.22L-55.3409 386.354ZM-19.2328 389.693H-47.7994V397.693H-19.2328V389.693ZM-19.2328 397.693H11.1022V389.693H-19.2328V397.693ZM11.1022 397.693H39.6689V389.693H11.1022V397.693ZM42.4586 396.559L50.0001 389.22L44.4207 383.487L36.8792 390.826L42.4586 396.559ZM51.2104 386.354V329.032H43.2104V386.354H51.2104ZM51.2104 329.032C51.2104 322.672 45.9356 317.693 39.6689 317.693V325.693C41.7238 325.693 43.2104 327.294 43.2104 329.032H51.2104ZM39.6689 317.693C33.4021 317.693 28.1274 322.672 28.1274 329.032H36.1274C36.1274 327.294 37.614 325.693 39.6689 325.693V317.693ZM28.1274 329.032V378.888H36.1274V329.032H28.1274ZM32.1274 374.888H11.1022V382.888H32.1274V374.888ZM11.1022 374.888H-19.2328V382.888H11.1022V374.888ZM-40.2579 382.888H-19.2328V374.888H-40.2579V382.888ZM-44.2579 329.032V378.888H-36.2579V329.032H-44.2579ZM-47.7994 325.693C-45.7445 325.693 -44.2579 327.294 -44.2579 329.032H-36.2579C-36.2579 322.672 -41.5327 317.693 -47.7994 317.693V325.693ZM-51.3409 329.032C-51.3409 327.294 -49.8544 325.693 -47.7994 325.693V317.693C-54.0662 317.693 -59.3409 322.672 -59.3409 329.032H-51.3409ZM-51.3409 386.354V329.032H-59.3409V386.354H-51.3409ZM-45.0097 390.826L-52.5512 383.487L-58.1307 389.22L-50.5892 396.559L-45.0097 390.826Z" fill="#7700D1" mask="url(#path-21-inside-4_51_349)"/>
<rect x="-1.75432" y="1.75432" width="3.50863" height="10.4914" transform="matrix(-1 0 0 1 39.6259 318.693)" fill="white" stroke="white" stroke-width="3.50863"/>
<path fill-rule="evenodd" clip-rule="evenodd" d="M36.1172 322.455H53.6472C70.8785 322.455 84.8472 336.424 84.8472 353.655V363.358H91.6472V353.655C91.6472 332.668 74.634 315.655 53.6472 315.655H34.3755C32.9022 315.655 31.4485 315.739 30.0189 315.902H36.1172V322.455Z" fill="white"/>
<path fill-rule="evenodd" clip-rule="evenodd" d="M84.8121 451.237L84.8121 468.767C84.8121 485.998 70.8434 499.967 53.6121 499.967L45.8726 499.967L45.8726 506.767L53.6121 506.767C74.5989 506.767 91.6121 489.754 91.6121 468.767L91.6121 449.495C91.6121 448.053 91.5317 446.629 91.3752 445.229L91.3752 451.237L84.8121 451.237Z" fill="white"/>
</g>
<g opacity="0.2">
<path d="M299.988 190.999C299.191 190.999 298.534 190.343 298.534 189.545V178.453C298.534 177.656 299.191 176.999 299.988 176.999C300.785 176.999 301.442 177.656 301.442 178.453V189.545C301.442 190.343 300.785 190.999 299.988 190.999Z" fill="white"/>
<path d="M305.546 184.714H294.454C293.656 184.714 293 184.222 293 183.636C293 183.049 293.656 182.557 294.454 182.557H305.546C306.343 182.557 307 183.049 307 183.636C307 184.222 306.343 184.714 305.546 184.714Z" fill="white"/>
</g>
<g opacity="0.2">
<path d="M1617 13.9995C1616.45 13.9995 1616 13.3429 1616 12.5456V1.45345C1616 0.656128 1616.45 -0.000488281 1617 -0.000488281C1617.55 -0.000488281 1618 0.656128 1618 1.45345V12.5456C1618 13.3429 1617.55 13.9995 1617 13.9995Z" fill="white"/>
<path d="M1622.55 7.71458H1611.45C1610.66 7.71458 1610 7.22212 1610 6.63586C1610 6.04959 1610.66 5.55713 1611.45 5.55713H1622.55C1623.34 5.55713 1624 6.04959 1624 6.63586C1624 7.22212 1623.34 7.71458 1622.55 7.71458Z" fill="white"/>
</g>
<defs>
<clipPath id="clip0_51_349">
<rect width="955" height="500" fill="white" transform="matrix(-1 0 0 1 380 6.00012)"/>
</clipPath>
<clipPath id="clip1_51_349">
<rect width="190" height="190" fill="white" transform="translate(85.2838 316.004)"/>
</clipPath>
<clipPath id="clip2_51_349">
<rect width="190" height="190" fill="white" transform="translate(-98.5 316.004)"/>
</clipPath>
</defs>
</svg>
