<svg width="85" height="41" viewBox="0 0 85 41" fill="none" xmlns="http://www.w3.org/2000/svg">
<g opacity="0.2">
<path d="M2.40411 31.8224H46.0693C47.3141 31.8224 48.302 30.8138 48.302 29.5875C48.302 28.3415 47.2943 27.3527 46.0693 27.3527H2.40411C1.15936 27.3527 0.171449 28.3613 0.171449 29.5875C0.171449 30.8138 1.17912 31.8224 2.40411 31.8224Z" fill="white"/>
<path d="M21.1551 40.9994H69.4439C77.7423 40.9994 84.4797 34.2552 84.4797 25.9485C84.4797 17.6418 77.7423 10.8976 69.4439 10.8976C67.4286 10.8976 65.4527 11.2932 63.635 12.0645C62.6273 9.19673 60.8689 6.60586 58.5177 4.6083C55.3564 1.89874 51.3257 0.39563 47.1568 0.39563C41.2886 0.39563 35.8749 3.38207 32.6544 8.10896C30.8564 6.1114 27.8334 4.05451 23.0322 4.05451C15.8205 4.05451 9.97211 9.92852 9.97211 17.1276C9.97211 18.3736 10.9798 19.3625 12.2048 19.3625C13.4495 19.3625 14.4374 18.3539 14.4374 17.1276C14.4374 12.381 18.2903 8.54407 23.0124 8.54407C28.9398 8.54407 30.6588 13.1325 30.7181 13.3303V13.3105L34.9463 13.3699C36.8233 8.28696 41.7233 4.88518 47.1568 4.88518C53.5386 4.88518 58.9326 9.47363 59.9797 15.7827L63.4572 17.2661C65.2354 16.0399 67.2903 15.3872 69.4439 15.3872C75.2725 15.3872 79.9947 20.1338 79.9947 25.9485C79.9947 31.783 75.2527 36.5099 69.4439 36.5099H21.1551C19.9104 36.5099 18.9225 37.5185 18.9225 38.7447C18.9028 39.9907 19.9104 40.9994 21.1551 40.9994Z" fill="white"/>
</g>
</svg>
