<svg width="85" height="42" viewBox="0 0 85 42" fill="none" xmlns="http://www.w3.org/2000/svg">
<g opacity="0.2">
<path d="M2.61005 31.9632H46.2753C47.52 31.9632 48.5079 30.9545 48.5079 29.7283C48.5079 28.4823 47.5003 27.4934 46.2753 27.4934H2.61005C1.36529 27.4934 0.377381 28.5021 0.377381 29.7283C0.377381 30.9545 1.38505 31.9632 2.61005 31.9632Z" fill="white"/>
<path d="M21.3611 41.1402H69.6498C77.9482 41.1402 84.6857 34.3959 84.6857 26.0893C84.6857 17.7826 77.9482 11.0384 69.6498 11.0384C67.6345 11.0384 65.6587 11.4339 63.8409 12.2053C62.8333 9.33748 61.0748 6.7466 58.7236 4.74905C55.5623 2.03949 51.5317 0.536377 47.3627 0.536377C41.4946 0.536377 36.0809 3.52282 32.8603 8.2497C31.0623 6.25215 28.0393 4.19526 23.2381 4.19526C16.0264 4.19526 10.178 10.0693 10.178 17.2684C10.178 18.5144 11.1857 19.5033 12.4107 19.5033C13.6555 19.5033 14.6433 18.4946 14.6433 17.2684C14.6433 12.5217 18.4962 8.68482 23.2184 8.68482C29.1458 8.68482 30.8647 13.2733 30.924 13.471V13.4513L35.1522 13.5106C37.0292 8.42771 41.9292 5.02593 47.3627 5.02593C53.7446 5.02593 59.1385 9.61438 60.1857 15.9235L63.6631 17.4068C65.4413 16.1806 67.4962 15.5279 69.6498 15.5279C75.4784 15.5279 80.2006 20.2746 80.2006 26.0893C80.2006 31.9237 75.4587 36.6506 69.6498 36.6506H21.3611C20.1163 36.6506 19.1285 37.6593 19.1285 38.8855C19.1087 40.1315 20.1163 41.1402 21.3611 41.1402Z" fill="white"/>
</g>
</svg>
