<svg width="112" height="112" viewBox="0 0 112 112" fill="none" xmlns="http://www.w3.org/2000/svg">
<g clip-path="url(#clip0_9_116)">
<path d="M83.2526 36.3287C77.2416 36.3287 72.3576 41.2133 72.3576 47.2236V56.3747C72.3576 59.4963 73.9382 62.2095 76.0217 64.1281C76.1231 64.2215 76.2703 64.1902 76.3741 64.2804C76.3461 64.2804 74.9644 64.98 72.7708 66.0916C72.5865 66.1826 72.4221 66.3092 72.287 66.4641C72.152 66.619 72.0489 66.7989 71.9839 66.9939C71.9189 67.1889 71.8931 67.3951 71.9081 67.6C71.9231 67.805 71.9785 68.0049 72.0712 68.1883C72.164 68.3717 72.2921 68.5351 72.4483 68.6687C72.6044 68.8023 72.7855 68.9036 72.9811 68.9668C73.1767 69.0301 73.3828 69.0536 73.5876 69.0367C73.7925 69.0198 73.9919 68.9625 74.1745 68.8681C76.3798 67.7509 77.7899 67.0516 77.7899 67.0516L79.3637 66.2739C80.4004 66.6783 81.528 67.2204 83.2587 67.2761C83.3153 67.2792 83.3721 67.2792 83.4288 67.2761C85.3669 67.1299 86.3636 66.5926 87.3967 66.2249L88.8003 66.9115L88.6181 66.809C89.1169 67.1418 89.5565 67.3162 90.4896 67.7751C91.4227 68.234 92.6981 68.858 94.2752 69.6466C97.4144 71.2162 101.763 73.4587 106.944 76.3489C108.399 77.2629 108.889 78.5068 108.889 80.6267V82.0728C108.886 82.279 108.924 82.4835 109.001 82.6748C109.078 82.8661 109.192 83.0403 109.337 83.1871C109.481 83.3339 109.654 83.4505 109.844 83.53C110.034 83.6096 110.238 83.6504 110.444 83.6504C110.651 83.6504 110.855 83.6096 111.045 83.53C111.235 83.4505 111.408 83.3339 111.552 83.1871C111.697 83.0403 111.811 82.8661 111.888 82.6748C111.965 82.4835 112.003 82.279 112 82.0728V80.6267C112 77.8783 111.02 75.2203 108.585 73.6996C108.565 73.6867 108.545 73.674 108.524 73.662C103.259 70.7232 98.8493 68.4542 95.6667 66.8629C94.0753 66.0671 92.7882 65.4401 91.8629 64.9849C90.9375 64.5301 90.2167 64.1307 90.3498 64.2197C90.3419 64.2092 90.3338 64.1988 90.3256 64.1885C90.3714 64.1481 90.4382 64.1575 90.4835 64.1202C92.567 62.2015 94.1537 59.4884 94.1537 56.3667V47.2156C94.1537 41.205 89.2635 36.3207 83.2526 36.3207L83.2526 36.3287ZM83.2526 39.4398C87.5934 39.4398 91.0425 42.883 91.0425 47.2236V56.3747C91.0425 58.4289 89.9651 60.3846 88.3811 61.8434C86.8077 63.2923 84.7567 64.1345 83.289 64.1464C83.2869 64.146 83.285 64.1464 83.2828 64.1464C83.221 64.1436 83.1789 64.1028 83.1188 64.0966C81.6578 64.0531 79.6728 63.2631 78.13 61.8423C76.5459 60.3835 75.4686 58.4278 75.4686 56.3735V47.2225C75.4686 42.8819 78.9115 39.439 83.2524 39.439L83.2526 39.4398Z" fill="#4BB165"/>
<path d="M55.8359 27.9979C48.8693 27.9979 43.2092 33.6586 43.2092 40.6247V51.4649C43.2092 55.0642 45.0406 58.2091 47.4627 60.4398C47.676 60.6358 47.9452 60.7228 48.1675 60.9076L47.8516 61.0664C47.8516 61.0664 43.5923 63.1753 38.0564 66.0373C37.8749 66.131 37.7135 66.2594 37.5817 66.4155C37.4498 66.5716 37.35 66.7521 37.2879 66.9468C37.2258 67.1415 37.2027 67.3467 37.2198 67.5503C37.237 67.7539 37.2941 67.9521 37.3878 68.1336C37.4816 68.3152 37.6102 68.4765 37.7663 68.6083C37.9224 68.7402 38.103 68.8398 38.2977 68.9019C38.4924 68.964 38.6974 68.987 38.901 68.9699C39.1046 68.9527 39.3028 68.8958 39.4844 68.802C44.9962 65.9525 49.2309 63.8554 49.2309 63.8554L51.1632 62.9018C52.6555 63.6121 54.2066 64.0529 55.7448 64.0685C55.775 64.0688 55.8057 64.0996 55.8359 64.0996C55.8415 64.1 55.8425 64.0996 55.8481 64.0996C55.9047 64.1027 55.9615 64.1027 56.0182 64.0996C56.5178 64.0623 56.635 63.9036 57.0512 63.8258C58.2242 63.6734 59.3833 63.4484 60.5147 62.9083C60.5864 62.8772 60.7109 62.8614 60.7821 62.8365L62.5321 63.6937L62.3498 63.5907C62.8822 63.9457 63.4266 64.1774 64.5313 64.721C65.6359 65.2642 67.1461 66.0043 69.0156 66.9388C72.7411 68.8018 77.9027 71.4549 84.0547 74.8868C85.867 76.0264 86.4852 77.6287 86.4852 80.1975V81.9111C86.4823 82.1172 86.5204 82.3217 86.5973 82.513C86.6741 82.7043 86.7883 82.8785 86.933 83.0253C87.0777 83.1721 87.2502 83.2887 87.4404 83.3683C87.6306 83.4478 87.8346 83.4886 88.0408 83.4886C88.2469 83.4886 88.451 83.4478 88.6412 83.3683C88.8314 83.2887 89.0039 83.1721 89.1486 83.0253C89.2933 82.8785 89.4075 82.7043 89.4843 82.513C89.5612 82.3217 89.5993 82.1172 89.5964 81.9111V80.1975C89.5964 76.999 88.4838 73.9831 85.6892 72.2374C85.6673 72.2245 85.645 72.2121 85.6224 72.2002C79.3893 68.7214 74.1748 66.0385 70.4071 64.1547C68.5233 63.213 67.0015 62.4706 65.9045 61.9311C64.8076 61.3917 63.9764 60.9351 64.0755 61.0011C64.0172 60.9628 63.9563 60.9286 63.8933 60.8985L63.6867 60.7956C63.8475 60.6587 64.0472 60.5998 64.2032 60.4557C66.6252 58.225 68.4566 55.0801 68.4566 51.4809V40.6406C68.4566 33.6745 62.8025 28.0139 55.836 28.0139L55.8359 27.9979ZM55.8359 31.109C61.1324 31.109 65.3455 35.3283 65.3455 40.6247V51.4649C65.3455 53.9968 64.0173 56.3784 62.0946 58.149C60.1871 59.9055 57.7205 60.9337 55.8845 60.9502C55.8793 60.9508 55.8777 60.9502 55.8724 60.9502C55.8702 60.9499 55.8684 60.9502 55.8662 60.9502C55.8016 60.9474 55.7591 60.9127 55.696 60.9065C53.8685 60.8598 51.4511 59.8731 49.571 58.1417C47.6483 56.3712 46.3202 53.9895 46.3202 51.4577V40.6174C46.3202 35.3211 50.5391 31.1018 55.8358 31.1018L55.8359 31.109Z" fill="#373748"/>
<path d="M28.4618 36.3287C22.4508 36.3287 17.5668 41.2133 17.5668 47.2236V56.3747C17.5668 59.4964 19.1474 62.2095 21.2309 64.1282C21.3323 64.2215 21.4795 64.1902 21.5833 64.2804C21.5453 64.3116 12.5628 68.7526 4.51473 73.1402C2.14824 74.3237 -2.7538e-05 76.6472 -2.7538e-05 79.6473V81.9259C-0.00294272 82.132 0.0351392 82.3366 0.112005 82.5278C0.188871 82.7191 0.302988 82.8934 0.447724 83.0402C0.592459 83.187 0.764928 83.3035 0.955106 83.3831C1.14528 83.4627 1.34938 83.5035 1.55553 83.5035C1.76168 83.5035 1.96577 83.4627 2.15595 83.3831C2.34613 83.3035 2.5186 83.187 2.66333 83.0402C2.80807 82.8934 2.92219 82.7191 2.99905 82.5278C3.07592 82.3366 3.114 82.132 3.11108 81.9259V79.6473C3.11108 78.2606 4.37314 76.6896 5.90622 75.9224C5.92262 75.9124 5.93882 75.902 5.95483 75.8913C13.9582 71.5255 22.9991 67.0441 22.9991 67.0441L24.5729 66.2663C25.6096 66.6707 26.7372 67.2132 28.4679 67.2689C28.5245 67.272 28.5813 67.272 28.638 67.2689C30.5761 67.1227 31.5727 66.5854 32.6059 66.2177L34.0095 66.9043L33.8272 66.8014C34.3261 67.1343 34.7657 67.3086 35.6988 67.7675C36.6319 68.2264 37.9073 68.8504 39.4844 69.6391C42.6236 71.2086 46.9717 73.4511 52.1536 76.3413C53.6086 77.2554 54.0981 78.4992 54.0981 80.6191V82.0653C54.0952 82.2714 54.1332 82.4759 54.2101 82.6672C54.287 82.8585 54.4011 83.0327 54.5458 83.1795C54.6906 83.3263 54.863 83.4429 55.0532 83.5225C55.2434 83.602 55.4475 83.6429 55.6536 83.6429C55.8598 83.6429 56.0639 83.602 56.2541 83.5225C56.4442 83.4429 56.6167 83.3263 56.7614 83.1795C56.9062 83.0327 57.0203 82.8585 57.0972 82.6672C57.174 82.4759 57.2121 82.2714 57.2092 82.0653V80.6191C57.2092 77.8707 56.229 75.2127 53.7943 73.692C53.7743 73.6791 53.754 73.6668 53.7335 73.6548C48.4678 70.716 44.0524 68.4467 40.8698 66.8553C39.2785 66.0595 37.9974 65.4325 37.072 64.9773C36.1467 64.5225 35.4258 64.1231 35.559 64.2121C35.5511 64.2016 35.543 64.1912 35.5348 64.1809C35.5806 64.1405 35.6474 64.1499 35.6927 64.1126C37.7762 62.194 39.3629 59.4808 39.3629 56.3591V47.2081C39.3629 41.1974 34.4727 36.3131 28.4618 36.3131L28.4618 36.3287ZM28.4618 39.4398C32.8026 39.4398 36.2517 42.883 36.2517 47.2236V56.3747C36.2517 58.429 35.1683 60.3846 33.5842 61.8434C32.0109 63.2923 29.9659 64.1346 28.4982 64.1464C28.4961 64.1461 28.4943 64.1464 28.4922 64.1464C28.4303 64.1436 28.3882 64.1029 28.3281 64.0966C26.8671 64.0531 24.8821 63.2631 23.3394 61.8423C21.7553 60.3835 20.6779 58.4278 20.6779 56.3735V47.2225C20.6779 42.8819 24.1208 39.439 28.4618 39.439L28.4618 39.4398Z" fill="#4BB165"/>
</g>
<defs>
<clipPath id="clip0_9_116">
<rect width="112" height="112" fill="white"/>
</clipPath>
</defs>
</svg>
