<svg width="112" height="112" viewBox="0 0 112 112" fill="none" xmlns="http://www.w3.org/2000/svg">
<path d="M31.5547 41.5848C30.9777 41.5848 30.567 41.8617 30.3151 42.1256C30.0632 42.39 29.9025 42.6811 29.8472 43.1039L28.6319 50.3348L22.7439 46.0934C22.3563 45.7948 22.0413 45.7348 21.6988 45.7289C21.3563 45.7289 20.9153 45.7693 20.4653 46.2089C20.4612 46.2089 20.4572 46.2089 20.4531 46.2089L10.8585 55.8031C10.8543 55.8135 10.8503 55.8239 10.8463 55.8343C10.421 56.2711 10.3586 56.7263 10.3663 57.0739C10.3739 57.4173 10.4415 57.7249 10.7126 58.0886C10.716 58.0886 10.7153 58.0886 10.7187 58.0886L14.9722 63.9827L7.6866 65.2101L7.94181 65.179C7.36098 65.179 6.9953 65.4187 6.72653 65.6894C6.45779 65.9787 6.22222 66.3423 6.22222 66.9172V80.4493C6.22222 81.0243 6.49566 81.433 6.75694 81.6828C7.01352 81.9286 7.2934 82.0799 7.68663 82.1447H7.6927C7.69786 82.1456 7.69964 82.1447 7.70486 82.1447L14.9844 83.366L10.7188 89.3448C10.4317 89.724 10.3739 90.0268 10.3663 90.3721C10.3588 90.7174 10.4091 91.1872 10.8767 91.6421L20.4349 101.121C20.4393 101.121 20.4426 101.123 20.4471 101.121C20.8895 101.567 21.3635 101.635 21.7109 101.626C22.0619 101.626 22.3734 101.551 22.75 101.261L28.632 97.0743L29.8472 104.226C29.8981 104.667 30.0671 104.969 30.3212 105.235C30.5753 105.502 30.9777 105.77 31.5547 105.77H45.0807C45.6558 105.77 46.068 105.496 46.3203 105.229C46.5727 104.961 46.7332 104.671 46.7882 104.251L47.9427 97.0014L53.9705 101.267C53.9725 101.269 53.9745 101.265 53.9767 101.267C54.3492 101.55 54.6608 101.617 55.0097 101.626C55.3604 101.626 55.8334 101.572 56.2797 101.115L65.7649 91.636C66.2316 91.1821 66.2826 90.7123 66.2753 90.366C66.2682 90.0216 66.2027 89.7168 65.9168 89.3391L61.6512 83.3599L68.955 82.1325L68.6937 82.1636C69.2746 82.1636 69.6403 81.9239 69.909 81.6532C70.1778 81.3826 70.4134 81.019 70.4134 80.444V66.9119C70.4134 66.337 70.146 65.934 69.8847 65.6845C69.6234 65.4356 69.3355 65.2731 68.9307 65.2105L61.7241 64.0499L65.9168 58.0951C66.2039 57.7161 66.2678 57.4074 66.2753 57.0621C66.2828 56.7167 66.2326 56.2533 65.7649 55.7982L56.2736 46.2218C56.2656 46.2113 56.2576 46.2009 56.2493 46.1907C55.8003 45.7539 55.3642 45.705 55.0219 45.7106C54.6796 45.7106 54.3583 45.7759 53.9707 46.0752L48.0098 50.3287L46.7945 43.1099C46.7438 42.671 46.575 42.3689 46.3205 42.1016C46.066 41.8341 45.656 41.5665 45.0809 41.5665H31.5549L31.5547 41.5848ZM32.7335 44.6959H43.9019L45.3542 53.3183C45.398 53.5782 45.5071 53.823 45.6714 54.0292C45.8357 54.2354 46.0496 54.3962 46.2932 54.4971C46.5368 54.5979 46.8021 54.6351 47.064 54.6053C47.326 54.5755 47.5761 54.4799 47.7908 54.3269L54.888 49.2592L62.7569 57.1889L57.75 64.2983C57.5969 64.5139 57.5013 64.7651 57.4722 65.0278C57.4431 65.2906 57.4814 65.5565 57.5835 65.8003C57.6857 66.0442 57.8483 66.2577 58.0561 66.4212C58.2638 66.5848 58.5098 66.6929 58.7708 66.7349L67.3021 68.1082V79.2644L58.6797 80.7167C58.4197 80.7605 58.1751 80.8696 57.9689 81.0338C57.7627 81.1981 57.6016 81.4119 57.5007 81.6555C57.3999 81.8991 57.3626 82.1645 57.3924 82.4264C57.4222 82.6884 57.5181 82.9386 57.671 83.1533L62.7448 90.2627L54.8941 98.1195L47.6996 93.0335C47.4837 92.8818 47.2328 92.7874 46.9704 92.7593C46.708 92.7313 46.4428 92.7706 46.1997 92.8733C45.9567 92.976 45.7437 93.1388 45.5809 93.3465C45.4181 93.5541 45.3108 93.7999 45.2691 94.0605L43.8898 102.671H32.7274L31.2812 94.1273C31.2369 93.8683 31.1278 93.6248 30.9639 93.4194C30.8 93.214 30.5868 93.0534 30.3441 92.9527C30.1014 92.8519 29.8372 92.8146 29.576 92.8437C29.3149 92.8727 29.0654 92.9671 28.8507 93.1186L21.8203 98.1195L13.8906 90.2566L18.9644 83.1533C19.1174 82.9386 19.2132 82.6884 19.243 82.4264C19.2728 82.1645 19.2355 81.8991 19.1347 81.6555C19.0338 81.4119 18.8727 81.1981 18.6665 81.0338C18.4603 80.8696 18.2157 80.7605 17.9557 80.7167L9.33333 79.2644V68.1021L17.9557 66.6499C18.2162 66.6057 18.4612 66.4962 18.6675 66.3312C18.8738 66.1662 19.0347 65.9513 19.135 65.7069C19.2353 65.4625 19.2717 65.1964 19.2408 64.934C19.2099 64.6717 19.1127 64.4216 18.9583 64.2072L13.8906 57.1828L21.8142 49.2592L28.8385 54.3269C29.0534 54.4828 29.3046 54.5812 29.5682 54.6125C29.8318 54.6439 30.099 54.6073 30.3444 54.5062C30.5899 54.4051 30.8054 54.2428 30.9704 54.0349C31.1354 53.827 31.2445 53.5802 31.2873 53.3183L32.7335 44.6959ZM38.3602 60.1967C30.9174 60.1967 24.8342 66.2798 24.8342 73.7228C24.8342 81.1655 30.9302 87.1698 38.3602 87.1698C45.7902 87.1698 51.8012 81.1527 51.8012 73.7228C51.8012 66.2928 45.8031 60.1967 38.3602 60.1967ZM38.3602 63.3078C44.1147 63.3078 48.6901 67.9554 48.6901 73.7228C48.6901 79.4902 44.1275 84.0587 38.3602 84.0587C32.5929 84.0587 27.9453 79.4771 27.9453 73.7228C27.9453 67.9682 32.6058 63.3078 38.3602 63.3078Z" fill="#2B4255"/>
<path d="M76.7326 6.22012C76.1626 6.22012 75.7669 6.49066 75.5234 6.74858C75.2812 7.00369 75.1216 7.2796 75.0677 7.69649C75.0674 7.69867 75.068 7.69649 75.0677 7.69649L74.2838 12.3571L70.5043 9.62879C70.1341 9.33945 69.8308 9.27825 69.4896 9.27047C69.1484 9.27047 68.6849 9.32334 68.25 9.76854L61.1953 16.8232C61.1892 16.8232 61.1831 16.8232 61.1769 16.8232C60.7579 17.2547 60.7021 17.6963 60.7091 18.0326C60.7159 18.3668 60.7819 18.6739 61.0737 19.0472C61.0752 19.0494 61.0721 19.0472 61.0737 19.0472L63.7959 22.8206L59.0806 23.6164L59.3358 23.5853C58.7631 23.5853 58.4105 23.8219 58.1509 24.0836C57.8913 24.3449 57.6587 24.6927 57.6587 25.2624V35.2277C57.6587 35.7948 57.9227 36.1894 58.1752 36.4308C58.4277 36.6703 58.7003 36.8252 59.0927 36.8865L63.8141 37.6765L61.0736 41.5167C60.7675 41.9056 60.7159 42.2047 60.7091 42.5376C60.7022 42.8705 60.7415 43.3262 61.2195 43.7832L68.2499 50.7528C68.6872 51.203 69.1486 51.2589 69.4894 51.2511C69.8303 51.2511 70.1327 51.1829 70.5042 50.8926L74.2837 48.2068L75.0797 52.8853L75.0676 52.7892C75.1142 53.2319 75.2825 53.5265 75.5294 53.7853C75.7763 54.0436 76.1652 54.3018 76.7325 54.3018H86.7039C87.2739 54.3018 87.6696 54.0376 87.9131 53.7796C88.1535 53.5245 88.3076 53.2493 88.3627 52.8374L89.1101 48.1465L92.9929 50.893C93.3631 51.1823 93.6662 51.2438 94.0077 51.2519C94.3492 51.2519 94.8113 51.2022 95.2473 50.7536L102.241 43.7597C102.247 43.7494 102.254 43.739 102.26 43.7285C102.679 43.297 102.734 42.8614 102.727 42.5254C102.721 42.1891 102.659 41.8804 102.363 41.5046L99.6224 37.6643L104.362 36.8744L104.101 36.9055C104.646 36.9055 105.01 36.6848 105.28 36.4198C105.55 36.1896 105.778 35.8097 105.778 35.2653V25.3C105.778 24.7328 105.514 24.3383 105.261 24.0969C105.01 23.8573 104.739 23.7032 104.35 23.6409H104.344L99.6769 22.8878L102.363 19.0717C102.669 18.6825 102.72 18.3777 102.727 18.0448C102.734 17.7119 102.695 17.2619 102.217 16.8052L95.2472 9.77481C94.8099 9.32463 94.3489 9.26865 94.0077 9.27673C93.6665 9.27673 93.3603 9.34507 92.9868 9.64094L89.1526 12.3753L88.3566 7.64219L88.3688 7.73865C88.3221 7.29594 88.1539 7.00096 87.9069 6.74212C87.66 6.4839 87.2712 6.21936 86.7038 6.21936H76.7325L76.7326 6.22012ZM77.954 9.33123H85.4826L86.4974 15.3469C86.5412 15.6068 86.6504 15.8514 86.8146 16.0576C86.9789 16.2638 87.1929 16.4248 87.4365 16.5257C87.6801 16.6265 87.9453 16.6639 88.2072 16.6341C88.4692 16.6043 88.7193 16.5083 88.934 16.3553L93.8863 12.8191L99.197 18.1724L95.7031 23.1307C95.55 23.3463 95.4544 23.5975 95.4253 23.8603C95.3962 24.123 95.4345 24.3889 95.5367 24.6327C95.6388 24.8766 95.8015 25.0905 96.0092 25.254C96.2169 25.4176 96.4629 25.5253 96.7239 25.5673L102.667 26.5213V34.0561L96.6571 35.0647C96.3971 35.1085 96.1525 35.2176 95.9463 35.3819C95.7401 35.5461 95.579 35.7603 95.4782 36.0039C95.3773 36.2475 95.34 36.5125 95.3698 36.7745C95.3996 37.0364 95.4955 37.2866 95.6484 37.5014L99.1849 42.4536L93.8863 47.7522L88.8672 44.2036C88.6513 44.0519 88.4003 43.9575 88.1379 43.9294C87.8755 43.9014 87.6103 43.9407 87.3673 44.0434C87.1242 44.1461 86.9113 44.3089 86.7484 44.5166C86.5856 44.7242 86.4783 44.97 86.4366 45.2305L85.4766 51.2279H77.9479L76.9392 45.2792C76.8954 45.0192 76.7863 44.7744 76.622 44.5682C76.4577 44.362 76.2438 44.2012 76.0002 44.1003C75.7566 43.9995 75.4913 43.9619 75.2294 43.9917C74.9674 44.0215 74.7173 44.1175 74.5026 44.2705L69.605 47.7522L64.2517 42.4476L67.7882 37.5014C67.9411 37.2866 68.037 37.0364 68.0668 36.7745C68.0966 36.5125 68.0593 36.2475 67.9584 36.0039C67.8576 35.7603 67.6965 35.5461 67.4903 35.3819C67.2841 35.2176 67.0395 35.1085 66.7795 35.0647L60.77 34.0561V26.5092L66.7795 25.5005C67.0405 25.4572 67.2862 25.3481 67.4932 25.1834C67.7003 25.0187 67.862 24.804 67.963 24.5594C68.0639 24.3149 68.1009 24.0486 68.0703 23.7858C68.0397 23.523 67.9426 23.2724 67.7882 23.0576L64.2578 18.1663L69.605 12.8191L74.4965 16.3495C74.7109 16.5038 74.9611 16.6011 75.2235 16.632C75.4858 16.6629 75.7518 16.6264 75.9962 16.5261C76.2405 16.4257 76.4554 16.2649 76.6204 16.0586C76.7854 15.8522 76.8951 15.6073 76.9392 15.3469L77.954 9.33123ZM81.7517 19.9343C76.0453 19.9343 71.3733 24.6066 71.3733 30.313C71.3733 36.0194 76.0583 40.6307 81.7517 40.6307C87.4452 40.6307 92.0634 36.0067 92.0634 30.313C92.0634 24.6197 87.4581 19.9343 81.7517 19.9343ZM81.7517 23.0455C85.7696 23.0455 88.9522 26.2823 88.9522 30.313C88.9522 34.3441 85.7826 37.5196 81.7517 37.5196C77.7209 37.5196 74.4844 34.331 74.4844 30.313C74.4844 26.295 77.7338 23.0455 81.7517 23.0455Z" fill="#4BB165"/>
</svg>
