<svg width="112" height="112" viewBox="0 0 112 112" fill="none" xmlns="http://www.w3.org/2000/svg">
<path d="M66.3541 27.9979C66.0604 27.9919 65.771 28.0692 65.5194 28.2208C65.2677 28.3724 65.0642 28.5922 64.9323 28.8547L57.7743 43.0977L50.5312 44.1003C50.2879 44.1335 50.0559 44.2235 49.8542 44.3635C49.6525 44.5035 49.4868 44.6895 49.3706 44.9058C49.2544 45.1221 49.1911 45.3629 49.1858 45.6084C49.1806 45.8539 49.2335 46.0971 49.3402 46.3182L51.9227 51.6472C52.0332 51.8739 52.1971 52.0703 52.4003 52.2195C52.6036 52.3688 52.84 52.4664 53.0894 52.504L66.585 54.5639L56.7352 64.0248C56.5537 64.1996 56.4174 64.416 56.338 64.6552C56.2586 64.8944 56.2385 65.1494 56.2795 65.3981L57.2639 71.3955C57.3037 71.6376 57.4002 71.8669 57.5455 72.0646C57.6909 72.2623 57.881 72.4227 58.1002 72.5329C58.3194 72.6431 58.5617 72.6997 58.807 72.6985C59.0524 72.6972 59.294 72.6381 59.5121 72.5257L66.0382 69.1593L80.0868 76.6758C80.3426 76.812 80.6313 76.8739 80.9204 76.8547C81.2095 76.8356 81.4876 76.7363 81.7232 76.5676C81.9588 76.3989 82.1426 76.1678 82.2539 75.9003C82.3653 75.6328 82.3997 75.3395 82.3533 75.0534L79.7769 59.3277L91.2673 48.2869C91.4772 48.0858 91.6266 47.83 91.6984 47.5483C91.7702 47.2666 91.7617 46.9701 91.6738 46.693C91.5858 46.4159 91.422 46.1693 91.2009 45.9806C90.9798 45.7918 90.7102 45.6688 90.4227 45.6255L74.6666 43.2253L67.7213 28.879C67.5969 28.6203 67.4033 28.401 67.162 28.2455C66.9207 28.09 66.6411 28.0043 66.3541 27.9979ZM66.2994 33.0777L72.2239 45.3156C72.3344 45.5423 72.4983 45.7387 72.7015 45.8879C72.9048 46.0372 73.1412 46.1348 73.3906 46.1724L86.8437 48.2262L77.0303 57.6507C76.8488 57.8255 76.7125 58.0419 76.6331 58.2811C76.5537 58.5203 76.5337 58.7752 76.5746 59.0239L78.7743 72.4467L66.7856 66.03C66.5627 65.91 66.314 65.846 66.0609 65.8439C65.8079 65.8418 65.5581 65.9016 65.3333 66.0178L59.9861 68.7765L59.4817 65.7019L71.0086 54.6246C71.2185 54.4235 71.3677 54.1676 71.4395 53.886C71.5113 53.6043 71.5027 53.3081 71.4148 53.0311C71.3269 52.754 71.1631 52.507 70.942 52.3183C70.7209 52.1295 70.4514 52.0065 70.164 51.9632L54.3654 49.5569L53.0711 46.8894L59.0139 46.0691C59.2642 46.0346 59.5023 45.9398 59.7077 45.7926C59.9131 45.6454 60.0796 45.4504 60.1927 45.2244L66.2994 33.0777H66.2994Z" fill="#4BB165"/>
<path d="M45.7194 34.3136C45.4825 34.3574 45.259 34.4554 45.0666 34.6003C44.8742 34.7452 44.718 34.9328 44.6104 35.1484L37.4284 49.4286L21.5968 51.6112C21.3085 51.6502 21.0368 51.7692 20.8128 51.9549C20.5887 52.1405 20.4212 52.3852 20.3292 52.6613C20.2373 52.9373 20.2247 53.234 20.2927 53.5169C20.3608 53.7998 20.5068 54.0579 20.7142 54.262L32.0822 65.5018L29.2604 81.2302C29.2077 81.5169 29.2365 81.8128 29.3438 82.0839C29.451 82.355 29.6322 82.5906 29.8668 82.7637C30.1014 82.9368 30.3799 83.0405 30.6706 83.063C30.9612 83.0854 31.2524 83.0255 31.5108 82.8905L45.7092 75.5563L59.8043 83.0918C60.0598 83.2274 60.3481 83.2891 60.6367 83.2699C60.9253 83.2508 61.2029 83.1514 61.4382 82.9832C61.6735 82.815 61.8573 82.5847 61.9689 82.3178C62.0805 82.051 62.1154 81.7581 62.0698 81.4725L59.4839 65.6985L71.0091 54.6266C71.2182 54.4257 71.367 54.1701 71.4386 53.8891C71.5103 53.6081 71.5019 53.3126 71.4146 53.0361C71.3272 52.7596 71.1643 52.5133 70.9443 52.3244C70.7242 52.1356 70.4558 52.0118 70.1692 51.9674L54.3703 49.549L47.3965 35.1689C47.2489 34.8626 47.0049 34.6132 46.7021 34.4587C46.3992 34.3042 46.054 34.2533 45.7194 34.3136ZM45.9748 39.3623L51.9253 51.6442C52.0356 51.8707 52.1991 52.0669 52.4019 52.2162C52.6048 52.3655 52.8408 52.4634 53.0898 52.5014L66.5828 54.5647L56.7372 64.0196C56.5549 64.1945 56.418 64.411 56.3383 64.6507C56.2585 64.8904 56.2383 65.1462 56.2795 65.3955L58.4878 78.8676L46.4532 72.4247C46.2307 72.3083 45.9833 72.2474 45.7322 72.2474C45.4811 72.2474 45.2337 72.3083 45.0112 72.4247L32.8817 78.6899L35.2866 65.255C35.3307 65.0065 35.3136 64.751 35.2369 64.5106C35.1602 64.2702 35.0263 64.0523 34.8465 63.8752L25.1467 54.2734L38.6648 52.4087C38.9142 52.3741 39.1515 52.2792 39.3562 52.1326C39.5609 51.9861 39.7271 51.7924 39.8403 51.5675L45.9748 39.3737V39.3623Z" fill="#2B4255"/>
</svg>
