<svg width="189" height="210" viewBox="0 0 189 210" fill="none" xmlns="http://www.w3.org/2000/svg">
<circle cx="87.5677" cy="84.6097" r="64" transform="rotate(-21.2421 87.5677 84.6097)" fill="white"/>
<path d="M66.0318 96.6704C64.1304 97.4095 62.3881 97.5975 60.805 97.2344C59.2132 96.849 57.8768 95.8621 56.796 94.2738L59.95 93.0477C61.1938 94.3925 62.8558 94.6605 64.9361 93.8519C65.7414 93.5388 66.4343 93.1021 67.0147 92.5418C67.5951 91.9814 68.0121 91.2657 68.2658 90.3946C68.5194 89.5235 68.5854 88.4679 68.4638 87.2277C68.3422 85.9875 67.9777 84.5198 67.3703 82.8247C67.2658 83.4833 67.0681 84.1009 66.7773 84.6775C66.4777 85.2317 66.1073 85.7361 65.6661 86.1909C65.2386 86.6146 64.7669 86.991 64.2512 87.3203C63.7354 87.6495 63.2203 87.9141 62.7058 88.1141C60.357 89.0271 58.2258 89.1088 56.3122 88.3592C54.4122 87.5785 52.9884 85.9691 52.0406 83.5308L51.9102 83.1953C51.4754 82.0768 51.2767 80.9695 51.3142 79.8735C51.374 78.7688 51.6314 77.7418 52.0863 76.7924C52.5326 75.8207 53.1627 74.9578 53.9768 74.2036C54.7909 73.4494 55.7348 72.8636 56.8085 72.4462C59.4481 71.4202 61.8632 71.4727 64.0539 72.6039C66.2669 73.7264 68.0951 76.1442 69.5386 79.8576L69.7994 80.5286C70.6951 82.8327 71.2254 84.8925 71.3904 86.7081C71.5467 88.5013 71.4222 90.0689 71.0169 91.4109C70.6253 92.7219 69.9951 93.8166 69.1263 94.695C68.2489 95.5511 67.2173 96.2096 66.0318 96.6704ZM62.0464 85.126C63.6793 84.4912 64.76 83.5948 65.2883 82.4367C65.8166 81.2786 65.7807 79.9278 65.1807 78.3844L65.0503 78.0488C64.459 76.5277 63.562 75.5117 62.3591 75.0008C61.1787 74.4811 59.7831 74.5344 58.1725 75.1604C56.5396 75.7952 55.4589 76.6916 54.9306 77.8497C54.3936 78.9855 54.4338 80.3474 55.0512 81.9357L55.1816 82.2712C55.7816 83.8147 56.6675 84.8351 57.8393 85.3323C59.011 85.8295 60.4134 85.7608 62.0464 85.126ZM81.7469 66.3056L69.2648 71.1577L68.1953 68.4062L83.9657 62.276L84.97 64.8596L84.7074 89.0246L81.3519 90.3289L81.7469 66.3056ZM105.785 53.7944L109.14 52.4901L102.165 82.2386L98.8092 83.5429L105.785 53.7944ZM95.9965 70.3453C95.2136 70.6497 94.4344 70.7981 93.659 70.7905C92.9059 70.7742 92.2032 70.6225 91.5509 70.3354C90.8898 70.0258 90.2946 69.5877 89.7653 69.021C89.2274 68.4319 88.7975 67.7235 88.4758 66.8958L88.3453 66.5603C88.0236 65.7326 87.8665 64.931 87.8741 64.1556C87.8817 63.3802 88.0247 62.6551 88.3031 61.9804C88.5816 61.3057 88.993 60.708 89.5374 60.1874C90.1041 59.6581 90.7789 59.2413 91.5619 58.9369C92.3448 58.6326 93.1128 58.4886 93.8659 58.5048C94.6413 58.5124 95.3595 58.6709 96.0206 58.9805C96.6816 59.29 97.2768 59.7281 97.8061 60.2949C98.3354 60.8616 98.7609 61.5588 99.0826 62.3865L99.2131 62.722C99.5348 63.5497 99.6962 64.3624 99.6974 65.1602C99.6898 65.9356 99.5468 66.6607 99.2683 67.3354C98.9812 67.9878 98.5542 68.5786 97.9875 69.1079C97.4431 69.6285 96.7795 70.041 95.9965 70.3453ZM95.0053 67.7952C95.7658 67.4996 96.2741 67.0187 96.5302 66.3527C96.7863 65.6867 96.7187 64.8503 96.3274 63.8437L96.197 63.5082C95.8057 62.5015 95.2907 61.8391 94.652 61.5209C94.0133 61.2027 93.3137 61.1914 92.5532 61.4871C91.7926 61.7827 91.2843 62.2635 91.0282 62.9296C90.7721 63.5956 90.8397 64.4319 91.231 65.4386L91.3614 65.7741C91.7527 66.7807 92.2677 67.4431 92.9064 67.7614C93.5451 68.0796 94.2447 68.0909 95.0053 67.7952ZM116.375 77.0625C115.592 77.3668 114.813 77.5152 114.037 77.5076C113.284 77.4914 112.581 77.3397 111.929 77.0525C111.268 76.743 110.673 76.3049 110.144 75.7381C109.606 75.149 109.176 74.4406 108.854 73.613L108.724 73.2774C108.402 72.4498 108.245 71.6482 108.252 70.8728C108.26 70.0974 108.403 69.3723 108.681 68.6975C108.96 68.0228 109.371 67.4252 109.916 66.9046C110.482 66.3753 111.157 65.9584 111.94 65.6541C112.723 65.3498 113.491 65.2057 114.244 65.222C115.02 65.2296 115.738 65.3881 116.399 65.6976C117.06 66.0072 117.655 66.4453 118.184 67.012C118.714 67.5788 119.139 68.276 119.461 69.1036L119.591 69.4392C119.913 70.2668 120.074 71.0796 120.076 71.8774C120.068 72.6528 119.925 73.3779 119.647 74.0526C119.359 74.705 118.932 75.2958 118.366 75.8251C117.821 76.3457 117.158 76.7582 116.375 77.0625ZM115.383 74.5124C116.144 74.2167 116.652 73.7359 116.908 73.0699C117.165 72.4038 117.097 71.5675 116.706 70.5609L116.575 70.2253C116.184 69.2187 115.669 68.5563 115.03 68.2381C114.392 67.9199 113.692 67.9086 112.931 68.2042C112.171 68.4999 111.662 68.9807 111.406 69.6467C111.15 70.3128 111.218 71.1491 111.609 72.1557L111.74 72.4913C112.131 73.4979 112.646 74.1603 113.285 74.4785C113.923 74.7967 114.623 74.808 115.383 74.5124Z" fill="#4C0085"/>
<path d="M68.702 117.959C67.5835 118.393 66.6142 118.5 65.7941 118.278C64.9739 118.056 64.3651 117.533 63.9676 116.709L65.4439 116.135C65.6918 116.541 66.0515 116.787 66.5231 116.874C67.0015 116.946 67.5539 116.86 68.1802 116.617C68.952 116.317 69.4612 115.971 69.7079 115.579C69.9615 115.171 70.0166 114.783 69.8731 114.414C69.7035 113.977 69.4255 113.693 69.0391 113.56C68.6483 113.416 68.095 113.483 67.3791 113.761L65.8524 114.354L65.3829 113.146L66.8089 112.592C67.4241 112.353 67.8146 112.066 67.9806 111.731C68.1577 111.392 68.1637 111.01 67.9985 110.585C67.868 110.249 67.5984 110.019 67.1896 109.895C66.7808 109.77 66.2632 109.83 65.6368 110.074C64.9546 110.339 64.5003 110.644 64.2741 110.989C64.0547 111.319 63.9897 111.699 64.0791 112.127L62.6028 112.701C62.4928 112.319 62.4609 111.939 62.5069 111.561C62.5598 111.167 62.6916 110.794 62.9023 110.441C63.113 110.089 63.4013 109.771 63.7673 109.487C64.1402 109.188 64.5894 108.936 65.1151 108.731C65.6855 108.51 66.2037 108.385 66.6697 108.359C67.1426 108.317 67.5645 108.359 67.9354 108.485C68.302 108.6 68.6132 108.788 68.8692 109.049C69.1251 109.31 69.327 109.63 69.4748 110.011C69.64 110.436 69.6794 110.852 69.593 111.259C69.5022 111.654 69.2568 112.033 68.8566 112.395C69.5481 112.319 70.0887 112.418 70.4782 112.691C70.8677 112.965 71.1582 113.348 71.3495 113.84C71.4929 114.209 71.5494 114.586 71.5189 114.971C71.4884 115.356 71.3644 115.733 71.1469 116.101C70.9362 116.453 70.6242 116.793 70.211 117.121C69.809 117.445 69.3059 117.724 68.702 117.959ZM77.0299 114.721C76.5378 114.913 76.0755 115.015 75.6431 115.029C75.2174 115.027 74.8282 114.953 74.4753 114.807C74.1224 114.661 73.8136 114.446 73.549 114.163C73.2843 113.879 73.0737 113.536 72.9172 113.134C72.5738 112.25 72.5832 111.513 72.9455 110.921C73.319 110.325 73.9923 109.838 74.9654 109.46L77.851 108.338L77.6163 107.734C77.3206 106.974 76.9429 106.515 76.4831 106.359C76.0346 106.199 75.4691 106.252 74.7869 106.517C74.1493 106.765 73.733 107.068 73.5379 107.427C73.3384 107.775 73.2805 108.106 73.3644 108.422L71.888 108.995C71.7712 108.629 71.738 108.262 71.7884 107.895C71.8456 107.512 71.9762 107.152 72.18 106.816C72.395 106.474 72.6856 106.162 73.0516 105.878C73.4132 105.583 73.8457 105.338 74.349 105.142C75.4004 104.733 76.3315 104.661 77.1423 104.925C77.9599 105.174 78.5883 105.863 79.0274 106.993L80.4296 110.6C80.6122 111.069 80.773 111.483 80.9122 111.841C81.0581 112.184 81.2187 112.514 81.3939 112.832L80.102 113.334C79.9685 113.09 79.8526 112.858 79.7545 112.639C79.652 112.408 79.5442 112.148 79.4312 111.857C79.3789 112.418 79.153 112.963 78.7534 113.491C78.3538 114.02 77.7793 114.43 77.0299 114.721ZM76.827 113.255C77.1737 113.121 77.4807 112.95 77.7479 112.743C78.0219 112.521 78.2416 112.274 78.4069 112.004C78.5679 111.723 78.6633 111.421 78.6932 111.101C78.723 110.78 78.6684 110.441 78.5293 110.083L78.2945 109.479L75.6605 110.503C75.1125 110.716 74.7253 110.995 74.4991 111.341C74.2685 111.675 74.2446 112.077 74.4272 112.547C74.588 112.961 74.866 113.245 75.2612 113.401C75.6675 113.552 76.1894 113.503 76.827 113.255ZM80.4612 102.959L81.9376 102.385L83.3854 106.11L84.5598 105.653L86.4338 100.637L88.1786 99.9592L85.9764 105.721L91.8028 108.786L89.9238 109.516L85.0554 106.928L83.881 107.385L85.394 111.277L83.9176 111.851L80.4612 102.959ZM96.0024 107.347C95.5103 107.538 95.048 107.64 94.6155 107.654C94.1899 107.652 93.8007 107.578 93.4478 107.432C93.0949 107.286 92.7861 107.071 92.5215 106.788C92.2568 106.504 92.0462 106.161 91.8897 105.759C91.5462 104.875 91.5557 104.138 91.918 103.546C92.2915 102.95 92.9648 102.463 93.9379 102.085L96.8235 100.963L96.5887 100.359C96.2931 99.5988 95.9154 99.1405 95.4556 98.9845C95.007 98.8241 94.4416 98.8765 93.7594 99.1418C93.1218 99.3896 92.7055 99.693 92.5103 100.052C92.3108 100.4 92.253 100.732 92.3368 101.047L90.8605 101.62C90.7437 101.254 90.7105 100.887 90.7609 100.52C90.8181 100.137 90.9486 99.7773 91.1525 99.4405C91.3675 99.0995 91.658 98.787 92.0241 98.5031C92.3857 98.208 92.8182 97.9626 93.3215 97.767C94.3729 97.3583 95.304 97.286 96.1148 97.5502C96.9324 97.7989 97.5608 98.488 97.9999 99.6177L99.402 103.225C99.5846 103.695 99.7455 104.108 99.8846 104.466C100.031 104.809 100.191 105.139 100.366 105.457L99.0745 105.959C98.941 105.715 98.8251 105.483 98.727 105.264C98.6245 105.033 98.5167 104.773 98.4037 104.482C98.3514 105.043 98.1255 105.588 97.7259 106.117C97.3263 106.645 96.7518 107.055 96.0024 107.347ZM95.7995 105.88C96.1462 105.746 96.4531 105.575 96.7203 105.368C96.9944 105.146 97.2141 104.899 97.3794 104.629C97.5404 104.348 97.6358 104.047 97.6656 103.726C97.6955 103.405 97.6409 103.066 97.5018 102.708L97.267 102.104L94.633 103.128C94.0849 103.341 93.6978 103.62 93.4716 103.966C93.241 104.3 93.217 104.702 93.3996 105.172C93.5605 105.586 93.8385 105.87 94.2337 106.026C94.64 106.177 95.1619 106.128 95.7995 105.88ZM105.975 103.47C104.857 103.905 103.887 104.011 103.067 103.789C102.247 103.567 101.638 103.044 101.241 102.22L102.717 101.646C102.965 102.052 103.325 102.299 103.796 102.386C104.275 102.457 104.827 102.371 105.453 102.128C106.225 101.828 106.734 101.482 106.981 101.09C107.235 100.682 107.29 100.294 107.146 99.9247C106.977 99.4885 106.699 99.2039 106.312 99.0709C105.921 98.9267 105.368 98.9937 104.652 99.272L103.126 99.8654L102.656 98.6575L104.082 98.1031C104.697 97.864 105.088 97.577 105.254 97.2421C105.431 96.9029 105.437 96.5208 105.272 96.0958C105.141 95.7602 104.872 95.5303 104.463 95.406C104.054 95.2817 103.536 95.3412 102.91 95.5847C102.228 95.8499 101.774 96.1552 101.547 96.5007C101.328 96.8306 101.263 97.2099 101.352 97.6386L99.876 98.2125C99.7661 97.8304 99.7341 97.4501 99.7802 97.0717C99.833 96.6778 99.9648 96.3047 100.175 95.9524C100.386 95.6002 100.675 95.2821 101.041 94.9982C101.413 94.6988 101.863 94.4469 102.388 94.2425C102.959 94.0208 103.477 93.8966 103.943 93.87C104.416 93.8278 104.838 93.8698 105.209 93.996C105.575 94.111 105.886 94.299 106.142 94.56C106.398 94.821 106.6 95.1416 106.748 95.5219C106.913 95.9469 106.953 96.3629 106.866 96.7699C106.775 97.1656 106.53 97.5443 106.13 97.9059C106.821 97.8302 107.362 97.929 107.751 98.2025C108.141 98.4759 108.431 98.8587 108.623 99.3508C108.766 99.7199 108.823 100.097 108.792 100.482C108.762 100.868 108.638 101.244 108.42 101.612C108.209 101.964 107.897 102.304 107.484 102.632C107.082 102.956 106.579 103.235 105.975 103.47ZM115.461 99.7827C114.89 100.004 114.313 100.126 113.729 100.147C113.141 100.157 112.579 100.053 112.044 99.8362C111.505 99.6081 111.007 99.2545 110.55 98.7754C110.094 98.2963 109.717 97.6764 109.422 96.9159L109.291 96.5803C109.013 95.8645 108.885 95.1869 108.907 94.5476C108.929 93.9082 109.066 93.3335 109.318 92.8234C109.566 92.3022 109.912 91.8521 110.357 91.4731C110.798 91.083 111.303 90.777 111.874 90.5553C112.444 90.3336 113.024 90.2178 113.612 90.2079C114.196 90.1869 114.756 90.2848 115.291 90.5018C115.821 90.7075 116.31 91.0387 116.758 91.4955C117.206 91.9522 117.569 92.5385 117.848 93.2543L117.978 93.5899C118.274 94.3504 118.415 95.0616 118.402 95.7233C118.389 96.385 118.26 96.9821 118.017 97.5146C117.769 98.0358 117.424 98.4915 116.984 98.8817C116.539 99.2606 116.031 99.5609 115.461 99.7827ZM114.939 98.4405C115.275 98.3101 115.588 98.1237 115.88 97.8815C116.168 97.628 116.393 97.3282 116.554 96.9822C116.712 96.6249 116.79 96.2145 116.79 95.751C116.802 95.2832 116.694 94.7584 116.468 94.1768L116.338 93.8413C116.129 93.3044 115.867 92.8785 115.551 92.5634C115.247 92.244 114.918 92.0112 114.565 91.8652C114.212 91.7191 113.846 91.6554 113.467 91.6739C113.088 91.6925 112.731 91.767 112.396 91.8975C112.06 92.0279 111.746 92.2143 111.454 92.4565C111.162 92.6988 110.935 92.993 110.774 93.339C110.612 93.6851 110.521 94.0809 110.501 94.5264C110.493 94.9675 110.593 95.4565 110.801 95.9934L110.932 96.3289C111.158 96.9105 111.427 97.3722 111.741 97.714C112.065 98.0514 112.406 98.2988 112.763 98.456C113.116 98.6021 113.484 98.6714 113.867 98.664C114.246 98.6455 114.604 98.5709 114.939 98.4405ZM118.308 88.2474L122.167 86.7475C123.263 86.3214 124.157 86.2376 124.85 86.4962C125.538 86.7436 126.022 87.2252 126.3 87.941C126.374 88.1312 126.416 88.34 126.427 88.5674C126.434 88.7836 126.409 88.9995 126.351 89.2151C126.304 89.4264 126.221 89.6261 126.101 89.8143C125.992 89.9982 125.85 90.1629 125.675 90.3082C126.275 90.2294 126.789 90.3258 127.217 90.5974C127.651 90.8535 127.966 91.2331 128.161 91.7364C128.461 92.5082 128.443 93.2233 128.107 93.8819C127.771 94.5405 127.055 95.0828 125.959 95.5089L121.764 97.1393L118.308 88.2474ZM125.45 94.2003C126.076 93.9568 126.475 93.6732 126.645 93.3495C126.815 93.0258 126.82 92.6571 126.659 92.2432C126.494 91.8182 126.239 91.5439 125.895 91.4202C125.546 91.2853 125.059 91.3396 124.432 91.583L121.715 92.6395L122.732 95.2568L125.45 94.2003ZM123.627 90.5055C124.265 90.2577 124.663 89.9741 124.822 89.6548C124.993 89.3311 125.002 88.9735 124.85 88.5821C124.706 88.213 124.464 87.9722 124.125 87.8596C123.796 87.7428 123.313 87.8083 122.675 88.0561L120.293 88.9821L121.245 91.4316L123.627 90.5055Z" fill="#4C0085"/>
<path d="M55.046 189.422L55.8942 189.092C55.9391 188.924 55.9483 188.69 55.9218 188.39C55.8953 188.09 55.8414 187.746 55.7603 187.357C55.6792 186.967 55.5688 186.555 55.4292 186.118C55.2949 185.67 55.1399 185.219 54.964 184.767L54.2539 182.94L59.082 181.063L61.3747 186.962L62.3533 186.581L63.383 189.23L62.2869 189.656L61.6529 188.025L56.5377 190.013L57.1718 191.644L56.0757 192.071L55.046 189.422ZM60.2264 187.408L58.3293 182.528L55.7717 183.522L56.1877 184.592C56.3297 184.957 56.4587 185.328 56.5746 185.703C56.6872 186.07 56.7816 186.429 56.8579 186.78C56.9308 187.122 56.9856 187.456 57.0223 187.782C57.0643 188.096 57.0797 188.381 57.0686 188.635L60.2264 187.408ZM67.0467 186.079C66.603 186.251 66.154 186.345 65.6998 186.362C65.2421 186.369 64.8053 186.289 64.3892 186.12C63.9698 185.943 63.5825 185.668 63.2273 185.295C62.8722 184.922 62.5796 184.44 62.3497 183.849L62.2482 183.588C62.0318 183.031 61.9321 182.504 61.9491 182.007C61.9661 181.51 62.0727 181.063 62.269 180.666C62.4619 180.26 62.7313 179.91 63.0774 179.616C63.4201 179.312 63.8132 179.074 64.2569 178.902C64.7005 178.729 65.1512 178.639 65.6089 178.632C66.0631 178.615 66.4983 178.691 66.9144 178.86C67.327 179.02 67.7076 179.278 68.0559 179.633C68.4043 179.988 68.6867 180.444 68.9031 181.001L69.0046 181.262C69.2345 181.853 69.3444 182.407 69.3342 182.921C69.3239 183.436 69.2241 183.9 69.0346 184.314C68.8417 184.72 68.5739 185.074 68.2312 185.378C67.8852 185.672 67.4903 185.906 67.0467 186.079ZM66.6409 185.035C66.9019 184.933 67.1459 184.788 67.3731 184.6C67.5969 184.403 67.7716 184.17 67.8973 183.9C68.0196 183.623 68.0808 183.303 68.0808 182.943C68.0896 182.579 68.006 182.171 67.8302 181.718L67.7287 181.457C67.5664 181.04 67.3625 180.709 67.1171 180.464C66.8803 180.215 66.6247 180.034 66.3502 179.92C66.0758 179.807 65.7911 179.757 65.4963 179.772C65.2015 179.786 64.9237 179.844 64.6627 179.946C64.4017 180.047 64.1576 180.192 63.9305 180.38C63.7033 180.569 63.5269 180.798 63.4012 181.067C63.2755 181.336 63.2049 181.644 63.1894 181.99C63.1826 182.333 63.2603 182.714 63.4226 183.131L63.5241 183.392C63.6999 183.845 63.9096 184.204 64.1531 184.47C64.4054 184.732 64.6704 184.924 64.9483 185.047C65.2227 185.16 65.5091 185.214 65.8072 185.208C66.102 185.194 66.3799 185.136 66.6409 185.035ZM74.6751 183.113C74.2315 183.286 73.7912 183.377 73.3543 183.386C72.9141 183.387 72.499 183.298 72.109 183.119C71.7157 182.932 71.3501 182.648 71.0124 182.269C70.6833 181.886 70.4038 181.399 70.1739 180.807L70.0724 180.546C69.856 179.99 69.752 179.464 69.7602 178.97C69.7685 178.477 69.8621 178.035 70.041 177.645C70.2165 177.246 70.4642 176.904 70.7841 176.62C71.1094 176.323 71.4765 176.095 71.8853 175.936C72.2942 175.777 72.6816 175.692 73.0474 175.68C73.4219 175.665 73.7655 175.711 74.0782 175.82C74.3995 175.925 74.6866 176.084 74.9393 176.296C75.2007 176.505 75.4271 176.753 75.6184 177.039L74.444 177.495C74.3101 177.357 74.1683 177.237 74.0185 177.135C73.8741 177.021 73.7119 176.939 73.5322 176.888C73.3611 176.835 73.1724 176.813 72.966 176.823C72.7597 176.833 72.5347 176.886 72.2911 176.98C72.0389 177.078 71.8139 177.221 71.6162 177.408C71.4151 177.586 71.2605 177.806 71.1522 178.069C71.0405 178.323 70.9856 178.619 70.9875 178.959C70.9981 179.295 71.0845 179.672 71.2468 180.09L71.3483 180.351C71.5207 180.795 71.7217 181.157 71.9512 181.438C72.1861 181.708 72.4337 181.907 72.6942 182.036C72.9512 182.156 73.2158 182.218 73.4879 182.223C73.7566 182.219 74.0171 182.167 74.2693 182.069C74.6956 181.904 75.0117 181.661 75.2176 181.34C75.4322 181.016 75.5294 180.648 75.5092 180.236L76.6836 179.779C76.7854 180.53 76.6575 181.206 76.2998 181.806C75.9387 182.397 75.3972 182.833 74.6751 183.113ZM78.3462 174.747L75.9844 175.665L75.5887 174.647L81.4607 172.364L81.8563 173.382L79.4945 174.3L81.7872 180.198L80.6389 180.645L78.3462 174.747ZM87.2232 178.236C86.8404 178.384 86.4809 178.464 86.1445 178.475C85.8135 178.473 85.5107 178.416 85.2363 178.302C84.9618 178.188 84.7216 178.021 84.5158 177.801C84.3099 177.581 84.1462 177.314 84.0244 177.001C83.7573 176.313 83.7646 175.74 84.0464 175.28C84.3369 174.816 84.8606 174.437 85.6174 174.143L87.8618 173.271L87.6792 172.801C87.4493 172.21 87.1555 171.853 86.7979 171.732C86.449 171.607 86.0092 171.648 85.4786 171.854C84.9827 172.047 84.6589 172.283 84.5071 172.562C84.352 172.833 84.307 173.091 84.3722 173.336L83.2239 173.782C83.1331 173.497 83.1073 173.211 83.1465 172.926C83.191 172.628 83.2925 172.348 83.451 172.086C83.6183 171.821 83.8442 171.578 84.1289 171.357C84.4102 171.128 84.7466 170.937 85.138 170.785C85.9558 170.467 86.6799 170.411 87.3106 170.616C87.9465 170.81 88.4353 171.346 88.7768 172.224L89.8673 175.03C90.0094 175.395 90.1345 175.717 90.2427 175.995C90.3562 176.262 90.4811 176.519 90.6174 176.766L89.6126 177.157C89.5087 176.967 89.4186 176.786 89.3423 176.616C89.2626 176.436 89.1788 176.234 89.0908 176.007C89.0502 176.444 88.8745 176.868 88.5637 177.279C88.2529 177.69 87.806 178.009 87.2232 178.236ZM87.0653 177.095C87.335 176.99 87.5738 176.858 87.7816 176.697C87.9947 176.524 88.1656 176.332 88.2942 176.122C88.4194 175.903 88.4936 175.669 88.5168 175.42C88.54 175.17 88.4976 174.906 88.3893 174.628L88.2067 174.158L86.1581 174.955C85.7318 175.12 85.4307 175.337 85.2548 175.606C85.0754 175.866 85.0568 176.179 85.1988 176.544C85.3239 176.866 85.5402 177.087 85.8475 177.208C86.1635 177.326 86.5695 177.288 87.0653 177.095ZM89.8919 169.087L92.8932 167.92C93.7457 167.589 94.4414 167.524 94.9802 167.725C95.5156 167.917 95.8915 168.292 96.1079 168.849C96.1654 168.997 96.1985 169.159 96.2072 169.336C96.2125 169.504 96.1926 169.672 96.1477 169.84C96.1114 170.004 96.0466 170.159 95.9533 170.306C95.8687 170.449 95.7583 170.577 95.622 170.69C96.0888 170.629 96.4885 170.704 96.8209 170.915C97.1587 171.114 97.4037 171.409 97.5558 171.801C97.7892 172.401 97.7751 172.957 97.5135 173.469C97.252 173.982 96.695 174.403 95.8425 174.735L92.5803 176.003L89.8919 169.087ZM95.4468 173.717C95.934 173.528 96.2438 173.307 96.3763 173.055C96.5087 172.804 96.5124 172.517 96.3873 172.195C96.2588 171.864 96.0606 171.651 95.7929 171.555C95.5218 171.45 95.1427 171.492 94.6556 171.681L92.5417 172.503L93.3329 174.539L95.4468 173.717ZM94.0294 170.843C94.5252 170.651 94.835 170.43 94.9588 170.182C95.0912 169.93 95.0983 169.652 94.9799 169.347C94.8683 169.06 94.6804 168.873 94.416 168.785C94.1604 168.695 93.7847 168.745 93.2888 168.938L91.4359 169.659L92.1764 171.564L94.0294 170.843ZM97.2701 166.219L98.4184 165.773L100.447 170.992L101.994 164.383L103.142 163.936L105.83 170.852L104.682 171.299L102.653 166.079L101.107 172.689L99.9585 173.135L97.2701 166.219ZM107.647 170.296C107.517 170.347 107.381 170.385 107.241 170.409L106.794 169.261C106.841 169.253 106.908 169.232 106.995 169.198C107.186 169.124 107.328 168.998 107.42 168.823C107.52 168.643 107.555 168.384 107.524 168.046C107.492 167.708 107.397 167.269 107.238 166.73C107.078 166.192 106.843 165.522 106.532 164.722L105.822 162.895L110.78 160.967L113.469 167.883L112.32 168.33L110.028 162.432L107.366 163.466L107.782 164.536C108.157 165.502 108.425 166.319 108.584 166.988C108.744 167.657 108.812 168.216 108.786 168.667C108.767 169.105 108.657 169.453 108.456 169.711C108.256 169.969 107.987 170.164 107.647 170.296ZM112.868 160.156L114.016 159.71L116.045 164.929L117.591 158.32L118.74 157.873L121.428 164.789L120.28 165.236L118.251 160.016L116.704 166.626L115.556 167.072L112.868 160.156ZM123.833 155.893L127.304 154.544C127.748 154.372 128.145 154.273 128.495 154.246C128.851 154.208 129.165 154.231 129.438 154.315C129.711 154.4 129.94 154.536 130.123 154.725C130.307 154.914 130.451 155.143 130.556 155.413C130.681 155.735 130.699 156.078 130.611 156.443C130.528 156.796 130.335 157.086 130.033 157.314C130.5 157.252 130.908 157.324 131.258 157.528C131.613 157.721 131.867 158.013 132.019 158.404C132.252 159.004 132.23 159.564 131.951 160.083C131.672 160.602 131.106 161.027 130.253 161.359L126.521 162.809L123.833 155.893ZM129.376 160.107C129.768 159.955 130.033 159.787 130.172 159.603C130.316 159.407 130.337 159.178 130.236 158.917C130.134 158.656 129.97 158.505 129.744 158.463C129.522 158.408 129.207 158.461 128.798 158.62L127.128 159.269L127.706 160.757L129.376 160.107ZM128.132 157.407C128.532 157.251 128.784 157.088 128.888 156.918C129 156.744 129.011 156.539 128.92 156.305C128.832 156.078 128.687 155.939 128.487 155.887C128.283 155.826 127.985 155.872 127.594 156.024L126.093 156.607L126.631 157.99L128.132 157.407ZM137.22 158.831C136.75 159.014 136.275 159.118 135.794 159.145C135.319 159.159 134.868 159.079 134.44 158.905C134.012 158.731 133.62 158.458 133.265 158.085C132.91 157.713 132.615 157.226 132.382 156.626L132.281 156.365C132.061 155.799 131.959 155.268 131.976 154.771C131.993 154.274 132.103 153.821 132.304 153.412C132.506 153.003 132.788 152.648 133.152 152.346C133.521 152.033 133.94 151.785 134.41 151.602C134.879 151.419 135.352 151.321 135.827 151.306C136.298 151.283 136.747 151.354 137.171 151.52C137.605 151.682 137.996 151.94 138.344 152.296C138.693 152.651 138.977 153.111 139.196 153.677L139.298 153.938C139.528 154.529 139.638 155.082 139.628 155.597C139.617 156.112 139.509 156.579 139.302 157C139.104 157.418 138.824 157.782 138.464 158.092C138.104 158.402 137.689 158.648 137.22 158.831ZM136.652 157.37C137.139 157.18 137.476 156.849 137.662 156.376C137.858 155.899 137.82 155.313 137.549 154.617L137.448 154.356C137.201 153.721 136.848 153.303 136.389 153.101C135.935 152.886 135.465 152.874 134.978 153.063C134.482 153.256 134.139 153.585 133.949 154.049C133.756 154.505 133.782 155.05 134.029 155.685L134.131 155.946C134.405 156.651 134.77 157.115 135.227 157.337C135.681 157.552 136.156 157.562 136.652 157.37ZM139.163 149.934L142.634 148.585C143.078 148.413 143.475 148.314 143.825 148.287C144.181 148.249 144.495 148.272 144.768 148.356C145.041 148.441 145.269 148.577 145.453 148.766C145.637 148.955 145.781 149.184 145.886 149.454C146.011 149.776 146.029 150.119 145.941 150.484C145.857 150.837 145.665 151.127 145.363 151.355C145.83 151.293 146.238 151.365 146.588 151.569C146.943 151.762 147.197 152.054 147.349 152.445C147.582 153.046 147.559 153.605 147.28 154.124C147.001 154.643 146.436 155.068 145.583 155.4L141.851 156.85L139.163 149.934ZM144.706 154.148C145.098 153.996 145.363 153.828 145.502 153.644C145.646 153.448 145.667 153.219 145.565 152.958C145.464 152.697 145.3 152.546 145.073 152.504C144.852 152.449 144.537 152.502 144.128 152.661L142.458 153.31L143.036 154.798L144.706 154.148ZM143.461 151.448C143.861 151.292 144.114 151.129 144.217 150.959C144.33 150.785 144.341 150.58 144.249 150.346C144.162 150.119 144.017 149.98 143.817 149.928C143.613 149.867 143.315 149.913 142.924 150.065L141.423 150.648L141.961 152.031L143.461 151.448ZM146.669 147.017L148.274 146.393L148.669 147.411C148.721 147.03 148.889 146.649 149.172 146.269C149.454 145.889 149.883 145.587 150.457 145.364C151.379 145.006 152.208 145.014 152.945 145.388C153.687 145.751 154.279 146.502 154.722 147.641L154.823 147.902C155.287 149.094 155.368 150.089 155.067 150.887C154.772 151.673 154.172 152.241 153.267 152.593C152.797 152.776 152.341 152.838 151.898 152.78C151.46 152.71 151.064 152.553 150.709 152.311L152.094 155.873L150.371 156.543L146.669 147.017ZM152.295 151.289C152.747 151.113 153.059 150.796 153.232 150.339C153.401 149.872 153.349 149.287 153.075 148.582L152.973 148.321C152.72 147.669 152.383 147.239 151.962 147.032C151.537 146.817 151.09 146.8 150.621 146.983C150.125 147.175 149.767 147.48 149.548 147.895C149.335 148.299 149.338 148.783 149.558 149.349L149.862 150.132C150.102 150.749 150.438 151.149 150.869 151.332C151.306 151.503 151.781 151.488 152.295 151.289ZM160.578 149.751C160.108 149.934 159.633 150.038 159.152 150.065C158.677 150.079 158.227 150.004 157.803 149.839C157.375 149.665 156.983 149.391 156.628 149.019C156.269 148.637 155.973 148.146 155.74 147.546L155.638 147.285C155.415 146.711 155.308 146.177 155.316 145.683C155.324 145.189 155.427 144.744 155.623 144.347C155.816 143.942 156.085 143.592 156.431 143.297C156.774 142.994 157.176 142.752 157.637 142.573C158.724 142.15 159.662 142.116 160.451 142.47C161.24 142.825 161.845 143.546 162.268 144.633L162.552 145.364L157.659 147.266C157.786 147.567 157.941 147.812 158.125 148.001C158.305 148.181 158.5 148.311 158.711 148.389C158.922 148.467 159.141 148.502 159.368 148.494C159.6 148.474 159.821 148.423 160.03 148.342C160.473 148.17 160.783 147.974 160.958 147.756C161.134 147.537 161.22 147.283 161.218 146.994L162.797 146.38C162.938 147.156 162.806 147.834 162.4 148.412C161.994 148.99 161.387 149.437 160.578 149.751ZM158.25 143.957C158.05 144.035 157.86 144.139 157.68 144.269C157.509 144.395 157.372 144.544 157.268 144.714C157.164 144.885 157.101 145.084 157.08 145.313C157.059 145.542 157.096 145.792 157.192 146.065L160.415 144.813C160.295 144.529 160.154 144.308 159.993 144.151C159.84 143.99 159.668 143.881 159.476 143.826C159.293 143.767 159.097 143.753 158.889 143.784C158.68 143.815 158.468 143.872 158.25 143.957ZM162.266 140.954L164.302 140.163L167.67 143.149L168.138 138.671L170.095 137.91L172.784 144.826L171.139 145.465L169.389 140.964L168.924 144.75L167.749 145.206L164.848 142.729L166.598 147.231L164.954 147.87L162.266 140.954ZM174.733 141.08C174.134 141.112 173.646 141.001 173.267 140.748C172.888 140.495 172.607 140.133 172.425 139.664C172.293 139.324 172.229 138.993 172.234 138.671C172.245 138.337 172.328 138.024 172.485 137.732C172.639 137.432 172.872 137.156 173.185 136.905C173.506 136.65 173.911 136.427 174.398 136.238L177.66 134.97L180.348 141.886L178.626 142.555L177.698 140.167L176.458 140.649L175.886 143.621L173.954 144.371L174.733 141.08ZM174.147 138.994C174.262 139.29 174.443 139.47 174.688 139.535C174.942 139.596 175.235 139.563 175.565 139.434L177.17 138.81L176.496 137.075L174.891 137.699C174.56 137.827 174.323 138.004 174.181 138.23C174.043 138.444 174.032 138.698 174.147 138.994ZM74.146 193.447L77.1472 192.28C77.9998 191.949 78.6954 191.884 79.2342 192.085C79.7697 192.277 80.1456 192.652 80.362 193.209C80.4195 193.357 80.4526 193.519 80.4612 193.696C80.4665 193.864 80.4467 194.032 80.4017 194.2C80.3655 194.364 80.3007 194.519 80.2074 194.666C80.1228 194.809 80.0124 194.937 79.8761 195.05C80.3429 194.989 80.7425 195.064 81.075 195.275C81.4128 195.474 81.6577 195.769 81.8099 196.161C82.0432 196.761 82.0291 197.317 81.7676 197.829C81.5061 198.342 80.9491 198.763 80.0966 199.095L76.8343 200.363L74.146 193.447ZM79.7009 198.077C80.1881 197.888 80.4979 197.667 80.6303 197.415C80.7628 197.164 80.7664 196.877 80.6413 196.555C80.5128 196.224 80.3147 196.011 80.047 195.915C79.7759 195.81 79.3968 195.852 78.9096 196.041L76.7957 196.863L77.587 198.899L79.7009 198.077ZM78.2834 195.203C78.7793 195.011 79.0891 194.79 79.2129 194.542C79.3453 194.29 79.3524 194.012 79.234 193.707C79.1224 193.42 78.9344 193.233 78.6701 193.145C78.4145 193.055 78.0387 193.105 77.5429 193.298L75.69 194.018L76.4305 195.924L78.2834 195.203ZM86.2962 195.513L87.1443 195.184C87.1893 195.016 87.1985 194.782 87.172 194.482C87.1455 194.182 87.0916 193.837 87.0105 193.448C86.9294 193.059 86.819 192.646 86.6794 192.21C86.5451 191.762 86.3901 191.311 86.2142 190.859L85.5041 189.032L90.3322 187.155L92.6248 193.053L93.6035 192.673L94.6332 195.322L93.5371 195.748L92.903 194.117L87.7879 196.105L88.422 197.736L87.3259 198.162L86.2962 195.513ZM91.4765 193.5L89.5795 188.619L87.0219 189.613L87.4379 190.684C87.5799 191.049 87.7089 191.419 87.8248 191.795C87.9373 192.162 88.0318 192.52 88.1081 192.871C88.181 193.213 88.2358 193.548 88.2725 193.874C88.3145 194.188 88.3299 194.472 88.3187 194.727L91.4765 193.5ZM98.2968 192.17C97.8532 192.343 97.4042 192.437 96.95 192.453C96.4957 192.47 96.0605 192.394 95.6445 192.225C95.225 192.047 94.8377 191.772 94.4826 191.4C94.1274 191.027 93.8332 190.541 93.5999 189.94L93.4984 189.679C93.2752 189.105 93.1695 188.576 93.1812 188.09C93.1894 187.597 93.283 187.155 93.4619 186.765C93.6461 186.363 93.9025 186.018 94.2312 185.73C94.5685 185.438 94.9503 185.21 95.3766 185.044C96.3944 184.648 97.2899 184.621 98.063 184.961C98.8362 185.301 99.4206 185.981 99.8163 186.998L100.1 187.729L94.8547 189.768C95.0136 190.177 95.2124 190.495 95.4511 190.723C95.6898 190.951 95.9474 191.111 96.2238 191.204C96.5002 191.296 96.7798 191.333 97.0625 191.313C97.3539 191.29 97.6301 191.228 97.8911 191.126C98.413 190.923 98.7794 190.681 98.9901 190.399C99.2096 190.113 99.321 189.794 99.3244 189.443L100.447 189.006C100.506 189.364 100.493 189.704 100.408 190.028C100.332 190.348 100.198 190.645 100.004 190.921C99.8161 191.184 99.5737 191.424 99.277 191.639C98.9889 191.851 98.6622 192.028 98.2968 192.17ZM95.8476 186.063C95.5779 186.167 95.3322 186.308 95.1103 186.484C94.8851 186.652 94.7046 186.857 94.5687 187.1C94.4382 187.331 94.3594 187.592 94.3323 187.883C94.3052 188.174 94.3576 188.489 94.4895 188.829L98.6521 187.211C98.5047 186.857 98.3272 186.581 98.1194 186.381C97.9169 186.169 97.6956 186.025 97.4554 185.948C97.2119 185.863 96.9504 185.834 96.6711 185.863C96.4005 185.888 96.126 185.954 95.8476 186.063ZM100.256 183.297L101.405 182.851L102.531 185.748L103.444 185.393L104.902 181.492L106.259 180.964L104.546 185.445L109.078 187.829L107.616 188.397L103.83 186.385L102.916 186.74L104.093 189.767L102.945 190.213L100.256 183.297ZM112.344 186.71C111.961 186.859 111.602 186.938 111.265 186.949C110.934 186.947 110.632 186.89 110.357 186.776C110.083 186.663 109.842 186.496 109.637 186.275C109.431 186.055 109.267 185.788 109.145 185.475C108.878 184.788 108.885 184.214 109.167 183.754C109.458 183.291 109.981 182.912 110.738 182.618L112.983 181.745L112.8 181.275C112.57 180.684 112.276 180.327 111.919 180.206C111.57 180.081 111.13 180.122 110.599 180.328C110.104 180.521 109.78 180.757 109.628 181.036C109.473 181.307 109.428 181.565 109.493 181.81L108.345 182.256C108.254 181.971 108.228 181.686 108.267 181.4C108.312 181.102 108.413 180.823 108.572 180.561C108.739 180.295 108.965 180.052 109.25 179.832C109.531 179.602 109.867 179.411 110.259 179.259C111.077 178.941 111.801 178.885 112.431 179.09C113.067 179.284 113.556 179.82 113.898 180.699L114.988 183.504C115.13 183.869 115.255 184.191 115.364 184.47C115.477 184.736 115.602 184.993 115.738 185.24L114.733 185.631C114.63 185.441 114.539 185.261 114.463 185.09C114.383 184.911 114.3 184.708 114.212 184.482C114.171 184.918 113.995 185.342 113.684 185.753C113.374 186.164 112.927 186.483 112.344 186.71ZM112.186 185.57C112.456 185.465 112.695 185.332 112.902 185.171C113.116 184.998 113.286 184.806 113.415 184.596C113.54 184.377 113.614 184.143 113.638 183.894C113.661 183.644 113.618 183.381 113.51 183.102L113.328 182.632L111.279 183.429C110.853 183.594 110.552 183.812 110.376 184.08C110.196 184.34 110.178 184.653 110.32 185.018C110.445 185.34 110.661 185.562 110.968 185.682C111.284 185.8 111.69 185.762 112.186 185.57ZM120.623 183.492C120.161 183.671 119.697 183.751 119.229 183.733C118.77 183.711 118.328 183.592 117.904 183.377C117.485 183.149 117.094 182.826 116.731 182.406C116.376 181.983 116.079 181.463 115.839 180.845L115.737 180.584C115.433 179.801 115.219 179.083 115.095 178.43C114.968 177.769 114.957 177.173 115.061 176.641C115.17 176.098 115.399 175.619 115.748 175.203C116.106 174.783 116.617 174.424 117.282 174.126C117.82 173.887 118.29 173.679 118.692 173.502C119.091 173.317 119.405 173.095 119.635 172.836L120.066 173.945C119.957 174.077 119.724 174.238 119.367 174.427C119.018 174.612 118.526 174.839 117.889 175.107C117.475 175.278 117.125 175.473 116.84 175.694C116.565 175.912 116.354 176.169 116.209 176.465C116.073 176.759 116.005 177.1 116.007 177.49C116.013 177.868 116.094 178.308 116.249 178.808C116.278 178.266 116.458 177.776 116.788 177.337C117.118 176.898 117.57 176.567 118.144 176.344C118.588 176.172 119.023 176.093 119.449 176.107C119.872 176.113 120.268 176.204 120.637 176.381C121.015 176.555 121.358 176.817 121.664 177.169C121.968 177.511 122.218 177.935 122.414 178.44L122.515 178.701C122.725 179.24 122.832 179.759 122.835 180.258C122.836 180.749 122.753 181.206 122.588 181.631C122.419 182.047 122.167 182.416 121.831 182.737C121.495 183.057 121.092 183.309 120.623 183.492ZM120.217 182.448C120.826 182.211 121.245 181.808 121.474 181.238C121.7 180.66 121.655 179.966 121.341 179.157L121.239 178.896C121.108 178.557 120.937 178.273 120.728 178.043C120.519 177.814 120.285 177.64 120.028 177.519C119.768 177.39 119.487 177.324 119.185 177.321C118.892 177.315 118.594 177.371 118.289 177.489C117.985 177.608 117.722 177.77 117.502 177.976C117.29 178.178 117.132 178.415 117.027 178.686C116.919 178.948 116.865 179.235 116.865 179.545C116.866 179.855 116.932 180.18 117.064 180.519L117.165 180.78C117.314 181.163 117.501 181.491 117.728 181.763C117.959 182.024 118.213 182.226 118.489 182.369C118.761 182.503 119.046 182.578 119.342 182.593C119.638 182.608 119.93 182.559 120.217 182.448ZM122.773 174.545L123.843 174.129L124.35 175.434C124.406 174.881 124.595 174.402 124.918 173.996C125.246 173.578 125.689 173.261 126.246 173.045C127.116 172.707 127.923 172.723 128.668 173.094C129.41 173.457 129.999 174.199 130.435 175.321L130.537 175.582C130.767 176.174 130.898 176.719 130.932 177.216C130.961 177.705 130.908 178.147 130.77 178.541C130.63 178.926 130.41 179.262 130.111 179.548C129.82 179.831 129.462 180.056 129.035 180.222C128.444 180.451 127.897 180.514 127.396 180.408C126.903 180.299 126.48 180.088 126.128 179.775L127.624 183.624L126.476 184.07L122.773 174.545ZM128.379 179.305C128.657 179.197 128.898 179.043 129.101 178.844C129.301 178.636 129.447 178.394 129.54 178.118C129.641 177.838 129.679 177.523 129.653 177.173C129.635 176.819 129.547 176.438 129.388 176.029L129.287 175.768C129.142 175.394 128.959 175.079 128.74 174.824C128.529 174.565 128.294 174.372 128.033 174.242C127.778 174.101 127.508 174.026 127.224 174.016C126.94 174.006 126.659 174.056 126.38 174.164C126.067 174.286 125.8 174.449 125.58 174.655C125.356 174.852 125.188 175.078 125.077 175.332C124.962 175.577 124.899 175.841 124.89 176.125C124.88 176.409 124.929 176.691 125.037 176.969L125.443 178.013C125.565 178.326 125.729 178.593 125.935 178.813C126.14 179.034 126.37 179.2 126.624 179.311C126.878 179.423 127.155 179.48 127.457 179.483C127.758 179.486 128.066 179.427 128.379 179.305ZM136.411 177.354C135.967 177.527 135.518 177.621 135.064 177.638C134.61 177.654 134.175 177.578 133.759 177.409C133.339 177.232 132.952 176.957 132.597 176.584C132.242 176.211 131.947 175.725 131.714 175.125L131.613 174.864C131.39 174.29 131.284 173.76 131.295 173.275C131.304 172.781 131.397 172.339 131.576 171.949C131.76 171.547 132.017 171.202 132.345 170.914C132.683 170.623 133.065 170.394 133.491 170.228C134.509 169.833 135.404 169.805 136.177 170.145C136.95 170.486 137.535 171.165 137.931 172.183L138.215 172.913L132.969 174.952C133.128 175.361 133.327 175.68 133.565 175.907C133.804 176.135 134.062 176.295 134.338 176.388C134.614 176.481 134.894 176.517 135.177 176.497C135.468 176.474 135.744 176.412 136.005 176.311C136.527 176.108 136.894 175.865 137.104 175.583C137.324 175.297 137.435 174.979 137.439 174.627L138.561 174.191C138.62 174.548 138.607 174.889 138.522 175.212C138.446 175.532 138.312 175.83 138.118 176.105C137.93 176.368 137.688 176.608 137.391 176.823C137.103 177.035 136.776 177.212 136.411 177.354ZM133.962 171.247C133.692 171.352 133.446 171.492 133.225 171.669C132.999 171.836 132.819 172.042 132.683 172.285C132.552 172.516 132.474 172.777 132.447 173.068C132.419 173.359 132.472 173.674 132.604 174.013L136.766 172.395C136.619 172.042 136.441 171.765 136.234 171.565C136.031 171.354 135.81 171.209 135.57 171.133C135.326 171.047 135.065 171.018 134.785 171.047C134.515 171.072 134.24 171.139 133.962 171.247ZM143.409 173.328L145.83 168.736C146.017 168.393 146.16 168.092 146.26 167.833C146.368 167.571 146.442 167.337 146.482 167.131C146.519 166.916 146.523 166.72 146.493 166.541C146.473 166.359 146.425 166.172 146.351 165.981C146.151 165.467 145.835 165.105 145.402 164.892C144.966 164.671 144.482 164.664 143.951 164.87C143.316 165.117 142.897 165.481 142.693 165.96C142.485 166.432 142.503 166.98 142.747 167.607L141.52 168.083C141.348 167.64 141.263 167.202 141.265 166.771C141.273 166.327 141.364 165.916 141.537 165.538C141.72 165.157 141.978 164.816 142.312 164.516C142.642 164.208 143.047 163.96 143.525 163.774C143.986 163.595 144.428 163.508 144.851 163.514C145.271 163.511 145.657 163.591 146.011 163.754C146.361 163.909 146.669 164.134 146.935 164.432C147.201 164.729 147.415 165.086 147.577 165.504C147.699 165.817 147.764 166.127 147.774 166.434C147.783 166.741 147.748 167.05 147.668 167.361C147.598 167.669 147.486 167.987 147.334 168.317C147.187 168.634 147.017 168.971 146.825 169.326L144.975 172.644L149.777 170.777L150.193 171.847L143.799 174.332L143.409 173.328ZM154.942 170.151C154.499 170.323 154.048 170.413 153.59 170.421C153.142 170.425 152.7 170.307 152.265 170.065C151.828 169.815 151.405 169.423 150.998 168.891C150.587 168.349 150.206 167.626 149.854 166.721L149.753 166.46C149.425 165.617 149.238 164.878 149.192 164.245C149.146 163.612 149.205 163.068 149.369 162.614C149.53 162.151 149.777 161.77 150.111 161.47C150.454 161.166 150.847 160.928 151.29 160.756C151.734 160.583 152.18 160.495 152.629 160.491C153.087 160.483 153.531 160.596 153.962 160.829C154.39 161.053 154.801 161.414 155.194 161.912C155.588 162.41 155.949 163.081 156.277 163.924L156.379 164.185C156.73 165.09 156.938 165.881 157 166.557C157.06 167.225 157.012 167.799 156.859 168.28C156.701 168.751 156.452 169.139 156.109 169.442C155.775 169.742 155.386 169.979 154.942 170.151ZM154.527 169.081C154.796 168.976 155.034 168.829 155.241 168.638C155.452 168.436 155.599 168.168 155.68 167.836C155.767 167.492 155.771 167.065 155.693 166.555C155.623 166.041 155.443 165.41 155.152 164.662L155.051 164.401C154.787 163.723 154.514 163.188 154.232 162.797C153.958 162.402 153.677 162.116 153.387 161.938C153.107 161.757 152.821 161.668 152.532 161.67C152.251 161.669 151.976 161.721 151.706 161.826C151.428 161.934 151.186 162.083 150.979 162.274C150.773 162.464 150.623 162.723 150.53 163.049C150.445 163.373 150.431 163.774 150.487 164.253C150.551 164.728 150.716 165.305 150.979 165.984L151.081 166.245C151.372 166.993 151.661 167.581 151.948 168.011C152.243 168.436 152.535 168.749 152.822 168.947C153.115 169.134 153.404 169.232 153.688 169.242C153.969 169.243 154.248 169.189 154.527 169.081ZM159.07 167.24L161.491 162.649C161.678 162.306 161.821 162.005 161.921 161.746C162.029 161.483 162.103 161.249 162.144 161.043C162.18 160.829 162.184 160.632 162.154 160.453C162.134 160.271 162.086 160.084 162.012 159.893C161.812 159.379 161.496 159.017 161.063 158.805C160.627 158.584 160.143 158.576 159.613 158.783C158.977 159.029 158.558 159.393 158.354 159.873C158.147 160.344 158.165 160.893 158.408 161.519L157.181 161.996C157.009 161.552 156.924 161.114 156.927 160.683C156.934 160.239 157.025 159.828 157.199 159.451C157.381 159.069 157.639 158.729 157.973 158.429C158.303 158.12 158.708 157.872 159.186 157.686C159.648 157.507 160.089 157.421 160.512 157.426C160.932 157.424 161.318 157.504 161.672 157.667C162.022 157.821 162.33 158.046 162.596 158.344C162.862 158.641 163.076 158.998 163.238 159.416C163.36 159.729 163.426 160.039 163.435 160.346C163.444 160.653 163.409 160.962 163.329 161.273C163.259 161.581 163.147 161.9 162.995 162.229C162.848 162.547 162.678 162.883 162.486 163.238L160.636 166.556L165.438 164.689L165.854 165.759L159.46 168.245L159.07 167.24ZM166.809 164.156L168.989 163.309L166.376 156.589L164.801 158.989L164.283 157.658L165.88 155.235L167.107 154.758L170.241 162.822L172.029 162.127L172.445 163.197L167.225 165.226L166.809 164.156Z" fill="white"/>
</svg>
