<svg width="200" height="72" viewBox="0 0 200 72" fill="none" xmlns="http://www.w3.org/2000/svg">
<path d="M12.7127 64.093C12.7846 65.141 12.63 66.1921 12.2591 67.1771C11.8881 68.1621 11.3093 69.0587 10.5606 69.8078C8.81701 71.2334 6.58156 71.9428 4.31956 71.7883H0V56.6699H4.81146C6.94369 56.5386 9.04259 57.2393 10.6529 58.6202C11.3666 59.3398 11.9187 60.1988 12.2735 61.1415C12.6284 62.0843 12.778 63.0898 12.7127 64.093ZM9.33086 64.1686C9.33086 60.9232 7.87563 59.3005 4.96518 59.3005H3.24351V69.1426H4.64237C7.78852 69.1426 9.3616 67.4846 9.3616 64.1686H9.33086Z" fill="black"/>
<path d="M29.868 64.2141C30.0083 66.3011 29.3318 68.3618 27.9772 69.9742C27.2709 70.6707 26.4213 71.2104 25.4853 71.5573C24.5494 71.9041 23.5488 72.0499 22.5508 71.9849C21.5529 72.0499 20.5523 71.9041 19.6163 71.5573C18.6804 71.2104 17.8308 70.6707 17.1245 69.9742C15.7651 68.3526 15.0886 66.2806 15.2337 64.1838C15.0855 62.0959 15.7628 60.0323 17.1245 58.4237C17.8373 57.7328 18.6906 57.1978 19.6285 56.8539C20.5663 56.5099 21.5674 56.3648 22.5662 56.4281C23.5618 56.3643 24.5597 56.5108 25.493 56.8576C26.4262 57.2044 27.2733 57.7436 27.9772 58.4389C29.3328 60.0566 30.0091 62.1224 29.868 64.2141ZM18.6617 64.2141C18.5715 65.5428 18.9105 66.8656 19.6301 67.9937C19.9731 68.4263 20.4187 68.7697 20.9279 68.9937C21.437 69.2177 21.9943 69.3156 22.5508 69.2787C25.1538 69.2787 26.4554 67.5804 26.4554 64.1838C26.4554 60.7872 25.1641 59.0839 22.5816 59.0738C22.0228 59.0371 21.4634 59.1349 20.9518 59.3588C20.4401 59.5828 19.9918 59.926 19.6455 60.3589C18.9025 61.5056 18.5573 62.8582 18.6617 64.2141Z" fill="black"/>
<path d="M39.5524 71.7883L35.8477 59.9355H35.7708C35.9041 62.3443 35.9707 63.9519 35.9707 64.7582V71.7883H33.05V56.6699H37.4772L41.1203 68.2203L44.9941 56.685H49.4213V71.8034H46.3469V64.6373C46.3469 64.3047 46.3469 63.9116 46.3469 63.4732C46.3469 63.0347 46.3469 61.8555 46.4852 59.9657H46.5313L42.5346 71.7883H39.5524Z" fill="black"/>
<path d="M62.1955 71.7883H53.3412V56.6699H62.1955V59.3005H56.6V62.6114H61.7958V65.242H56.6V69.1426H62.1955V71.7883Z" fill="black"/>
<path d="M71.1266 71.7883V56.6699H72.9098V71.7883H71.1266Z" fill="black"/>
<path d="M89.1735 71.7883H87.129L78.7359 59.104H78.659C78.7615 60.5957 78.8127 61.9614 78.8127 63.2011V71.7883H77.1679V56.6699H79.1816L87.5594 69.2938H87.6363C87.6363 69.1123 87.6055 68.5126 87.5441 67.4947C87.4826 66.4767 87.4826 65.7561 87.5441 65.3327V56.685H89.2196L89.1735 71.7883Z" fill="black"/>
<path d="M105.391 71.7883H103.408L94.9534 59.104H94.8765C94.9893 60.5957 95.0456 61.9614 95.0456 63.2011V71.7883H93.3854V56.6699H95.4146L103.792 69.2938H103.869C103.869 69.1123 103.838 68.5126 103.777 67.4947C103.715 66.4767 103.715 65.7561 103.777 65.3327V56.685H105.453L105.391 71.7883Z" fill="black"/>
<path d="M122.946 64.2143C123.067 66.2754 122.404 68.307 121.086 69.9139C120.431 70.613 119.627 71.1612 118.731 71.5192C117.836 71.8773 116.871 72.0364 115.906 71.9851C114.933 72.044 113.959 71.8916 113.053 71.5389C112.148 71.1862 111.332 70.6417 110.664 69.9442C109.343 68.3159 108.686 66.2627 108.819 64.1841C108.687 62.1195 109.345 60.0809 110.664 58.4693C111.337 57.775 112.156 57.2339 113.064 56.8839C113.972 56.5339 114.947 56.3836 115.921 56.4435C116.884 56.3935 117.846 56.5532 118.739 56.9112C119.632 57.2692 120.433 57.8168 121.086 58.5147C122.404 60.1216 123.067 62.1532 122.946 64.2143ZM110.648 64.2143C110.527 65.8702 110.995 67.5161 111.97 68.8708C112.474 69.3681 113.073 69.7627 113.733 70.032C114.392 70.3012 115.099 70.4398 115.813 70.4398C116.527 70.4398 117.234 70.3012 117.894 70.032C118.553 69.7627 119.152 69.3681 119.656 68.8708C120.619 67.5104 121.08 65.8675 120.963 64.2143C121.082 62.5725 120.626 60.94 119.672 59.5881C119.195 59.059 118.6 58.6468 117.932 58.3843C117.265 58.1218 116.545 58.0163 115.829 58.0763C115.106 58.0186 114.38 58.1249 113.705 58.387C113.031 58.6491 112.427 59.06 111.94 59.5881C110.999 60.9441 110.564 62.5788 110.71 64.2143H110.648Z" fill="black"/>
<path d="M135.151 56.6851H137.073L131.539 71.8034H129.771L124.268 56.6851H126.159L129.679 66.4817C130.07 67.5547 130.393 68.6503 130.647 69.7624C130.903 68.6292 131.231 67.5132 131.631 66.4213L135.151 56.6851Z" fill="black"/>
<path d="M148.848 71.7883L146.942 66.9806H140.793L138.902 71.7883H137.073L143.222 56.6699H144.759L150.8 71.7883H148.848ZM146.373 65.4083L144.59 60.7216C144.354 60.127 144.118 59.4013 143.883 58.5446C143.705 59.2821 143.484 60.009 143.222 60.7216L141.408 65.4083H146.373Z" fill="black"/>
<path d="M157.533 71.7883H155.673V58.1818H150.8V56.6699H162.314V58.1818H157.441L157.533 71.7883Z" fill="black"/>
<path d="M164.712 71.7883V56.6699H166.434V71.7883H164.712Z" fill="black"/>
<path d="M184.05 64.2143C184.171 66.2754 183.508 68.307 182.19 69.9139C181.535 70.613 180.731 71.1612 179.835 71.5192C178.94 71.8773 177.975 72.0364 177.01 71.9851C176.037 72.044 175.063 71.8916 174.158 71.5389C173.252 71.1862 172.436 70.6417 171.768 69.9442C170.447 68.3159 169.79 66.2627 169.923 64.1841C169.791 62.1195 170.449 60.0809 171.768 58.4693C172.441 57.775 173.26 57.2339 174.168 56.8839C175.076 56.5339 176.051 56.3836 177.025 56.4435C177.988 56.3935 178.95 56.5532 179.843 56.9112C180.736 57.2692 181.537 57.8168 182.19 58.5147C183.508 60.1216 184.171 62.1532 184.05 64.2143ZM171.752 64.2143C171.631 65.8702 172.099 67.5161 173.074 68.8708C173.578 69.3681 174.177 69.7627 174.837 70.032C175.496 70.3012 176.203 70.4398 176.917 70.4398C177.631 70.4398 178.338 70.3012 178.998 70.032C179.657 69.7627 180.256 69.3681 180.76 68.8708C181.723 67.5104 182.184 65.8675 182.067 64.2143C182.186 62.5725 181.73 60.94 180.776 59.5881C180.299 59.059 179.704 58.6468 179.036 58.3843C178.369 58.1218 177.649 58.0163 176.933 58.0763C176.21 58.0186 175.484 58.1249 174.809 58.387C174.135 58.6491 173.531 59.06 173.044 59.5881C172.097 60.9422 171.657 62.577 171.798 64.2143H171.752Z" fill="black"/>
<path d="M199.468 71.7883H197.424L189.031 59.104H188.954C189.066 60.5957 189.123 61.9614 189.123 63.2011V71.7883H187.478V56.6699H189.492L197.87 69.2938H197.946C197.946 69.1123 197.916 68.5126 197.854 67.4947C197.793 66.4767 197.793 65.7561 197.854 65.3327V56.685H199.53L199.468 71.7883Z" fill="black"/>
<path d="M99.5496 14.6111L98.2123 15.1554C97.8698 15.2957 97.5981 15.5641 97.4568 15.9015C97.3155 16.2389 97.3163 16.6176 97.459 16.9545L97.7972 17.7708C97.1308 18.2582 96.5404 18.8389 96.0448 19.4943L95.2147 19.1617C94.8723 19.0214 94.4871 19.0206 94.1441 19.1595C93.801 19.2985 93.5281 19.5657 93.3854 19.9025L92.832 21.2178C92.6894 21.5546 92.6885 21.9334 92.8298 22.2708C92.9711 22.6082 93.2428 22.8766 93.5853 23.0169L94.815 23.5158C94.8807 23.5426 94.951 23.5565 95.022 23.5565C95.0931 23.5566 95.1634 23.5429 95.2291 23.5162C95.2948 23.4896 95.3544 23.4504 95.4047 23.4011C95.455 23.3517 95.4949 23.2931 95.5222 23.2286C95.5494 23.164 95.5635 23.0949 95.5635 23.025C95.5636 22.9551 95.5497 22.8859 95.5226 22.8214C95.4955 22.7568 95.4557 22.6981 95.4055 22.6486C95.3553 22.5992 95.2957 22.5599 95.2301 22.5331L94.0003 22.0342C93.9239 22.0009 93.8635 21.9398 93.832 21.8637C93.8005 21.7876 93.8002 21.7024 93.8312 21.626L94.3846 20.3107C94.4184 20.2356 94.4806 20.1762 94.558 20.1452C94.6354 20.1142 94.7221 20.1139 94.7997 20.1444L96.0294 20.6433C96.1455 20.692 96.2754 20.699 96.3962 20.6631C96.5171 20.6272 96.6212 20.5506 96.6904 20.4468C97.2436 19.6282 97.9601 18.9287 98.7964 18.3907C98.902 18.3226 98.9798 18.2202 99.0164 18.1013C99.0529 17.9825 99.0458 17.8548 98.9962 17.7406L98.489 16.5311C98.4579 16.4548 98.4582 16.3696 98.4898 16.2935C98.5213 16.2173 98.5816 16.1562 98.6581 16.1229L99.9954 15.5787C100.074 15.5468 100.163 15.5468 100.241 15.5787C100.317 15.6108 100.378 15.6703 100.41 15.745L100.918 16.9545C100.963 17.0691 101.048 17.1641 101.158 17.2224C101.268 17.2806 101.395 17.2982 101.517 17.2719C102.486 17.0809 103.484 17.0809 104.453 17.2719C104.575 17.2951 104.701 17.2762 104.811 17.2183C104.92 17.1605 105.005 17.0672 105.053 16.9545L105.56 15.745C105.594 15.6698 105.656 15.6105 105.734 15.5795C105.811 15.5484 105.898 15.5482 105.975 15.5787L107.313 16.1229C107.388 16.155 107.449 16.2146 107.482 16.2892C107.514 16.3667 107.514 16.4537 107.482 16.5311L106.974 17.7406C106.929 17.853 106.924 17.9773 106.96 18.0928C106.997 18.2083 107.072 18.3081 107.174 18.3756C107.998 18.9124 108.704 19.6064 109.249 20.4166C109.319 20.5204 109.423 20.597 109.544 20.6329C109.664 20.6688 109.794 20.6618 109.91 20.6131L111.14 20.1142C111.219 20.0823 111.307 20.0823 111.386 20.1142C111.462 20.1463 111.523 20.2058 111.555 20.2805L112.109 21.5958C112.141 21.6733 112.141 21.7602 112.109 21.8377C112.093 21.8751 112.07 21.9091 112.041 21.9377C112.012 21.9662 111.978 21.9888 111.94 22.004L110.71 22.5029C110.595 22.5495 110.5 22.6336 110.441 22.7411C110.383 22.8485 110.363 22.9727 110.387 23.0925C110.581 24.0456 110.581 25.027 110.387 25.9801C110.366 26.0997 110.387 26.2227 110.445 26.3295C110.504 26.4364 110.597 26.5209 110.71 26.5697L111.94 27.0686C112.016 27.1019 112.076 27.163 112.108 27.2392C112.139 27.3153 112.14 27.4005 112.109 27.4768L111.555 28.7921C111.521 28.8673 111.459 28.9266 111.382 28.9577C111.304 28.9887 111.218 28.9889 111.14 28.9584L109.91 28.4595C109.794 28.4108 109.664 28.4038 109.544 28.4397C109.423 28.4757 109.319 28.5522 109.249 28.6561C108.704 29.4662 107.998 30.1602 107.174 30.697C107.072 30.7645 106.997 30.8643 106.96 30.9798C106.924 31.0953 106.929 31.2196 106.974 31.332L107.482 32.5415C107.514 32.6189 107.514 32.7059 107.482 32.7834C107.449 32.858 107.388 32.9176 107.313 32.9497L105.975 33.4939C105.896 33.5259 105.808 33.5259 105.729 33.4939C105.653 33.4618 105.593 33.4023 105.56 33.3276L104.945 32.1635C104.89 32.0332 104.785 31.9297 104.652 31.8759C104.52 31.822 104.371 31.8221 104.238 31.8763C104.106 31.9304 104 32.0341 103.946 32.1645C103.891 32.2949 103.891 32.4414 103.946 32.5717L104.453 33.7812C104.595 34.1161 104.866 34.3824 105.207 34.522C105.377 34.5915 105.56 34.6274 105.745 34.6278C105.929 34.6282 106.112 34.5922 106.283 34.522L107.62 33.9777C107.962 33.8374 108.234 33.569 108.375 33.2316C108.517 32.8942 108.516 32.5154 108.373 32.1786L108.035 31.3622C108.702 30.8749 109.292 30.2942 109.787 29.6388L110.618 29.9714C110.96 30.1117 111.345 30.1125 111.688 29.9736C112.031 29.8346 112.304 29.5674 112.447 29.2306L113 27.9153C113.143 27.5784 113.144 27.1997 113.002 26.8623C112.861 26.5249 112.589 26.2565 112.247 26.1162L111.417 25.7836C111.536 24.9765 111.536 24.1566 111.417 23.3495L112.247 23.0169C112.589 22.8766 112.861 22.6082 113.002 22.2708C113.144 21.9334 113.143 21.5546 113 21.2178L112.447 19.9025C112.304 19.5657 112.031 19.2985 111.688 19.1595C111.345 19.0206 110.96 19.0214 110.618 19.1617L109.787 19.4943C109.292 18.8386 108.702 18.2579 108.035 17.7708L108.373 16.9545C108.458 16.7885 108.508 16.6072 108.52 16.4217C108.532 16.2361 108.506 16.0501 108.443 15.8749C108.379 15.6997 108.281 15.5389 108.152 15.4022C108.024 15.2656 107.869 15.1559 107.697 15.0798L106.359 14.5355C106.19 14.466 106.008 14.4301 105.824 14.4297C105.641 14.4293 105.459 14.4645 105.289 14.5333C105.119 14.6021 104.965 14.7031 104.834 14.8306C104.704 14.9581 104.601 15.1095 104.53 15.2763L104.192 16.0927C103.371 15.9753 102.538 15.9753 101.717 16.0927L101.379 15.2763C101.237 14.9413 100.966 14.6751 100.626 14.5355C100.286 14.4002 99.9052 14.4002 99.565 14.5355L99.5496 14.6111Z" fill="black"/>
<path d="M107.343 24.5285C107.331 23.3922 106.865 22.3063 106.045 21.5057C105.225 20.705 104.118 20.2539 102.962 20.25C102.385 20.254 101.814 20.3697 101.282 20.5907C100.75 20.8116 100.268 21.1335 99.8625 21.5378C99.4571 21.9421 99.1366 22.421 98.9194 22.9471C98.7022 23.4732 98.5925 24.0363 98.5966 24.6041C98.5966 24.7444 98.6533 24.879 98.7542 24.9782C98.8551 25.0775 98.9919 25.1332 99.1346 25.1332C99.2066 25.1333 99.2778 25.1191 99.3441 25.0916C99.4104 25.064 99.4704 25.0237 99.5206 24.9729C99.5707 24.9222 99.6101 24.8621 99.6362 24.7961C99.6623 24.7302 99.6747 24.6597 99.6726 24.589C99.6686 24.1608 99.7506 23.7362 99.9139 23.3393C100.077 22.9424 100.319 22.5812 100.624 22.2763C100.93 21.9715 101.294 21.729 101.695 21.5629C102.096 21.3968 102.527 21.3103 102.962 21.3083C103.841 21.3083 104.683 21.6515 105.305 22.2625C105.926 22.8735 106.275 23.7022 106.275 24.5663C106.275 25.4304 105.926 26.2591 105.305 26.87C104.683 27.481 103.841 27.8243 102.962 27.8243C102.89 27.8243 102.819 27.8384 102.753 27.866C102.686 27.8935 102.626 27.9338 102.576 27.9846C102.526 28.0353 102.487 28.0955 102.461 28.1614C102.435 28.2274 102.422 28.2978 102.424 28.3686C102.424 28.5089 102.481 28.6435 102.582 28.7427C102.683 28.8419 102.82 28.8977 102.962 28.8977C104.126 28.8897 105.238 28.4286 106.057 27.6153C106.875 26.802 107.332 25.7029 107.328 24.5587L107.343 24.5285Z" fill="black"/>
<path d="M93.8466 40.5236H94.8919C95.0453 40.5236 95.1973 40.4939 95.339 40.4362C95.4807 40.3784 95.6095 40.2938 95.718 40.1871C95.8265 40.0804 95.9126 39.9537 95.9713 39.8143C96.03 39.6749 96.0602 39.5255 96.0602 39.3746V38.8455C96.598 38.713 97.1151 38.5096 97.5974 38.2408L97.9817 38.6187C98.091 38.7252 98.2206 38.8093 98.363 38.8664C98.5055 38.9235 98.658 38.9523 98.8118 38.9513C98.9659 38.9541 99.1189 38.926 99.2616 38.8688C99.4043 38.8116 99.5337 38.7265 99.6419 38.6187L100.38 37.893C100.488 37.7855 100.574 37.6581 100.632 37.518C100.69 37.3779 100.719 37.2279 100.718 37.0766C100.717 36.9192 100.682 36.7638 100.616 36.6206C100.55 36.4773 100.454 36.3493 100.334 36.2451L99.9493 35.8672C100.223 35.3928 100.43 34.8842 100.564 34.3553H101.102C101.412 34.3553 101.709 34.2343 101.928 34.0188C102.147 33.8033 102.271 33.5111 102.271 33.2063V32.1783C102.271 31.8736 102.147 31.5813 101.928 31.3658C101.709 31.1503 101.412 31.0293 101.102 31.0293H100.564C100.429 30.5007 100.222 29.9922 99.9493 29.5175L100.334 29.1395C100.442 29.032 100.527 28.9046 100.586 28.7645C100.644 28.6244 100.673 28.4744 100.672 28.3231C100.646 28.0592 100.527 27.8128 100.334 27.6277L99.5958 26.902C99.3826 26.6943 99.0964 26.5752 98.7964 26.5694C98.6424 26.5666 98.4894 26.5947 98.3467 26.6519C98.204 26.7091 98.0746 26.7941 97.9663 26.902L97.582 27.2799C97.0997 27.0111 96.5826 26.8077 96.0448 26.6752V26.1461C96.0448 25.8413 95.9217 25.5491 95.7027 25.3336C95.4836 25.1181 95.1864 24.9971 94.8765 24.9971H93.8312C93.5214 24.9971 93.2242 25.1181 93.0051 25.3336C92.7861 25.5491 92.663 25.8413 92.663 26.1461V26.6752C92.1252 26.8077 91.6081 27.0111 91.1258 27.2799L90.7415 26.902C90.6322 26.7955 90.5026 26.7114 90.3601 26.6543C90.2177 26.5972 90.0652 26.5683 89.9114 26.5694C89.7573 26.5666 89.6043 26.5947 89.4616 26.6519C89.3189 26.7091 89.1895 26.7941 89.0813 26.902L88.3434 27.6277C88.1266 27.8428 88.0049 28.1335 88.0049 28.4365C88.0049 28.7395 88.1266 29.0302 88.3434 29.2453L88.7277 29.6233C88.4544 30.0977 88.2476 30.6062 88.1128 31.1351H87.5748C87.265 31.1351 86.9678 31.2562 86.7487 31.4717C86.5296 31.6871 86.4065 31.9794 86.4065 32.2841V33.2215C86.4065 33.5262 86.5296 33.8184 86.7487 34.0339C86.9678 34.2494 87.265 34.3705 87.5748 34.3705H88.1128C88.2476 34.8994 88.4544 35.4079 88.7277 35.8823L88.3434 36.2602C88.1266 36.4754 88.0049 36.7661 88.0049 37.0691C88.0049 37.372 88.1266 37.6627 88.3434 37.8779L89.0813 38.6036C89.1906 38.71 89.3201 38.7942 89.4626 38.8513C89.605 38.9084 89.7576 38.9372 89.9114 38.9362C90.0654 38.9389 90.2184 38.9109 90.3611 38.8537C90.5038 38.7965 90.6332 38.7114 90.7415 38.6036L91.1258 38.2256C91.6081 38.4944 92.1252 38.6979 92.663 38.8304V39.3595C92.663 39.6642 92.7861 39.9565 93.0051 40.172C93.2242 40.3874 93.5214 40.5085 93.8312 40.5085L93.8466 40.5236ZM91.4178 37.122C91.3267 37.0625 91.2197 37.031 91.1104 37.0313C91.0394 37.0303 90.9688 37.0431 90.9029 37.0691C90.8369 37.095 90.7768 37.1336 90.7261 37.1825L90.0497 37.8477L89.3119 37.122C89.2967 37.1054 89.2884 37.0838 89.2884 37.0615C89.2884 37.0392 89.2967 37.0177 89.3119 37.001L89.9882 36.3358C90.0656 36.2417 90.1078 36.1243 90.1078 36.0032C90.1078 35.8822 90.0656 35.7648 89.9882 35.6706C89.5968 35.0992 89.325 34.4567 89.1889 33.7808C89.1642 33.6621 89.0989 33.5552 89.0037 33.4782C88.9086 33.4011 88.7895 33.3585 88.6662 33.3575H87.6978C87.6857 33.3575 87.6737 33.3552 87.6625 33.3506C87.6513 33.3461 87.6411 33.3394 87.6326 33.331C87.624 33.3225 87.6172 33.3125 87.6126 33.3015C87.6079 33.2905 87.6056 33.2787 87.6056 33.2668V32.2388C87.6056 32.2269 87.6079 32.2151 87.6126 32.2041C87.6172 32.193 87.624 32.183 87.6326 32.1746C87.6411 32.1662 87.6513 32.1595 87.6625 32.155C87.6737 32.1504 87.6857 32.1481 87.6978 32.1481H88.6662C88.7895 32.147 88.9086 32.1044 89.0037 32.0274C89.0989 31.9503 89.1642 31.8435 89.1889 31.7247C89.3242 31.0486 89.596 30.406 89.9882 29.8349C90.0656 29.7408 90.1078 29.6234 90.1078 29.5023C90.1078 29.3813 90.0656 29.2639 89.9882 29.1697L89.3119 28.5045C89.2967 28.4879 89.2884 28.4664 89.2884 28.4441C89.2884 28.4217 89.2967 28.4002 89.3119 28.3836L90.0497 27.6579L90.7261 28.3382C90.8218 28.4143 90.9412 28.4558 91.0643 28.4558C91.1874 28.4558 91.3067 28.4143 91.4025 28.3382C91.9835 27.9532 92.6367 27.686 93.324 27.5521C93.4447 27.5278 93.5534 27.4636 93.6317 27.37C93.71 27.2764 93.7534 27.1593 93.7544 27.038V26.0856C93.7544 26.0615 93.7641 26.0385 93.7814 26.0215C93.7987 26.0044 93.8222 25.9949 93.8466 25.9949H94.8919C94.9164 25.9949 94.9398 26.0044 94.9571 26.0215C94.9744 26.0385 94.9841 26.0615 94.9841 26.0856V27.038C94.9852 27.1593 95.0285 27.2764 95.1068 27.37C95.1852 27.4636 95.2938 27.5278 95.4146 27.5521C96.1021 27.6852 96.7554 27.9525 97.3361 28.3382C97.4318 28.4143 97.5512 28.4558 97.6743 28.4558C97.7974 28.4558 97.9167 28.4143 98.0125 28.3382L98.6888 27.673L99.4267 28.3987C99.4362 28.4057 99.444 28.4149 99.4493 28.4254C99.4547 28.4359 99.4574 28.4474 99.4574 28.4592C99.4574 28.4709 99.4547 28.4825 99.4493 28.493C99.444 28.5035 99.4362 28.5126 99.4267 28.5196L98.7503 29.1849C98.6729 29.279 98.6307 29.3964 98.6307 29.5175C98.6307 29.6385 98.6729 29.7559 98.7503 29.8501C99.1653 30.4064 99.4632 31.0386 99.6265 31.7096C99.6512 31.8284 99.7165 31.9352 99.8117 32.0123C99.9068 32.0893 100.026 32.1319 100.149 32.1329H101.118C101.13 32.1329 101.142 32.1353 101.153 32.1398C101.164 32.1444 101.174 32.1511 101.183 32.1595C101.191 32.1679 101.198 32.1779 101.203 32.1889C101.207 32.1999 101.21 32.2117 101.21 32.2236V33.2215C101.21 33.2334 101.207 33.2452 101.203 33.2562C101.198 33.2672 101.191 33.2772 101.183 33.2856C101.174 33.294 101.164 33.3007 101.153 33.3053C101.142 33.3098 101.13 33.3122 101.118 33.3122H100.149C100.026 33.3132 99.9068 33.3558 99.8117 33.4328C99.7165 33.5099 99.6512 33.6167 99.6265 33.7355C99.4898 34.435 99.2072 35.099 98.7964 35.6857C98.7191 35.7799 98.6769 35.8973 98.6769 36.0184C98.6769 36.1394 98.7191 36.2568 98.7964 36.351L99.4728 37.0162C99.4824 37.0232 99.4901 37.0323 99.4954 37.0428C99.5008 37.0533 99.5035 37.0649 99.5035 37.0766C99.5035 37.0884 99.5008 37.0999 99.4954 37.1104C99.4901 37.1209 99.4824 37.1301 99.4728 37.1371L98.7349 37.8628L98.0586 37.1976C97.9628 37.1215 97.8435 37.08 97.7204 37.08C97.5973 37.08 97.4779 37.1215 97.3822 37.1976C96.8012 37.5826 96.1479 37.8498 95.4607 37.9837C95.3399 38.008 95.2313 38.0723 95.153 38.1658C95.0746 38.2594 95.0313 38.3766 95.0303 38.4978V39.4502C95.0303 39.4743 95.0205 39.4973 95.0033 39.5144C94.986 39.5314 94.9625 39.5409 94.938 39.5409H93.8927C93.8683 39.5409 93.8448 39.5314 93.8275 39.5144C93.8102 39.4973 93.8005 39.4743 93.8005 39.4502V38.4978C93.7995 38.3766 93.7562 38.2594 93.6778 38.1658C93.5995 38.0723 93.4908 38.008 93.3701 37.9837C92.6834 37.84 92.0311 37.568 91.4486 37.1825L91.4178 37.122Z" fill="black"/>
<path d="M97.5667 32.7682C97.5667 32.1462 97.3791 31.5382 97.0278 31.0211C96.6765 30.504 96.1771 30.1009 95.5929 29.8629C95.0086 29.6249 94.3657 29.5626 93.7455 29.684C93.1253 29.8053 92.5555 30.1048 92.1084 30.5446C91.6612 30.9844 91.3567 31.5447 91.2333 32.1547C91.1099 32.7647 91.1733 33.3969 91.4153 33.9715C91.6573 34.5461 92.0671 35.0373 92.5929 35.3828C93.1187 35.7283 93.7369 35.9128 94.3693 35.9128C95.216 35.9088 96.0269 35.5762 96.6257 34.9873C97.2245 34.3985 97.5626 33.6009 97.5667 32.7682ZM92.2479 32.7682C92.2479 32.3555 92.3723 31.9521 92.6054 31.609C92.8385 31.266 93.1698 30.9985 93.5575 30.8406C93.9451 30.6827 94.3716 30.6414 94.7831 30.7219C95.1946 30.8024 95.5726 31.0011 95.8693 31.2929C96.166 31.5847 96.368 31.9564 96.4498 32.3611C96.5317 32.7658 96.4897 33.1853 96.3291 33.5666C96.1686 33.9478 95.8967 34.2736 95.5478 34.5029C95.199 34.7321 94.7888 34.8545 94.3693 34.8545C93.8067 34.8545 93.2671 34.6347 92.8693 34.2434C92.4714 33.8521 92.2479 33.3215 92.2479 32.7682Z" fill="black"/>
<path d="M118.78 22.9865C118.478 22.9865 118.189 23.1043 117.976 23.3141C117.762 23.524 117.643 23.8085 117.643 24.1052V44.1219H81.8871V16.5914L99.7649 2.56157L118.058 16.9845C118.175 17.0768 118.309 17.1455 118.453 17.1868C118.597 17.228 118.748 17.2409 118.897 17.2248C119.047 17.2086 119.191 17.1637 119.323 17.0927C119.454 17.0216 119.57 16.9258 119.664 16.8106C119.758 16.6955 119.828 16.5633 119.87 16.4215C119.912 16.2798 119.925 16.1314 119.908 15.9847C119.892 15.838 119.846 15.6959 119.774 15.5665C119.702 15.4372 119.604 15.3231 119.487 15.2308L100.472 0.248467C100.27 0.0876955 100.017 0 99.7572 0C99.497 0 99.2447 0.0876955 99.0424 0.248467L80.0425 15.2156C79.9082 15.3204 79.7997 15.4538 79.7252 15.6056C79.6506 15.7574 79.612 15.9239 79.6121 16.0925V45.3163C79.6121 45.613 79.7319 45.8976 79.9452 46.1074C80.1586 46.3172 80.4479 46.435 80.7496 46.435H118.78C119.082 46.435 119.371 46.3172 119.584 46.1074C119.798 45.8976 119.918 45.613 119.918 45.3163V24.1506C119.924 23.9999 119.899 23.8495 119.845 23.7085C119.79 23.5675 119.707 23.4388 119.601 23.33C119.495 23.2213 119.367 23.1348 119.226 23.0758C119.085 23.0167 118.933 22.9863 118.78 22.9865Z" fill="black"/>
</svg>
