<svg width="1920" height="1056" viewBox="0 0 1920 1056" fill="none" xmlns="http://www.w3.org/2000/svg">
<rect y="95" width="1920" height="961" fill="#130C3A"/>
<path d="M419.752 149.133C405.036 128.941 382.902 115.423 358.219 111.55C333.535 107.678 308.325 113.77 288.133 128.486C267.941 143.201 254.422 165.336 250.55 190.019C246.678 214.702 252.77 239.913 267.486 260.105L343.619 204.619L419.752 149.133Z" fill="#FF9D0A"/>
<path d="M1423.4 94.9972C1423.5 119.982 1433.53 143.902 1451.27 161.495C1469.01 179.088 1493.01 188.912 1518 188.807C1542.98 188.703 1566.9 178.677 1584.49 160.935C1602.09 143.194 1611.91 119.191 1611.81 94.206L1517.6 94.6016L1423.4 94.9972Z" fill="#0555FF"/>
</svg>
